<svg xmlns="http://www.w3.org/2000/svg" width="1254" height="836" viewBox="0 0 1254 836">
<g>
<path d="M 377.41 464.11 C373.91,465.70 370.67,467.00 370.22,467.00 C369.77,467.00 365.60,465.17 360.97,462.93 C351.90,458.54 342.20,452.00 337.69,447.23 L 334.88 444.26 L 337.37 444.53 C340.01,444.83 341.34,443.04 340.36,440.50 C339.52,438.31 341.39,438.67 343.60,441.12 C346.54,444.40 356.83,451.43 363.75,454.90 C369.80,457.93 370.11,457.98 373.67,456.50 C380.00,453.85 393.33,444.40 398.58,438.84 C415.85,420.52 423.25,399.03 423.14,367.52 C423.12,359.27 423.41,352.97 423.80,353.52 C424.79,354.91 427.00,355.20 427.00,353.94 C427.00,353.36 427.43,353.15 427.95,353.47 C428.51,353.81 428.76,352.59 428.56,350.53 C428.22,346.98 429.30,345.73 430.35,348.47 C430.66,349.28 431.20,355.02 431.55,361.22 C432.38,375.90 430.09,395.62 426.12,407.95 C424.52,412.93 423.50,417.19 423.85,417.41 C424.21,417.63 431.18,418.61 439.34,419.60 C457.00,421.73 456.31,422.39 434.22,424.51 C425.66,425.33 418.62,426.11 418.56,426.25 C418.50,426.39 416.26,429.76 413.57,433.74 C405.14,446.24 391.42,457.76 377.41,464.11 ZM 719.00 430.80 C719.00,431.46 717.99,431.92 716.75,431.83 C705.45,430.95 706.32,431.38 700.21,423.64 C697.07,419.65 692.03,413.18 689.00,409.26 C685.97,405.33 683.16,402.09 682.75,402.06 C682.34,402.03 682.00,408.52 682.00,416.50 L 682.00 431.00 L 671.00 431.00 L 671.00 368.00 L 682.00 368.00 L 682.00 381.00 C682.00,388.15 682.36,394.00 682.81,394.00 C683.25,394.00 688.31,388.15 694.04,381.00 L 704.46 368.00 L 717.13 368.00 L 710.81 375.62 C707.34,379.81 701.95,386.38 698.84,390.23 L 693.19 397.21 L 703.73 410.86 C709.52,418.36 715.33,425.65 716.63,427.05 C717.94,428.46 719.00,430.15 719.00,430.80 ZM 631.00 398.97 L 631.00 431.00 L 619.00 431.00 L 619.00 362.00 L 631.00 362.00 L 631.00 376.50 C631.00,384.48 631.20,391.00 631.44,391.00 C631.69,391.00 633.59,389.99 635.67,388.77 C640.89,385.69 650.63,385.60 654.67,388.59 C659.84,392.41 660.47,394.99 660.83,413.75 L 661.17 431.00 L 649.00 431.00 L 649.00 415.22 C649.00,396.56 648.43,395.00 641.69,395.00 C639.28,395.01 636.12,395.85 634.25,396.99 ZM 557.93 430.87 C552.73,432.69 541.81,433.02 536.56,431.52 C525.15,428.27 519.00,420.48 519.00,409.31 C519.00,394.45 527.51,386.00 542.50,386.00 C556.54,386.00 564.00,393.17 564.00,406.65 L 564.00 411.00 L 530.96 411.00 L 531.60 413.75 C532.66,418.32 534.94,421.07 539.33,423.06 C544.34,425.34 548.73,425.48 556.03,423.58 C559.04,422.80 561.64,422.31 561.81,422.48 C561.99,422.65 561.83,424.39 561.47,426.33 C560.96,429.05 560.13,430.11 557.93,430.87 ZM 501.03 377.00 L 500.50 430.50 L 487.00 431.09 L 487.00 377.07 L 464.50 376.50 L 464.20 371.75 L 463.89 367.00 L 523.00 367.00 L 523.00 377.00 ZM 944.50 431.67 C934.64,434.22 924.52,432.71 917.15,427.61 C911.86,423.94 909.79,419.83 909.22,411.85 C908.59,403.05 910.61,397.54 916.42,392.18 C924.65,384.59 939.24,384.31 946.52,391.59 C950.21,395.28 953.37,403.90 952.82,408.74 L 952.50 411.50 L 936.25 411.77 C926.19,411.94 920.00,412.43 920.00,413.06 C920.00,415.93 923.17,420.94 926.14,422.76 C931.94,426.33 938.02,426.50 948.32,423.38 C949.88,422.90 950.09,423.34 949.82,426.60 C949.51,430.23 949.29,430.43 944.50,431.67 ZM 851.95 431.05 C846.14,433.06 843.05,433.30 838.94,432.05 C829.54,429.20 828.05,425.43 828.02,404.38 L 828.00 388.26 L 831.75 387.64 C832.24,387.56 832.70,387.48 833.13,387.40 C835.25,387.03 836.58,386.79 837.44,387.33 C839.09,388.35 838.97,392.23 839.18,403.47 C839.48,419.02 839.63,420.08 841.76,422.20 C844.54,424.98 850.49,425.22 854.33,422.70 L 857.00 420.95 L 857.00 388.00 L 869.04 388.00 L 868.77 409.75 L 868.50 431.50 L 864.04 431.82 C860.95,432.04 859.24,431.68 858.49,430.65 C857.54,429.35 856.73,429.40 851.95,431.05 ZM 747.19 431.02 C741.15,433.31 737.97,433.44 732.74,431.57 C724.01,428.45 723.00,425.67 723.00,404.66 L 723.00 388.25 L 726.12 387.62 C727.84,387.28 730.32,387.00 731.62,387.00 L 734.00 387.00 L 734.00 402.94 C734.00,418.32 734.09,418.99 736.39,421.67 C739.26,425.01 745.10,425.47 749.33,422.70 C751.96,420.98 752.00,420.79 752.18,408.73 C752.28,402.00 752.39,394.48 752.43,392.00 L 752.50 387.50 L 758.27 387.20 L 764.04 386.90 L 763.77 409.20 L 763.50 431.50 L 758.55 431.24 C755.83,431.09 753.33,430.54 753.00,430.01 C752.64,429.42 750.34,429.82 747.19,431.02 ZM 377.91 441.98 C374.49,444.19 370.95,446.00 370.05,446.00 C368.11,446.00 354.33,437.13 351.64,434.15 C349.80,432.13 349.82,432.08 352.64,431.40 C354.21,431.02 357.42,429.83 359.76,428.74 C362.10,427.66 364.92,427.01 366.03,427.30 C369.47,428.20 376.26,424.89 382.00,419.52 C385.02,416.69 389.61,412.71 392.19,410.67 C394.77,408.64 397.17,406.05 397.52,404.93 C397.88,403.80 399.26,402.47 400.59,401.97 C403.25,400.95 403.86,399.00 401.50,399.00 C399.25,399.00 399.62,398.08 404.00,392.88 C406.20,390.28 408.00,387.43 408.00,386.57 C408.00,384.70 407.56,384.64 404.68,386.14 C403.48,386.77 404.52,385.44 407.00,383.18 C409.48,380.93 411.76,379.06 412.07,379.04 C413.13,378.96 410.98,393.47 408.89,400.50 C403.52,418.49 393.51,431.90 377.91,441.98 ZM 309.00 425.95 C309.00,427.50 278.55,427.20 273.50,425.60 C262.36,422.06 251.30,413.78 246.30,405.25 C236.16,387.95 238.64,365.69 252.31,351.25 C255.99,347.37 258.42,346.82 254.92,350.66 C253.59,352.12 253.06,353.00 253.75,352.60 C254.45,352.20 255.00,352.40 255.00,353.06 C255.00,353.91 255.36,353.94 256.28,353.18 C256.99,352.60 258.78,351.90 260.26,351.63 C261.75,351.36 263.42,350.86 263.98,350.51 C266.00,349.26 264.90,350.65 259.13,356.62 C251.40,364.62 248.61,371.47 248.56,382.55 C248.53,389.65 248.91,391.37 251.79,397.22 C255.86,405.50 263.76,412.98 271.75,416.12 C276.52,418.00 279.94,418.45 291.77,418.79 L 306.05 419.19 L 307.52 422.04 C308.34,423.62 309.00,425.37 309.00,425.95 ZM 608.51 431.00 C604.03,432.70 593.73,433.06 589.50,431.66 C576.41,427.33 571.37,420.30 572.18,407.51 C572.74,398.79 576.61,392.59 583.88,388.79 C588.49,386.39 590.38,386.00 597.55,386.00 C609.11,386.00 611.00,386.86 611.00,392.08 C611.00,395.62 610.75,396.11 609.25,395.50 C608.29,395.10 604.58,394.56 601.00,394.29 C595.34,393.87 594.05,394.11 591.01,396.18 C586.34,399.37 585.03,402.32 585.01,409.72 C585.00,415.20 585.35,416.33 587.99,419.33 C591.95,423.84 598.24,425.68 604.42,424.12 C610.77,422.53 611.00,422.61 611.00,426.52 C611.00,429.36 610.51,430.23 608.51,431.00 ZM 821.81 427.72 L 821.50 431.50 L 815.00 431.77 C806.98,432.10 802.25,430.01 799.75,425.00 C798.35,422.20 798.00,418.86 798.00,408.31 L 798.00 395.13 L 794.75 394.81 C791.91,394.54 791.46,394.10 791.19,391.32 C790.91,388.37 791.13,388.11 794.19,387.82 L 797.50 387.50 L 797.79 381.37 L 798.09 375.24 L 801.96 374.62 C804.08,374.28 806.52,373.74 807.37,373.41 C808.65,372.92 808.96,374.03 809.20,380.16 L 809.50 387.50 L 821.00 388.10 L 821.00 395.00 L 809.00 395.00 L 809.00 406.43 C809.00,412.72 809.41,418.95 809.92,420.28 C811.03,423.22 816.04,425.46 819.54,424.58 C822.01,423.96 822.11,424.09 821.81,427.72 ZM 785.00 363.00 L 785.00 431.00 L 774.00 431.00 L 774.00 363.00 ZM 889.78 416.82 L 889.50 431.50 L 884.96 431.80 C882.47,431.96 880.10,431.77 879.71,431.38 C879.32,430.99 879.00,421.07 879.00,409.33 L 879.00 388.00 L 884.00 388.00 C888.75,388.00 889.00,388.13 889.00,390.67 L 889.00 393.35 L 891.25 391.24 C894.15,388.52 898.23,387.00 902.62,387.00 L 906.11 387.00 L 905.80 391.74 C905.55,395.66 905.16,396.49 903.50,396.56 C902.40,396.62 900.30,396.73 898.83,396.83 C897.36,396.92 894.78,398.16 893.10,399.57 L 890.05 402.13 ZM 920.73 404.40 C921.06,404.73 925.99,405.00 931.69,405.00 L 942.04 405.00 L 941.38 402.25 C940.54,398.75 939.01,395.70 937.60,394.77 C937.00,394.36 934.22,394.02 931.42,394.02 C927.44,394.00 925.90,394.48 924.24,396.25 C921.85,398.80 919.83,403.49 920.73,404.40 ZM 532.00 401.93 C532.00,403.88 532.56,404.00 542.00,404.00 L 552.00 404.00 L 552.00 401.42 C552.00,397.73 546.97,393.00 543.03,393.00 C537.00,393.00 532.00,397.05 532.00,401.93 ZM 551.79 536.67 C551.59,542.50 551.09,545.47 550.25,545.75 C549.31,546.06 549.00,543.90 549.00,537.08 C549.00,529.57 549.27,528.00 550.54,528.00 C551.83,528.00 552.03,529.41 551.79,536.67 ZM 403.36 370.50 C403.05,371.33 402.30,372.00 401.71,372.00 C401.11,372.00 401.89,370.68 403.44,369.06 C405.35,367.07 406.09,365.45 405.73,364.06 C405.16,361.89 407.07,361.32 410.48,362.63 C411.89,363.17 411.73,363.67 409.37,366.13 C407.86,367.71 406.02,369.00 405.28,369.00 C404.54,369.00 403.68,369.67 403.36,370.50 ZM 788.00 539.56 C788.00,542.55 787.55,545.00 787.00,545.00 C786.44,545.00 786.00,542.31 786.00,538.94 C786.00,535.16 786.38,533.11 787.00,533.50 C787.55,533.84 788.00,536.57 788.00,539.56 Z" fill="rgb(26,51,89)"/>
<path d="M 403.36 370.50 C403.68,369.67 404.54,369.00 405.28,369.00 C405.59,369.00 406.10,368.77 406.69,368.39 C392.49,380.45 378.87,391.99 373.70,396.35 C370.54,399.01 367.40,400.98 366.72,400.72 C366.05,400.46 362.94,398.17 359.81,395.63 C352.00,389.26 346.00,389.41 346.00,395.98 C346.00,397.97 347.76,400.05 353.66,405.03 C362.45,412.46 366.00,414.98 367.69,414.99 C368.35,415.00 378.48,406.90 390.19,397.01 C398.74,389.79 406.30,383.52 409.88,380.66 C409.04,381.36 408.04,382.24 407.00,383.18 C404.52,385.44 403.48,386.77 404.68,386.14 C407.56,384.64 408.00,384.70 408.00,386.57 C408.00,387.43 406.20,390.28 404.00,392.88 C399.62,398.08 399.25,399.00 401.50,399.00 C403.86,399.00 403.25,400.95 400.59,401.97 C399.26,402.47 397.88,403.80 397.52,404.93 C397.17,406.05 394.77,408.64 392.19,410.67 C389.61,412.71 385.02,416.69 382.00,419.52 C376.26,424.89 369.47,428.20 366.03,427.30 C364.92,427.01 362.10,427.66 359.76,428.74 C357.42,429.83 354.21,431.02 352.64,431.40 C349.82,432.08 349.80,432.13 351.64,434.15 C354.32,437.12 368.00,445.93 370.02,446.00 C369.07,446.00 364.52,443.51 359.90,440.47 C338.32,426.27 328.40,406.92 327.26,376.75 C326.76,363.56 326.82,363.00 328.71,363.00 C335.21,363.00 353.95,356.61 362.43,351.50 C365.63,349.57 368.73,348.00 369.32,348.00 C369.91,348.00 374.41,350.07 379.31,352.61 C385.20,355.65 392.14,358.18 399.73,360.06 C402.48,360.74 405.04,361.40 407.09,361.95 C405.91,362.07 405.39,362.79 405.73,364.06 C406.09,365.45 405.35,367.07 403.44,369.06 C401.89,370.68 401.11,372.00 401.71,372.00 C402.30,372.00 403.05,371.33 403.36,370.50 ZM 259.90 355.83 C264.99,350.53 265.91,349.32 263.98,350.51 C263.42,350.86 261.75,351.36 260.26,351.63 C258.78,351.90 256.99,352.60 256.28,353.18 C255.36,353.94 255.00,353.91 255.00,353.06 C255.00,352.40 254.45,352.20 253.75,352.60 C253.06,353.00 253.59,352.12 254.92,350.66 C257.29,348.06 256.94,347.48 255.32,348.57 C258.32,345.96 261.72,343.70 265.50,341.88 C268.80,340.30 272.26,339.00 273.19,339.00 C274.24,339.00 276.11,336.69 278.11,332.95 C279.88,329.62 283.10,325.08 285.26,322.85 C290.06,317.91 299.60,313.40 307.08,312.54 L 312.66 311.90 L 317.83 304.47 C329.69,287.40 347.62,278.60 370.50,278.61 C379.92,278.61 382.65,279.01 389.49,281.38 C400.73,285.27 407.69,289.83 416.19,298.86 L 423.54 306.68 L 429.83 307.25 C433.59,307.59 438.28,308.88 441.51,310.46 C451.42,315.31 460.18,327.71 461.61,338.91 C462.23,343.79 462.13,344.26 460.57,343.66 C459.62,343.30 457.80,343.00 456.54,343.00 C454.64,343.00 454.04,342.20 453.07,338.37 C451.41,331.77 448.75,327.05 444.33,322.86 C438.61,317.43 434.48,315.72 425.81,315.21 L 418.11 314.75 L 413.95 308.81 C407.29,299.33 397.07,292.17 385.07,288.61 C376.69,286.13 360.23,286.46 351.94,289.29 C338.07,294.02 327.66,302.66 321.17,314.83 L 317.88 321.00 L 311.69 321.01 C308.29,321.01 303.87,321.46 301.87,322.02 C294.36,324.10 285.98,333.23 283.87,341.61 C282.87,345.57 282.57,345.84 278.46,346.45 C272.61,347.33 265.08,351.21 259.90,355.83 ZM 431.48 359.98 C431.13,354.27 430.64,349.23 430.35,348.47 C429.30,345.73 428.22,346.98 428.56,350.53 C428.76,352.59 428.51,353.81 427.95,353.47 C427.43,353.15 427.00,353.36 427.00,353.94 C427.00,355.20 424.79,354.91 423.80,353.52 C423.48,353.08 423.23,357.13 423.16,363.07 C423.13,362.37 423.09,361.68 423.05,361.00 L 422.50 352.50 L 415.00 351.88 C401.09,350.73 387.03,345.69 374.42,337.32 L 369.16 333.82 L 363.47 338.02 C353.42,345.45 337.86,351.24 324.21,352.64 C316.42,353.44 316.00,354.19 316.00,367.34 C316.00,399.18 324.65,423.08 342.48,440.02 C340.82,438.62 339.67,438.69 340.36,440.50 C341.34,443.04 340.01,444.83 337.37,444.53 L 334.88 444.26 L 337.69 447.23 C342.20,452.00 351.90,458.54 360.97,462.93 C364.19,464.48 367.18,465.84 368.85,466.53 C367.17,465.84 364.17,464.48 360.95,462.92 C331.63,448.75 314.47,425.12 309.45,392.00 C307.95,382.12 307.45,349.38 308.77,347.38 C309.17,346.77 312.65,345.95 316.50,345.56 C334.52,343.73 351.29,337.37 362.76,328.00 C366.62,324.86 369.50,323.18 370.26,323.64 C370.94,324.05 373.70,326.12 376.39,328.23 C387.03,336.60 405.11,343.05 422.15,344.57 C425.72,344.89 427.79,344.93 429.04,345.96 C430.83,347.42 430.97,350.87 431.48,359.98 ZM 751.11 494.94 C746.94,497.07 742.96,497.45 739.50,496.05 C738.40,495.61 735.13,495.48 732.23,495.76 L 726.96 496.28 L 727.23 474.89 L 727.50 453.50 L 735.00 452.88 L 735.00 460.94 C735.00,468.16 735.85,470.67 737.43,468.12 C738.46,466.45 746.53,465.90 750.57,467.22 C753.68,468.23 754.97,469.43 756.75,472.96 C760.99,481.37 758.47,491.19 751.11,494.94 ZM 647.00 478.00 L 647.00 496.00 L 639.00 496.00 L 639.00 456.00 L 647.00 456.00 L 647.00 472.00 L 667.00 472.00 L 667.00 456.00 L 675.00 456.00 L 675.00 496.00 L 667.00 496.00 L 667.00 478.00 ZM 704.50 495.48 C699.52,497.26 696.36,497.29 692.48,495.60 C688.03,493.67 687.00,490.36 687.00,477.95 L 687.00 467.00 L 695.00 467.00 L 695.00 477.43 C695.00,488.83 695.90,491.00 700.64,491.00 C703.36,491.00 707.07,489.34 708.23,487.60 C708.64,487.00 708.98,482.11 708.98,476.75 L 709.00 467.00 L 716.00 467.00 L 716.00 496.00 L 712.58 496.00 C710.70,496.00 709.02,495.56 708.83,495.03 C708.63,494.44 706.90,494.63 704.50,495.48 ZM 736.25 490.34 C736.94,490.62 739.27,490.88 741.44,490.92 C747.31,491.04 750.00,488.09 750.00,481.51 C750.00,473.26 744.88,469.82 737.55,473.16 C735.14,474.26 735.00,474.74 735.00,482.08 C735.00,487.35 735.40,490.00 736.25,490.34 ZM 422.72 380.40 C421.92,391.56 419.93,401.37 416.63,410.21 C419.64,401.62 421.77,391.03 422.72,380.40 ZM 411.41 421.50 C407.96,427.68 403.70,433.40 398.58,438.84 C397.75,439.72 396.71,440.70 395.54,441.73 C400.94,436.76 407.17,428.73 411.41,421.50 ZM 241.97 369.25 C238.49,381.05 239.80,394.16 246.30,405.25 C239.60,393.82 238.46,380.82 241.97,369.25 ZM 389.91 446.29 C384.41,450.44 378.08,454.54 374.11,456.30 C378.17,454.31 384.68,450.17 389.91,446.29 ZM 362.44 454.19 C366.11,456.14 369.16,457.31 370.77,457.43 C369.21,457.59 367.70,456.88 363.75,454.90 C362.33,454.19 360.77,453.32 359.16,452.38 C360.24,453.00 361.33,453.60 362.44,454.19 ZM 352.10 447.88 C348.33,445.30 345.06,442.75 343.60,441.12 C343.48,440.99 343.36,440.86 343.24,440.74 C345.98,443.28 348.94,445.66 352.10,447.88 ZM 252.66 364.96 C249.86,370.05 248.59,375.66 248.56,382.55 C248.59,375.41 249.76,370.03 252.66,364.96 ZM 411.32 363.19 C411.52,363.26 411.64,363.31 411.68,363.34 C411.79,363.46 411.35,364.03 410.53,364.87 C411.26,364.02 411.50,363.53 411.32,363.19 ZM 430.96 382.44 C431.65,375.40 431.89,368.28 431.59,362.02 C431.92,368.11 431.67,375.28 430.96,382.44 Z" fill="rgb(37,98,173)"/>
<path d="M 662.45 544.58 C660.59,545.36 657.02,546.00 654.53,546.00 L 650.00 546.00 L 650.00 521.00 L 655.55 521.00 C658.60,521.00 662.42,521.68 664.03,522.52 C672.44,526.87 671.44,540.83 662.45,544.58 ZM 503.04 544.48 C500.09,546.00 490.92,546.59 489.67,545.33 C489.30,544.97 489.00,539.34 489.00,532.83 L 489.00 521.00 L 495.25 521.02 C502.16,521.03 503.13,521.42 504.95,524.87 C506.02,526.91 505.90,527.64 504.07,530.12 C502.90,531.70 502.39,533.00 502.95,533.00 C503.50,533.00 504.69,534.12 505.59,535.49 C507.78,538.84 506.72,542.58 503.04,544.48 ZM 807.37 551.93 C802.47,555.78 792.00,553.83 792.00,549.07 C792.00,548.06 792.56,546.78 793.25,546.21 C794.52,545.15 794.61,539.67 793.44,534.81 C792.94,532.72 793.37,531.54 795.35,529.56 C797.53,527.38 798.80,527.00 803.95,527.00 C808.66,527.00 810.00,527.33 810.00,528.50 C810.00,529.33 809.40,530.00 808.67,530.00 C807.78,530.00 807.48,530.94 807.77,532.85 C808.28,536.38 804.24,540.00 799.78,540.00 C794.71,540.00 797.23,542.46 802.89,543.03 C810.31,543.79 812.41,547.96 807.37,551.93 ZM 472.78 552.44 C470.28,554.19 462.43,554.48 459.75,552.92 C457.60,551.67 457.46,547.69 459.51,545.99 C460.62,545.07 460.74,544.39 459.94,543.43 C459.17,542.50 459.17,541.55 459.93,540.12 C460.64,538.80 460.67,537.91 460.00,537.50 C458.84,536.78 458.68,532.02 459.77,530.40 C461.18,528.28 464.54,527.22 469.76,527.22 C475.02,527.23 477.52,528.48 474.56,529.61 C473.59,529.99 473.00,531.44 473.00,533.48 C473.00,537.50 471.30,539.02 466.00,539.73 C460.47,540.47 461.45,542.42 467.55,542.81 C470.25,542.99 473.02,543.60 473.72,544.19 C475.81,545.92 475.26,550.70 472.78,552.44 ZM 331.00 551.58 C331.00,553.06 330.42,554.00 329.50,554.00 C328.24,554.00 328.00,551.89 328.00,541.04 L 328.00 528.08 L 330.75 528.13 C332.26,528.15 334.71,527.86 336.19,527.48 C340.49,526.38 344.00,530.55 344.00,536.78 C344.00,542.86 341.21,546.00 335.79,546.00 C332.01,546.00 331.00,547.18 331.00,551.58 ZM 854.41 542.92 C852.35,545.37 851.04,546.00 848.00,546.00 C843.08,546.00 839.00,541.62 839.00,536.35 C839.00,532.33 843.48,527.00 846.86,527.00 C855.42,527.00 859.89,536.42 854.41,542.92 ZM 955.55 543.55 C953.85,545.24 951.98,546.00 949.50,546.00 C944.21,546.00 941.00,542.42 941.00,536.55 C941.00,529.42 946.62,525.36 952.89,527.95 C958.36,530.22 959.89,539.20 955.55,543.55 ZM 362.02 544.19 C356.30,548.81 348.00,544.63 348.00,537.13 C348.00,531.77 348.74,530.18 352.07,528.46 C356.14,526.36 358.42,526.64 362.03,529.68 C365.00,532.18 365.19,532.71 364.74,537.37 C364.39,540.96 363.63,542.88 362.02,544.19 ZM 905.99 544.21 C903.17,546.49 897.84,546.51 895.10,544.25 C890.29,540.29 890.79,531.19 895.98,528.51 C900.30,526.27 902.80,526.65 906.20,530.05 C908.95,532.80 909.20,533.55 908.72,537.76 C908.37,540.93 907.49,543.00 905.99,544.21 ZM 300.21 538.77 C299.98,544.30 299.57,546.00 298.46,546.00 C297.29,546.00 297.00,544.22 297.00,537.04 L 297.00 528.08 L 299.75 528.03 C305.44,527.92 309.05,527.94 310.75,528.09 C311.71,528.17 313.92,527.92 315.65,527.52 C318.13,526.94 319.23,527.23 320.90,528.90 C322.66,530.66 323.00,532.21 323.00,538.50 C323.00,545.33 322.82,546.00 321.00,546.00 C319.18,546.00 319.00,545.33 319.00,538.47 C319.00,532.42 318.68,530.81 317.36,530.31 C314.13,529.07 312.53,531.45 311.61,538.85 C311.00,543.78 310.30,546.00 309.36,546.00 C308.35,546.00 308.00,544.27 307.98,539.25 C307.97,530.81 307.11,529.22 303.31,530.56 C300.62,531.50 300.49,531.86 300.21,538.77 ZM 864.80 539.03 C864.56,544.23 864.16,545.54 862.75,545.81 C861.19,546.11 861.00,545.17 861.00,536.96 C861.00,528.24 861.10,527.79 863.01,528.29 C864.12,528.58 866.32,528.33 867.91,527.73 C870.18,526.87 871.30,526.96 873.15,528.14 C875.12,529.39 875.90,529.42 878.00,528.33 C884.55,524.92 887.00,527.58 887.00,538.07 C887.00,544.45 886.71,546.00 885.50,546.00 C884.31,546.00 884.00,544.57 884.00,539.12 C884.00,531.08 882.58,528.96 878.47,530.83 C876.18,531.87 876.00,532.48 876.00,539.05 C876.00,545.27 875.78,546.11 874.25,545.81 C872.82,545.54 872.41,544.09 872.00,537.99 C871.56,531.35 871.26,530.47 869.41,530.20 C866.27,529.75 865.14,531.91 864.80,539.03 ZM 653.00 524.00 L 653.00 543.00 L 656.58 543.00 C664.72,543.00 669.27,532.18 663.55,526.45 C661.75,524.66 660.01,524.00 657.05,524.00 ZM 377.91 539.25 C376.77,544.17 376.04,545.56 374.44,545.79 C372.69,546.05 372.08,544.89 369.89,537.04 C367.53,528.64 367.48,528.00 369.14,528.00 C370.40,528.00 371.24,529.24 372.02,532.25 L 372.06 532.43 C373.36,537.48 373.96,539.82 374.53,539.81 C375.03,539.81 375.51,538.01 376.42,534.67 C377.80,529.56 378.65,528.00 380.03,528.00 C381.86,528.00 383.10,530.72 384.54,537.92 C385.36,541.99 386.19,540.87 387.97,533.25 C388.91,529.25 389.64,528.00 391.05,528.00 C392.80,528.00 392.82,528.27 391.44,532.75 C390.63,535.36 389.47,539.44 388.85,541.80 C387.94,545.33 387.36,546.05 385.63,545.80 C383.95,545.56 383.25,544.27 382.09,539.25 C381.30,535.81 380.36,533.00 380.00,533.00 C379.64,533.00 378.70,535.81 377.91,539.25 ZM 970.76 540.00 C969.73,544.14 968.89,545.57 967.40,545.79 C965.70,546.04 965.06,544.81 962.87,537.00 C961.29,531.36 960.70,527.68 961.32,527.30 C962.84,526.36 964.54,529.38 965.90,535.44 C966.91,539.94 967.38,540.73 968.46,539.73 C969.19,539.05 969.60,538.19 969.37,537.80 C969.14,537.42 969.47,535.03 970.10,532.50 C971.06,528.70 971.63,527.95 973.34,528.20 C974.98,528.44 975.73,529.83 977.00,534.98 C978.77,542.19 979.21,542.06 981.05,533.75 C982.01,529.38 982.75,528.00 984.10,528.00 C985.78,528.00 985.77,528.38 983.89,535.25 C982.81,539.24 981.68,543.29 981.39,544.25 C981.10,545.21 980.03,546.00 979.00,546.00 C977.61,546.00 976.75,544.64 975.57,540.60 C974.71,537.62 974.00,534.61 974.00,533.90 C974.00,531.11 972.09,534.71 970.76,540.00 ZM 408.42 545.39 C407.55,545.73 405.28,546.00 403.37,546.00 C398.30,546.00 394.99,542.35 395.03,536.80 C395.08,530.84 398.59,527.00 403.98,527.00 C407.14,527.00 411.00,531.38 411.00,534.95 L 411.00 538.00 L 405.00 538.00 C400.74,538.00 399.00,538.38 399.00,539.30 C399.00,541.69 401.36,543.00 405.70,543.00 C409.99,543.00 411.41,544.25 408.42,545.39 ZM 590.42 545.39 C589.55,545.73 587.28,546.00 585.37,546.00 C577.35,546.00 573.93,535.92 579.92,529.92 C581.67,528.18 583.90,527.00 585.47,527.00 C588.76,527.00 593.00,531.13 593.00,534.33 C593.00,536.88 590.22,538.00 583.88,538.00 C582.18,538.00 581.00,538.53 581.00,539.30 C581.00,541.69 583.36,543.00 587.70,543.00 C591.99,543.00 593.41,544.25 590.42,545.39 ZM 743.76 544.25 C743.53,544.94 741.46,545.64 739.15,545.81 C733.55,546.22 729.00,542.05 729.00,536.50 C729.00,532.00 733.46,527.00 737.47,527.00 C741.08,527.00 745.00,531.15 745.00,534.95 L 745.00 538.00 L 739.00 538.00 C734.74,538.00 733.00,538.38 733.00,539.30 C733.00,541.71 735.37,543.00 739.78,543.00 C742.84,543.00 744.04,543.38 743.76,544.25 ZM 686.42 545.39 C680.31,547.74 674.21,543.96 673.31,537.30 C672.81,533.57 673.10,532.75 675.80,530.05 C679.53,526.31 683.20,526.11 686.55,529.45 C689.32,532.23 689.79,536.48 687.42,537.39 C686.55,537.73 683.85,538.00 681.42,538.00 C676.65,538.00 676.48,538.15 678.04,541.07 C678.82,542.53 680.14,543.00 683.54,543.00 C687.97,543.00 689.45,544.23 686.42,545.39 ZM 292.00 544.50 C292.00,545.69 290.57,546.00 285.17,546.00 C281.41,546.00 278.03,545.70 277.67,545.33 C277.30,544.97 277.00,539.34 277.00,532.83 L 277.00 521.00 L 284.50 521.00 C290.50,521.00 292.00,521.30 292.00,522.50 C292.00,523.65 290.72,524.00 286.50,524.00 L 281.00 524.00 L 281.00 527.45 C281.00,530.84 281.07,530.90 285.67,531.20 C292.34,531.63 292.69,534.00 286.08,534.00 L 281.00 534.00 L 281.00 543.00 L 286.50 543.00 C290.72,543.00 292.00,543.35 292.00,544.50 ZM 777.00 538.98 C777.00,545.33 776.81,546.00 775.00,546.00 C773.15,546.00 773.00,545.33 773.00,536.98 L 773.00 527.97 L 775.75 528.09 C777.26,528.16 779.92,527.90 781.65,527.51 C784.13,526.94 785.24,527.24 786.90,528.90 C788.66,530.66 789.00,532.21 789.00,538.50 C789.00,545.33 788.82,546.00 787.00,546.00 C785.18,546.00 785.00,545.33 785.00,538.47 C785.00,530.18 783.98,528.78 779.44,530.85 C777.19,531.87 777.00,532.51 777.00,538.98 ZM 561.00 538.98 C561.00,544.16 560.65,546.00 559.67,546.00 C557.32,546.00 557.00,544.84 557.00,536.39 C557.00,528.21 557.90,525.88 560.29,527.79 C560.97,528.33 562.38,528.40 563.50,527.95 C566.82,526.61 568.90,526.90 571.00,529.00 C572.64,530.64 573.00,532.33 573.00,538.50 C573.00,545.33 572.82,546.00 571.00,546.00 C569.18,546.00 569.00,545.33 569.00,538.47 C569.00,530.18 567.98,528.78 563.44,530.85 C561.19,531.87 561.00,532.51 561.00,538.98 ZM 832.00 535.00 C832.00,545.33 831.88,546.00 830.00,546.00 C828.12,546.00 828.00,545.33 828.00,535.06 L 828.00 524.12 L 824.33 523.81 C822.31,523.64 820.47,522.94 820.24,522.25 C819.93,521.31 822.20,521.00 829.42,521.00 C837.27,521.00 839.00,521.27 839.00,522.50 C839.00,523.55 837.94,524.00 835.50,524.00 L 832.00 524.00 ZM 442.00 539.83 C442.00,544.65 441.67,546.00 440.50,546.00 C439.28,546.00 439.00,544.32 439.00,536.88 C439.00,528.24 439.11,527.79 441.01,528.29 C442.12,528.58 444.32,528.33 445.91,527.73 C448.25,526.85 449.30,526.96 451.40,528.34 C453.84,529.94 454.00,530.54 454.00,538.02 C454.00,544.45 453.71,546.00 452.50,546.00 C451.31,546.00 451.00,544.58 451.00,539.20 C451.00,532.27 450.00,530.00 446.95,530.00 C443.69,530.00 442.00,533.35 442.00,539.83 ZM 521.07 544.96 C518.11,546.54 514.49,546.20 512.65,544.17 C510.41,541.69 510.24,528.00 512.46,528.00 C513.57,528.00 513.98,529.70 514.21,535.25 C514.47,541.85 514.70,542.53 516.70,542.81 C517.91,542.98 519.82,542.63 520.95,542.03 C522.69,541.09 523.00,539.96 523.00,534.46 C523.00,529.39 523.32,528.00 524.50,528.00 C525.72,528.00 526.00,529.67 526.00,537.00 C526.00,544.33 525.72,546.00 524.50,546.00 C523.67,546.00 523.00,545.53 523.00,544.96 C523.00,544.25 522.40,544.25 521.07,544.96 ZM 608.00 544.00 C605.01,546.99 594.70,546.47 596.80,543.44 C597.19,542.89 599.30,542.45 601.50,542.47 C604.32,542.49 605.50,542.08 605.50,541.07 C605.50,540.28 603.70,538.70 601.50,537.56 C598.56,536.04 597.42,534.78 597.19,532.81 C596.75,529.05 600.69,526.53 605.56,527.45 C610.23,528.32 609.48,530.35 604.46,530.43 C599.08,530.52 598.46,533.34 603.45,534.98 C609.95,537.13 611.60,540.40 608.00,544.00 ZM 624.43 544.08 C622.56,546.14 616.63,546.69 614.03,545.04 C611.82,543.64 613.49,542.67 618.25,542.58 C622.60,542.50 624.15,540.49 621.00,539.02 C614.19,535.85 613.48,535.29 613.19,532.78 C612.76,529.08 616.71,526.53 621.50,527.43 C626.63,528.40 626.18,530.97 621.00,530.27 C617.54,529.81 617.00,530.00 617.00,531.64 C617.00,532.91 618.43,534.21 621.25,535.53 C626.07,537.77 627.26,540.95 624.43,544.08 ZM 542.56 543.55 C541.31,545.46 540.13,545.98 537.23,545.92 C532.61,545.82 531.00,545.21 531.00,543.54 C531.00,542.60 532.22,542.38 535.50,542.75 C539.44,543.20 540.00,543.02 540.00,541.35 C540.00,540.09 538.57,538.79 535.75,537.47 C532.50,535.96 531.43,534.87 531.19,532.81 C530.76,529.05 534.68,526.53 539.56,527.45 C544.20,528.32 543.50,530.35 538.53,530.43 C533.03,530.53 532.95,532.65 538.35,535.04 C543.57,537.34 544.88,540.00 542.56,543.55 ZM 723.79 537.12 C721.74,542.34 719.88,545.60 718.84,545.79 C716.78,546.19 716.77,546.16 713.13,536.19 C710.31,528.46 710.25,528.00 712.07,528.00 C713.13,528.00 714.00,528.11 714.01,528.25 C714.01,528.39 715.07,531.62 716.36,535.44 L 718.71 542.38 L 720.96 535.62 C722.96,529.60 725.12,526.78 726.59,528.25 C726.86,528.53 725.61,532.52 723.79,537.12 ZM 844.20 541.80 C846.10,543.70 850.79,543.26 851.96,541.07 C855.48,534.49 849.43,526.71 844.57,531.57 C842.72,533.42 842.48,540.08 844.20,541.80 ZM 352.56 540.78 C354.25,543.20 357.89,543.71 359.80,541.80 C361.35,540.25 361.35,532.75 359.80,531.20 C356.70,528.10 351.00,531.54 351.00,536.50 C351.00,537.63 351.70,539.56 352.56,540.78 ZM 945.56 540.78 C947.25,543.20 950.89,543.71 952.80,541.80 C953.46,541.14 954.00,538.76 954.00,536.50 C954.00,531.89 952.65,530.00 949.36,530.00 C946.82,530.00 944.00,533.42 944.00,536.50 C944.00,537.63 944.70,539.56 945.56,540.78 ZM 331.67 542.33 C332.03,542.70 333.58,543.00 335.11,543.00 C340.12,543.00 342.62,536.76 339.44,532.22 C336.19,527.57 331.00,530.81 331.00,537.49 C331.00,539.79 331.30,541.97 331.67,542.33 ZM 896.56 540.78 C898.25,543.20 901.89,543.71 903.80,541.80 C905.27,540.33 905.37,534.56 903.96,531.93 C901.70,527.71 895.00,531.12 895.00,536.50 C895.00,537.63 895.70,539.56 896.56,540.78 ZM 418.81 539.52 C418.56,544.26 418.14,545.55 416.75,545.81 C415.19,546.11 415.00,545.18 415.00,537.13 C415.00,528.19 415.85,525.80 418.33,527.86 C419.11,528.50 420.11,528.54 421.03,527.96 C423.58,526.35 426.00,526.85 426.00,529.00 C426.00,530.44 425.33,531.00 423.62,531.00 C420.18,531.00 419.15,532.82 418.81,539.52 ZM 931.00 540.43 C931.00,544.71 930.65,546.00 929.50,546.00 C928.28,546.00 928.00,544.33 928.00,537.00 C928.00,529.67 928.28,528.00 929.50,528.00 C930.33,528.00 931.00,528.43 931.00,528.95 C931.00,529.48 932.33,529.14 933.96,528.21 C936.19,526.93 937.19,526.79 938.07,527.67 C939.68,529.28 938.35,531.00 935.48,531.00 C932.27,531.00 931.00,533.68 931.00,540.43 ZM 917.00 539.62 C917.00,544.62 916.68,546.00 915.50,546.00 C914.67,546.00 913.98,545.89 913.96,545.75 C913.94,545.61 913.89,541.45 913.85,536.50 C913.78,529.36 914.05,527.57 915.13,527.83 C915.88,528.00 916.65,528.57 916.83,529.07 C917.02,529.58 918.13,529.32 919.31,528.50 C920.48,527.67 922.05,527.00 922.80,527.00 C924.80,527.00 923.80,530.27 921.70,530.57 C918.00,531.12 917.00,533.04 917.00,539.62 ZM 753.00 539.70 C753.00,544.63 752.67,546.00 751.50,546.00 C750.28,546.00 750.00,544.33 750.00,537.00 C750.00,529.67 750.28,528.00 751.50,528.00 C752.33,528.00 753.00,528.43 753.00,528.95 C753.00,529.48 754.33,529.14 755.96,528.21 C758.19,526.93 759.19,526.79 760.07,527.67 C761.65,529.25 760.37,531.00 757.64,531.00 C754.04,531.00 753.00,532.95 753.00,539.70 ZM 493.00 538.50 C493.00,542.85 493.10,543.00 496.07,543.00 C500.15,543.00 503.00,541.36 503.00,539.02 C503.00,536.56 499.32,534.00 495.78,534.00 C493.15,534.00 493.00,534.25 493.00,538.50 ZM 697.00 532.50 C697.00,543.83 696.76,546.00 695.50,546.00 C694.24,546.00 694.00,543.83 694.00,532.50 C694.00,521.17 694.24,519.00 695.50,519.00 C696.76,519.00 697.00,521.17 697.00,532.50 ZM 768.00 537.00 C768.00,545.33 767.85,546.00 766.00,546.00 C764.15,546.00 764.00,545.33 764.00,537.00 C764.00,528.67 764.15,528.00 766.00,528.00 C767.85,528.00 768.00,528.67 768.00,537.00 ZM 706.50 537.01 C706.50,544.28 706.25,545.52 704.75,545.81 C703.19,546.11 703.00,545.17 703.00,537.00 C703.00,528.82 703.19,527.89 704.75,528.20 C706.25,528.49 706.50,529.74 706.50,537.01 ZM 493.00 527.56 C493.00,531.05 493.08,531.11 496.65,530.81 C503.69,530.21 504.04,524.00 497.03,524.00 C493.08,524.00 493.00,524.07 493.00,527.56 ZM 433.00 537.00 C433.00,544.33 432.72,546.00 431.50,546.00 C430.28,546.00 430.00,544.33 430.00,537.00 C430.00,529.67 430.28,528.00 431.50,528.00 C432.72,528.00 433.00,529.67 433.00,537.00 ZM 461.38 549.55 C462.00,551.17 468.59,551.54 470.90,550.09 C473.71,548.30 471.28,546.00 466.59,546.00 C461.96,546.00 460.42,547.05 461.38,549.55 ZM 462.97 534.94 C464.14,537.12 468.40,537.78 469.54,535.94 C469.89,535.36 469.91,533.79 469.58,532.44 C469.14,530.72 468.27,530.00 466.60,530.00 C463.26,530.00 461.56,532.31 462.97,534.94 ZM 796.22 549.77 C796.90,550.59 798.90,550.98 801.41,550.80 C804.73,550.56 805.50,550.12 805.50,548.50 C805.50,546.85 804.73,546.44 801.10,546.19 C796.39,545.85 794.27,547.41 796.22,549.77 ZM 797.41 535.63 C797.78,536.59 798.99,537.02 800.74,536.82 C803.07,536.55 803.50,536.03 803.50,533.50 C803.50,530.84 803.17,530.50 800.51,530.50 C797.42,530.50 796.21,532.50 797.41,535.63 ZM 677.00 533.70 C677.00,534.57 678.47,535.00 681.50,535.00 C686.36,535.00 686.53,534.85 684.96,531.93 C683.20,528.63 677.00,530.00 677.00,533.70 ZM 733.00 533.70 C733.00,534.57 734.47,535.00 737.50,535.00 C742.36,535.00 742.53,534.85 740.96,531.93 C739.20,528.63 733.00,530.00 733.00,533.70 ZM 399.00 533.70 C399.00,534.55 400.38,535.00 403.00,535.00 C407.02,535.00 407.51,534.50 406.39,531.58 C405.21,528.51 399.00,530.29 399.00,533.70 ZM 581.00 533.62 C581.00,534.57 582.28,535.00 585.07,535.00 C588.72,535.00 589.11,534.77 588.82,532.75 C588.26,528.78 581.00,529.59 581.00,533.62 ZM 788.00 539.56 C788.00,536.57 787.55,533.84 787.00,533.50 C786.38,533.11 786.00,535.16 786.00,538.94 C786.00,542.31 786.44,545.00 787.00,545.00 C787.55,545.00 788.00,542.55 788.00,539.56 ZM 634.33 544.57 C634.03,545.36 633.15,546.00 632.36,546.00 C630.48,546.00 629.44,543.16 630.82,541.78 C632.27,540.33 635.10,542.59 634.33,544.57 ZM 991.00 544.00 C991.00,545.33 990.33,546.00 989.00,546.00 C987.67,546.00 987.00,545.33 987.00,544.00 C987.00,542.67 987.67,542.00 989.00,542.00 C990.33,542.00 991.00,542.67 991.00,544.00 ZM 433.75 522.25 C433.19,523.92 430.36,524.40 429.48,522.97 C429.09,522.34 429.24,521.36 429.82,520.78 C431.16,519.44 434.30,520.61 433.75,522.25 ZM 767.81 521.74 C767.31,524.35 764.00,524.64 764.00,522.07 C764.00,520.64 764.64,520.00 766.07,520.00 C767.50,520.00 768.04,520.54 767.81,521.74 ZM 551.82 521.67 C551.24,524.68 548.00,524.40 548.00,521.33 C548.00,520.60 548.93,520.00 550.07,520.00 C551.47,520.00 552.04,520.54 551.82,521.67 ZM 706.50 522.00 C706.50,522.81 705.71,523.62 704.75,523.81 C703.52,524.05 703.00,523.51 703.00,522.00 C703.00,520.49 703.52,519.95 704.75,520.19 C705.71,520.38 706.50,521.19 706.50,522.00 ZM 439.02 424.04 C454.34,422.48 455.54,421.74 444.28,420.22 C448.37,420.68 451.78,421.00 452.92,421.00 C454.61,421.00 456.00,421.36 456.00,421.81 C456.00,422.25 449.36,423.17 441.25,423.85 C440.48,423.92 439.73,423.98 439.02,424.04 ZM 406.73 442.44 C409.26,439.63 411.56,436.72 413.57,433.74 C416.26,429.76 418.50,426.39 418.56,426.25 C418.59,426.19 420.17,425.98 422.74,425.69 C417.82,426.60 417.39,427.98 415.00,431.79 C412.76,435.35 409.94,438.95 406.73,442.44 ZM 424.43 417.56 C424.11,417.49 423.91,417.44 423.85,417.41 C423.65,417.29 423.89,415.89 424.42,413.81 C423.85,416.18 423.83,417.35 424.34,417.53 C424.36,417.53 424.40,417.54 424.43,417.56 ZM 430.96 382.44 C430.96,382.40 430.96,382.37 430.97,382.34 C431.55,376.46 431.82,370.57 431.71,365.29 C431.83,370.82 431.52,376.99 430.89,383.13 C430.91,382.90 430.94,382.67 430.96,382.44 ZM 379.14 463.30 C378.60,463.57 378.05,463.82 377.51,464.07 C378.06,463.82 378.60,463.56 379.14,463.30 Z" fill="rgb(137,138,140)"/>
<path d="M 0.00 418.00 L 0.00 0.00 L 627.00 0.00 L 1254.00 0.00 L 1254.00 418.00 L 1254.00 836.00 L 627.00 836.00 L 0.00 836.00 L 0.00 418.00 ZM 331.00 551.58 C331.00,547.18 332.01,546.00 335.79,546.00 C341.21,546.00 344.00,542.86 344.00,536.78 C344.00,530.55 340.49,526.38 336.19,527.48 C334.71,527.86 332.26,528.15 330.75,528.13 L 328.00 528.08 L 328.00 541.04 C328.00,551.89 328.24,554.00 329.50,554.00 C330.42,554.00 331.00,553.06 331.00,551.58 ZM 472.78 552.44 C475.26,550.70 475.81,545.92 473.72,544.19 C473.02,543.60 470.25,542.99 467.55,542.81 C461.45,542.42 460.47,540.47 466.00,539.73 C471.30,539.02 473.00,537.50 473.00,533.48 C473.00,531.44 473.59,529.99 474.56,529.61 C477.52,528.48 475.02,527.23 469.76,527.22 C464.54,527.22 461.18,528.28 459.77,530.40 C458.68,532.02 458.84,536.78 460.00,537.50 C460.67,537.91 460.64,538.80 459.93,540.12 C459.17,541.55 459.17,542.50 459.94,543.43 C460.74,544.39 460.62,545.07 459.51,545.99 C457.46,547.69 457.60,551.67 459.75,552.92 C462.43,554.48 470.28,554.19 472.78,552.44 ZM 807.37 551.93 C812.41,547.96 810.31,543.79 802.89,543.03 C797.23,542.46 794.71,540.00 799.78,540.00 C804.24,540.00 808.28,536.38 807.77,532.85 C807.48,530.94 807.78,530.00 808.67,530.00 C809.40,530.00 810.00,529.33 810.00,528.50 C810.00,527.33 808.66,527.00 803.95,527.00 C798.80,527.00 797.53,527.38 795.35,529.56 C793.37,531.54 792.94,532.72 793.44,534.81 C794.61,539.67 794.52,545.15 793.25,546.21 C792.56,546.78 792.00,548.06 792.00,549.07 C792.00,553.83 802.47,555.78 807.37,551.93 ZM 292.00 544.50 C292.00,543.35 290.72,543.00 286.50,543.00 L 281.00 543.00 L 281.00 538.50 L 281.00 534.00 L 286.08 534.00 C292.69,534.00 292.34,531.63 285.67,531.20 C281.07,530.90 281.00,530.84 281.00,527.45 L 281.00 524.00 L 286.50 524.00 C290.72,524.00 292.00,523.65 292.00,522.50 C292.00,521.30 290.50,521.00 284.50,521.00 L 277.00 521.00 L 277.00 532.83 C277.00,539.34 277.30,544.97 277.67,545.33 C278.03,545.70 281.41,546.00 285.17,546.00 C290.57,546.00 292.00,545.69 292.00,544.50 ZM 300.21 538.77 C300.49,531.86 300.62,531.50 303.31,530.56 C307.11,529.22 307.97,530.81 307.98,539.25 C308.00,544.27 308.35,546.00 309.36,546.00 C310.30,546.00 311.00,543.78 311.61,538.85 C312.53,531.45 314.13,529.07 317.36,530.31 C318.68,530.81 319.00,532.42 319.00,538.47 C319.00,545.33 319.18,546.00 321.00,546.00 C322.82,546.00 323.00,545.33 323.00,538.50 C323.00,532.21 322.66,530.66 320.90,528.90 C319.23,527.23 318.13,526.94 315.65,527.52 C313.92,527.92 311.71,528.17 310.75,528.09 C309.05,527.94 305.44,527.92 299.75,528.03 L 297.00 528.08 L 297.00 537.04 C297.00,544.22 297.29,546.00 298.46,546.00 C299.57,546.00 299.98,544.30 300.21,538.77 ZM 362.02 544.19 C363.63,542.88 364.39,540.96 364.74,537.37 C365.19,532.71 365.00,532.18 362.03,529.68 C358.42,526.64 356.14,526.36 352.07,528.46 C348.74,530.18 348.00,531.77 348.00,537.13 C348.00,544.63 356.30,548.81 362.02,544.19 ZM 377.91 539.25 C378.70,535.81 379.64,533.00 380.00,533.00 C380.36,533.00 381.30,535.81 382.09,539.25 C383.25,544.27 383.95,545.56 385.63,545.80 C387.36,546.05 387.94,545.33 388.85,541.80 C389.47,539.44 390.63,535.36 391.44,532.75 C392.82,528.27 392.80,528.00 391.05,528.00 C389.64,528.00 388.91,529.25 387.97,533.25 C386.19,540.87 385.36,541.99 384.54,537.92 C383.10,530.72 381.86,528.00 380.03,528.00 C378.65,528.00 377.80,529.56 376.42,534.67 C374.47,541.88 374.49,541.89 372.02,532.25 C371.24,529.24 370.40,528.00 369.14,528.00 C367.48,528.00 367.53,528.64 369.89,537.04 C372.08,544.89 372.69,546.05 374.44,545.79 C376.04,545.56 376.77,544.17 377.91,539.25 ZM 408.42 545.39 C411.41,544.25 409.99,543.00 405.70,543.00 C401.36,543.00 399.00,541.69 399.00,539.30 C399.00,538.38 400.74,538.00 405.00,538.00 L 411.00 538.00 L 411.00 534.95 C411.00,531.38 407.14,527.00 403.98,527.00 C398.59,527.00 395.08,530.84 395.03,536.80 C394.99,542.35 398.30,546.00 403.37,546.00 C405.28,546.00 407.55,545.73 408.42,545.39 ZM 418.81 539.52 C419.15,532.82 420.18,531.00 423.62,531.00 C425.33,531.00 426.00,530.44 426.00,529.00 C426.00,526.85 423.58,526.35 421.03,527.96 C420.11,528.54 419.11,528.50 418.33,527.86 C415.85,525.80 415.00,528.19 415.00,537.13 C415.00,545.18 415.19,546.11 416.75,545.81 C418.14,545.55 418.56,544.26 418.81,539.52 ZM 433.00 537.00 C433.00,529.67 432.72,528.00 431.50,528.00 C430.28,528.00 430.00,529.67 430.00,537.00 C430.00,544.33 430.28,546.00 431.50,546.00 C432.72,546.00 433.00,544.33 433.00,537.00 ZM 442.00 539.83 C442.00,533.35 443.69,530.00 446.95,530.00 C450.00,530.00 451.00,532.27 451.00,539.20 C451.00,544.58 451.31,546.00 452.50,546.00 C453.71,546.00 454.00,544.45 454.00,538.02 C454.00,530.54 453.84,529.94 451.40,528.34 C449.30,526.96 448.25,526.85 445.91,527.73 C444.32,528.33 442.12,528.58 441.01,528.29 C439.11,527.79 439.00,528.24 439.00,536.88 C439.00,544.32 439.28,546.00 440.50,546.00 C441.67,546.00 442.00,544.65 442.00,539.83 ZM 503.04 544.48 C506.72,542.58 507.78,538.84 505.59,535.49 C504.69,534.12 503.50,533.00 502.95,533.00 C502.39,533.00 502.90,531.70 504.07,530.12 C505.90,527.64 506.02,526.91 504.95,524.87 C503.13,521.42 502.16,521.03 495.25,521.02 L 489.00 521.00 L 489.00 532.83 C489.00,539.34 489.30,544.97 489.67,545.33 C490.92,546.59 500.09,546.00 503.04,544.48 ZM 521.07 544.96 C522.40,544.25 523.00,544.25 523.00,544.96 C523.00,545.53 523.67,546.00 524.50,546.00 C525.72,546.00 526.00,544.33 526.00,537.00 C526.00,529.67 525.72,528.00 524.50,528.00 C523.32,528.00 523.00,529.39 523.00,534.46 C523.00,539.96 522.69,541.09 520.95,542.03 C519.82,542.63 517.91,542.98 516.70,542.81 C514.70,542.53 514.47,541.85 514.21,535.25 C513.98,529.70 513.57,528.00 512.46,528.00 C510.24,528.00 510.41,541.69 512.65,544.17 C514.49,546.20 518.11,546.54 521.07,544.96 ZM 542.56 543.55 C544.88,540.00 543.57,537.34 538.35,535.04 C532.95,532.65 533.03,530.53 538.53,530.43 C543.50,530.35 544.20,528.32 539.56,527.45 C534.68,526.53 530.76,529.05 531.19,532.81 C531.43,534.87 532.50,535.96 535.75,537.47 C538.57,538.79 540.00,540.09 540.00,541.35 C540.00,543.02 539.44,543.20 535.50,542.75 C532.22,542.38 531.00,542.60 531.00,543.54 C531.00,545.21 532.61,545.82 537.23,545.92 C540.13,545.98 541.31,545.46 542.56,543.55 ZM 551.79 536.67 C552.03,529.41 551.83,528.00 550.54,528.00 C549.27,528.00 549.00,529.57 549.00,537.08 C549.00,543.90 549.31,546.06 550.25,545.75 C551.09,545.47 551.59,542.50 551.79,536.67 ZM 561.00 538.98 C561.00,532.51 561.19,531.87 563.44,530.85 C567.98,528.78 569.00,530.18 569.00,538.47 C569.00,545.33 569.18,546.00 571.00,546.00 C572.82,546.00 573.00,545.33 573.00,538.50 C573.00,532.33 572.64,530.64 571.00,529.00 C568.90,526.90 566.82,526.61 563.50,527.95 C562.38,528.40 560.97,528.33 560.29,527.79 C557.90,525.88 557.00,528.21 557.00,536.39 C557.00,544.84 557.32,546.00 559.67,546.00 C560.65,546.00 561.00,544.16 561.00,538.98 ZM 590.42 545.39 C593.41,544.25 591.99,543.00 587.70,543.00 C583.36,543.00 581.00,541.69 581.00,539.30 C581.00,538.53 582.18,538.00 583.88,538.00 C590.22,538.00 593.00,536.88 593.00,534.33 C593.00,531.13 588.76,527.00 585.47,527.00 C583.90,527.00 581.67,528.18 579.92,529.92 C573.93,535.92 577.35,546.00 585.37,546.00 C587.28,546.00 589.55,545.73 590.42,545.39 ZM 608.00 544.00 C611.60,540.40 609.95,537.13 603.45,534.98 C598.46,533.34 599.08,530.52 604.46,530.43 C609.48,530.35 610.23,528.32 605.56,527.45 C600.69,526.53 596.75,529.05 597.19,532.81 C597.42,534.78 598.56,536.04 601.50,537.56 C603.70,538.70 605.50,540.28 605.50,541.07 C605.50,542.08 604.32,542.49 601.50,542.47 C599.30,542.45 597.19,542.89 596.80,543.44 C594.70,546.47 605.01,546.99 608.00,544.00 ZM 624.43 544.08 C627.26,540.95 626.07,537.77 621.25,535.53 C618.43,534.21 617.00,532.91 617.00,531.64 C617.00,530.00 617.54,529.81 621.00,530.27 C626.18,530.97 626.63,528.40 621.50,527.43 C616.71,526.53 612.76,529.08 613.19,532.78 C613.48,535.29 614.19,535.85 621.00,539.02 C624.15,540.49 622.60,542.50 618.25,542.58 C613.49,542.67 611.82,543.64 614.03,545.04 C616.63,546.69 622.56,546.14 624.43,544.08 ZM 634.33 544.57 C635.10,542.59 632.27,540.33 630.82,541.78 C629.44,543.16 630.48,546.00 632.36,546.00 C633.15,546.00 634.03,545.36 634.33,544.57 ZM 662.45 544.58 C671.44,540.83 672.44,526.87 664.03,522.52 C662.42,521.68 658.60,521.00 655.55,521.00 L 650.00 521.00 L 650.00 533.50 L 650.00 546.00 L 654.53 546.00 C657.02,546.00 660.59,545.36 662.45,544.58 ZM 686.42 545.39 C689.45,544.23 687.97,543.00 683.54,543.00 C680.14,543.00 678.82,542.53 678.04,541.07 C676.48,538.15 676.65,538.00 681.42,538.00 C683.85,538.00 686.55,537.73 687.42,537.39 C689.79,536.48 689.32,532.23 686.55,529.45 C683.20,526.11 679.53,526.31 675.80,530.05 C673.10,532.75 672.81,533.57 673.31,537.30 C674.21,543.96 680.31,547.74 686.42,545.39 ZM 697.00 532.50 C697.00,521.17 696.76,519.00 695.50,519.00 C694.24,519.00 694.00,521.17 694.00,532.50 C694.00,543.83 694.24,546.00 695.50,546.00 C696.76,546.00 697.00,543.83 697.00,532.50 ZM 706.50 537.01 C706.50,529.74 706.25,528.49 704.75,528.20 C703.19,527.89 703.00,528.82 703.00,537.00 C703.00,545.17 703.19,546.11 704.75,545.81 C706.25,545.52 706.50,544.28 706.50,537.01 ZM 723.79 537.12 C725.61,532.52 726.86,528.53 726.59,528.25 C725.12,526.78 722.96,529.60 720.96,535.62 L 718.71 542.38 L 716.36 535.44 C715.07,531.62 714.01,528.39 714.01,528.25 C714.00,528.11 713.13,528.00 712.07,528.00 C710.25,528.00 710.31,528.46 713.13,536.19 C716.77,546.16 716.78,546.19 718.84,545.79 C719.88,545.60 721.74,542.34 723.79,537.12 ZM 743.76 544.25 C744.04,543.38 742.84,543.00 739.78,543.00 C735.37,543.00 733.00,541.71 733.00,539.30 C733.00,538.38 734.74,538.00 739.00,538.00 L 745.00 538.00 L 745.00 534.95 C745.00,531.15 741.08,527.00 737.47,527.00 C733.46,527.00 729.00,532.00 729.00,536.50 C729.00,542.05 733.55,546.22 739.15,545.81 C741.46,545.64 743.53,544.94 743.76,544.25 ZM 753.00 539.70 C753.00,532.95 754.04,531.00 757.64,531.00 C760.37,531.00 761.65,529.25 760.07,527.67 C759.19,526.79 758.19,526.93 755.96,528.21 C754.33,529.14 753.00,529.48 753.00,528.95 C753.00,528.43 752.33,528.00 751.50,528.00 C750.28,528.00 750.00,529.67 750.00,537.00 C750.00,544.33 750.28,546.00 751.50,546.00 C752.67,546.00 753.00,544.63 753.00,539.70 ZM 768.00 537.00 C768.00,528.67 767.85,528.00 766.00,528.00 C764.15,528.00 764.00,528.67 764.00,537.00 C764.00,545.33 764.15,546.00 766.00,546.00 C767.85,546.00 768.00,545.33 768.00,537.00 ZM 777.00 538.98 C777.00,532.51 777.19,531.87 779.44,530.85 C783.98,528.78 785.00,530.18 785.00,538.47 C785.00,545.33 785.18,546.00 787.00,546.00 C788.82,546.00 789.00,545.33 789.00,538.50 C789.00,532.21 788.66,530.66 786.90,528.90 C785.24,527.24 784.13,526.94 781.65,527.51 C779.92,527.90 777.26,528.16 775.75,528.09 L 773.00 527.97 L 773.00 536.98 C773.00,545.33 773.15,546.00 775.00,546.00 C776.81,546.00 777.00,545.33 777.00,538.98 ZM 832.00 535.00 L 832.00 524.00 L 835.50 524.00 C837.94,524.00 839.00,523.55 839.00,522.50 C839.00,521.27 837.27,521.00 829.42,521.00 C822.20,521.00 819.93,521.31 820.24,522.25 C820.47,522.94 822.31,523.64 824.33,523.81 L 828.00 524.12 L 828.00 535.06 C828.00,545.33 828.12,546.00 830.00,546.00 C831.88,546.00 832.00,545.33 832.00,535.00 ZM 854.41 542.92 C859.89,536.42 855.42,527.00 846.86,527.00 C843.48,527.00 839.00,532.33 839.00,536.35 C839.00,541.62 843.08,546.00 848.00,546.00 C851.04,546.00 852.35,545.37 854.41,542.92 ZM 864.80 539.03 C865.14,531.91 866.27,529.75 869.41,530.20 C871.26,530.47 871.56,531.35 872.00,537.99 C872.41,544.09 872.82,545.54 874.25,545.81 C875.78,546.11 876.00,545.27 876.00,539.05 C876.00,532.48 876.18,531.87 878.47,530.83 C882.58,528.96 884.00,531.08 884.00,539.12 C884.00,544.57 884.31,546.00 885.50,546.00 C886.71,546.00 887.00,544.45 887.00,538.07 C887.00,527.58 884.55,524.92 878.00,528.33 C875.90,529.42 875.12,529.39 873.15,528.14 C871.30,526.96 870.18,526.87 867.91,527.73 C866.32,528.33 864.12,528.58 863.01,528.29 C861.10,527.79 861.00,528.24 861.00,536.96 C861.00,545.17 861.19,546.11 862.75,545.81 C864.16,545.54 864.56,544.23 864.80,539.03 ZM 905.99 544.21 C907.49,543.00 908.37,540.93 908.72,537.76 C909.20,533.55 908.95,532.80 906.20,530.05 C902.80,526.65 900.30,526.27 895.98,528.51 C890.79,531.19 890.29,540.29 895.10,544.25 C897.84,546.51 903.17,546.49 905.99,544.21 ZM 917.00 539.62 C917.00,533.04 918.00,531.12 921.70,530.57 C923.80,530.27 924.80,527.00 922.80,527.00 C922.05,527.00 920.48,527.67 919.31,528.50 C918.13,529.32 917.02,529.58 916.83,529.07 C916.65,528.57 915.88,528.00 915.13,527.83 C914.05,527.57 913.78,529.36 913.85,536.50 C913.89,541.45 913.94,545.61 913.96,545.75 C913.98,545.89 914.67,546.00 915.50,546.00 C916.68,546.00 917.00,544.62 917.00,539.62 ZM 931.00 540.43 C931.00,533.68 932.27,531.00 935.48,531.00 C938.35,531.00 939.68,529.28 938.07,527.67 C937.19,526.79 936.19,526.93 933.96,528.21 C932.33,529.14 931.00,529.48 931.00,528.95 C931.00,528.43 930.33,528.00 929.50,528.00 C928.28,528.00 928.00,529.67 928.00,537.00 C928.00,544.33 928.28,546.00 929.50,546.00 C930.65,546.00 931.00,544.71 931.00,540.43 ZM 955.55 543.55 C959.89,539.20 958.36,530.22 952.89,527.95 C946.62,525.36 941.00,529.42 941.00,536.55 C941.00,542.42 944.21,546.00 949.50,546.00 C951.98,546.00 953.85,545.24 955.55,543.55 ZM 970.76 540.00 C972.09,534.71 974.00,531.11 974.00,533.90 C974.00,534.61 974.71,537.62 975.57,540.60 C976.75,544.64 977.61,546.00 979.00,546.00 C980.03,546.00 981.10,545.21 981.39,544.25 C981.68,543.29 982.81,539.24 983.89,535.25 C985.77,528.38 985.78,528.00 984.10,528.00 C982.75,528.00 982.01,529.38 981.05,533.75 C979.21,542.06 978.77,542.19 977.00,534.98 C975.73,529.83 974.98,528.44 973.34,528.20 C971.63,527.95 971.06,528.70 970.10,532.50 C969.47,535.03 969.14,537.42 969.37,537.80 C969.60,538.19 969.19,539.05 968.46,539.73 C967.38,540.73 966.91,539.94 965.90,535.44 C964.54,529.38 962.84,526.36 961.32,527.30 C960.70,527.68 961.29,531.36 962.87,537.00 C965.06,544.81 965.70,546.04 967.40,545.79 C968.89,545.57 969.73,544.14 970.76,540.00 ZM 991.00 544.00 C991.00,542.67 990.33,542.00 989.00,542.00 C987.67,542.00 987.00,542.67 987.00,544.00 C987.00,545.33 987.67,546.00 989.00,546.00 C990.33,546.00 991.00,545.33 991.00,544.00 ZM 433.75 522.25 C434.30,520.61 431.16,519.44 429.82,520.78 C429.24,521.36 429.09,522.34 429.48,522.97 C430.36,524.40 433.19,523.92 433.75,522.25 ZM 551.82 521.67 C552.04,520.54 551.47,520.00 550.07,520.00 C548.93,520.00 548.00,520.60 548.00,521.33 C548.00,524.40 551.24,524.68 551.82,521.67 ZM 706.50 522.00 C706.50,521.19 705.71,520.38 704.75,520.19 C703.52,519.95 703.00,520.49 703.00,522.00 C703.00,523.51 703.52,524.05 704.75,523.81 C705.71,523.62 706.50,522.81 706.50,522.00 ZM 767.81 521.74 C768.04,520.54 767.50,520.00 766.07,520.00 C764.64,520.00 764.00,520.64 764.00,522.07 C764.00,524.64 767.31,524.35 767.81,521.74 ZM 704.50 495.48 C706.90,494.63 708.63,494.44 708.83,495.03 C709.02,495.56 710.70,496.00 712.58,496.00 L 716.00 496.00 L 716.00 481.50 L 716.00 467.00 L 712.50 467.00 L 709.00 467.00 L 708.98 476.75 C708.98,482.11 708.64,487.00 708.23,487.60 C707.07,489.34 703.36,491.00 700.64,491.00 C695.90,491.00 695.00,488.83 695.00,477.43 L 695.00 467.00 L 691.00 467.00 L 687.00 467.00 L 687.00 477.95 C687.00,490.36 688.03,493.67 692.48,495.60 C696.36,497.29 699.52,497.26 704.50,495.48 ZM 751.11 494.94 C758.47,491.19 760.99,481.37 756.75,472.96 C754.97,469.43 753.68,468.23 750.57,467.22 C746.53,465.90 738.46,466.45 737.43,468.12 C735.85,470.67 735.00,468.16 735.00,460.94 L 735.00 452.88 L 731.25 453.19 L 727.50 453.50 L 727.23 474.89 L 726.96 496.28 L 732.23 495.76 C735.13,495.48 738.40,495.61 739.50,496.05 C742.96,497.45 746.94,497.07 751.11,494.94 ZM 647.00 487.00 L 647.00 478.00 L 657.00 478.00 L 667.00 478.00 L 667.00 487.00 L 667.00 496.00 L 671.00 496.00 L 675.00 496.00 L 675.00 476.00 L 675.00 456.00 L 671.00 456.00 L 667.00 456.00 L 667.00 464.00 L 667.00 472.00 L 657.00 472.00 L 647.00 472.00 L 647.00 464.00 L 647.00 456.00 L 643.00 456.00 L 639.00 456.00 L 639.00 476.00 L 639.00 496.00 L 643.00 496.00 L 647.00 496.00 L 647.00 487.00 ZM 377.51 464.07 C391.76,457.61 407.05,444.44 415.00,431.79 C419.03,425.38 417.48,425.84 441.25,423.85 C449.36,423.17 456.00,422.25 456.00,421.81 C456.00,421.36 454.61,421.00 452.92,421.00 C449.54,421.00 426.21,418.16 424.34,417.53 C423.53,417.25 424.06,414.35 426.10,408.01 C430.02,395.83 432.38,375.89 431.58,361.80 C430.59,344.40 431.13,345.38 422.15,344.57 C405.11,343.05 387.03,336.60 376.39,328.23 C373.70,326.12 370.94,324.05 370.26,323.64 C369.50,323.18 366.62,324.86 362.76,328.00 C351.29,337.37 334.52,343.73 316.50,345.56 C312.65,345.95 309.17,346.77 308.77,347.38 C307.45,349.38 307.95,382.12 309.45,392.00 C314.47,425.12 331.63,448.75 360.95,462.92 C365.59,465.16 369.77,467.00 370.22,467.00 C370.67,467.00 373.95,465.68 377.51,464.07 ZM 557.93 430.87 C560.13,430.11 560.96,429.05 561.47,426.33 C561.83,424.39 561.99,422.65 561.81,422.48 C561.64,422.31 559.04,422.80 556.03,423.58 C548.73,425.48 544.34,425.34 539.33,423.06 C534.94,421.07 532.66,418.32 531.60,413.75 L 530.96 411.00 L 547.48 411.00 L 564.00 411.00 L 564.00 406.65 C564.00,393.17 556.54,386.00 542.50,386.00 C527.51,386.00 519.00,394.45 519.00,409.31 C519.00,420.48 525.15,428.27 536.56,431.52 C541.81,433.02 552.73,432.69 557.93,430.87 ZM 608.51 431.00 C610.51,430.23 611.00,429.36 611.00,426.52 C611.00,422.61 610.77,422.53 604.42,424.12 C598.24,425.68 591.95,423.84 587.99,419.33 C585.35,416.33 585.00,415.20 585.01,409.72 C585.03,402.32 586.34,399.37 591.01,396.18 C594.05,394.11 595.34,393.87 601.00,394.29 C604.58,394.56 608.29,395.10 609.25,395.50 C610.75,396.11 611.00,395.62 611.00,392.08 C611.00,386.86 609.11,386.00 597.55,386.00 C590.38,386.00 588.49,386.39 583.88,388.79 C576.61,392.59 572.74,398.79 572.18,407.51 C571.37,420.30 576.41,427.33 589.50,431.66 C593.73,433.06 604.03,432.70 608.51,431.00 ZM 747.19 431.02 C750.34,429.82 752.64,429.42 753.00,430.01 C753.33,430.54 755.83,431.09 758.55,431.24 L 763.50 431.50 L 763.77 409.20 L 764.04 386.90 L 758.27 387.20 L 752.50 387.50 L 752.43 392.00 C752.39,394.48 752.28,402.00 752.18,408.73 C752.00,420.79 751.96,420.98 749.33,422.70 C745.10,425.47 739.26,425.01 736.39,421.67 C734.09,418.99 734.00,418.32 734.00,402.94 L 734.00 387.00 L 731.62 387.00 C730.32,387.00 727.84,387.28 726.12,387.62 L 723.00 388.25 L 723.00 404.66 C723.00,425.67 724.01,428.45 732.74,431.57 C737.97,433.44 741.15,433.31 747.19,431.02 ZM 851.95 431.05 C856.73,429.40 857.54,429.35 858.49,430.65 C859.24,431.68 860.95,432.04 864.04,431.82 L 868.50 431.50 L 868.77 409.75 L 869.04 388.00 L 863.02 388.00 L 857.00 388.00 L 857.00 404.48 L 857.00 420.95 L 854.33 422.70 C850.49,425.22 844.54,424.98 841.76,422.20 C839.63,420.08 839.48,419.02 839.18,403.47 C838.83,385.21 839.38,386.38 831.75,387.64 L 828.00 388.26 L 828.02 404.38 C828.05,425.43 829.54,429.20 838.94,432.05 C843.05,433.30 846.14,433.06 851.95,431.05 ZM 944.50 431.67 C949.29,430.43 949.51,430.23 949.82,426.60 C950.09,423.34 949.88,422.90 948.32,423.38 C938.02,426.50 931.94,426.33 926.14,422.76 C923.17,420.94 920.00,415.93 920.00,413.06 C920.00,412.43 926.19,411.94 936.25,411.77 L 952.50 411.50 L 952.82 408.74 C953.37,403.90 950.21,395.28 946.52,391.59 C939.24,384.31 924.65,384.59 916.42,392.18 C910.61,397.54 908.59,403.05 909.22,411.85 C909.79,419.83 911.86,423.94 917.15,427.61 C924.52,432.71 934.64,434.22 944.50,431.67 ZM 719.00 430.80 C719.00,430.15 717.94,428.46 716.63,427.05 C715.33,425.65 709.52,418.36 703.73,410.86 L 693.19 397.21 L 698.84 390.23 C701.95,386.38 707.34,379.81 710.81,375.62 L 717.13 368.00 L 710.79 368.00 L 704.46 368.00 L 694.04 381.00 C688.31,388.15 683.25,394.00 682.81,394.00 C682.36,394.00 682.00,388.15 682.00,381.00 L 682.00 368.00 L 676.50 368.00 L 671.00 368.00 L 671.00 399.50 L 671.00 431.00 L 676.50 431.00 L 682.00 431.00 L 682.00 416.50 C682.00,408.52 682.34,402.03 682.75,402.06 C683.16,402.09 685.97,405.33 689.00,409.26 C692.03,413.18 697.07,419.65 700.21,423.64 C706.32,431.38 705.45,430.95 716.75,431.83 C717.99,431.92 719.00,431.46 719.00,430.80 ZM 821.81 427.72 C822.11,424.09 822.01,423.96 819.54,424.58 C816.04,425.46 811.03,423.22 809.92,420.28 C809.41,418.95 809.00,412.72 809.00,406.43 L 809.00 395.00 L 815.00 395.00 L 821.00 395.00 L 821.00 391.55 L 821.00 388.10 L 815.25 387.80 L 809.50 387.50 L 809.20 380.16 C808.96,374.03 808.65,372.92 807.37,373.41 C806.52,373.74 804.08,374.28 801.96,374.62 L 798.09 375.24 L 797.79 381.37 L 797.50 387.50 L 794.19 387.82 C791.13,388.11 790.91,388.37 791.19,391.32 C791.46,394.10 791.91,394.54 794.75,394.81 L 798.00 395.13 L 798.00 408.31 C798.00,418.86 798.35,422.20 799.75,425.00 C802.25,430.01 806.98,432.10 815.00,431.77 L 821.50 431.50 L 821.81 427.72 ZM 889.78 416.82 L 890.05 402.13 L 893.10 399.57 C894.78,398.16 897.36,396.92 898.83,396.83 C900.30,396.73 902.40,396.62 903.50,396.56 C905.16,396.49 905.55,395.66 905.80,391.74 L 906.11 387.00 L 902.62 387.00 C898.23,387.00 894.15,388.52 891.25,391.24 L 889.00 393.35 L 889.00 390.67 C889.00,388.13 888.75,388.00 884.00,388.00 L 879.00 388.00 L 879.00 409.33 C879.00,421.07 879.32,430.99 879.71,431.38 C880.10,431.77 882.47,431.96 884.96,431.80 L 889.50 431.50 L 889.78 416.82 ZM 500.77 403.75 L 501.03 377.00 L 512.02 377.00 L 523.00 377.00 L 523.00 372.00 L 523.00 367.00 L 493.45 367.00 L 463.89 367.00 L 464.20 371.75 L 464.50 376.50 L 475.75 376.78 L 487.00 377.07 L 487.00 404.08 L 487.00 431.09 L 493.75 430.80 L 500.50 430.50 L 500.77 403.75 ZM 631.00 414.99 L 631.00 398.97 L 634.25 396.99 C636.12,395.85 639.28,395.01 641.69,395.00 C648.43,395.00 649.00,396.56 649.00,415.22 L 649.00 431.00 L 655.08 431.00 L 661.17 431.00 L 660.83 413.75 C660.47,394.99 659.84,392.41 654.67,388.59 C650.63,385.60 640.89,385.69 635.67,388.77 C633.59,389.99 631.69,391.00 631.44,391.00 C631.20,391.00 631.00,384.48 631.00,376.50 L 631.00 362.00 L 625.00 362.00 L 619.00 362.00 L 619.00 396.50 L 619.00 431.00 L 625.00 431.00 L 631.00 431.00 L 631.00 414.99 ZM 785.00 397.00 L 785.00 363.00 L 779.50 363.00 L 774.00 363.00 L 774.00 397.00 L 774.00 431.00 L 779.50 431.00 L 785.00 431.00 L 785.00 397.00 ZM 309.00 425.95 C309.00,425.37 308.34,423.62 307.52,422.04 L 306.05 419.19 L 291.77 418.79 C279.94,418.45 276.52,418.00 271.75,416.12 C263.76,412.98 255.86,405.50 251.79,397.22 C248.91,391.37 248.53,389.65 248.56,382.55 C248.60,372.45 251.32,365.08 257.59,358.11 C262.60,352.54 271.67,347.47 278.46,346.45 C282.57,345.84 282.87,345.57 283.87,341.61 C285.98,333.23 294.36,324.10 301.87,322.02 C303.87,321.46 308.29,321.01 311.69,321.01 L 317.88 321.00 L 321.17 314.83 C327.66,302.66 338.07,294.02 351.94,289.29 C360.23,286.46 376.69,286.13 385.07,288.61 C397.07,292.17 407.29,299.33 413.95,308.81 L 418.11 314.75 L 425.81 315.21 C434.48,315.72 438.61,317.43 444.33,322.86 C448.75,327.05 451.41,331.77 453.07,338.37 C454.04,342.20 454.64,343.00 456.54,343.00 C457.80,343.00 459.62,343.30 460.57,343.66 C462.13,344.26 462.23,343.79 461.61,338.91 C460.18,327.71 451.42,315.31 441.51,310.46 C438.28,308.88 433.59,307.59 429.83,307.25 L 423.54 306.68 L 416.19 298.86 C407.69,289.83 400.73,285.27 389.49,281.38 C382.65,279.01 379.92,278.61 370.50,278.61 C347.62,278.60 329.69,287.40 317.83,304.47 L 312.66 311.90 L 307.08 312.54 C299.60,313.40 290.06,317.91 285.26,322.85 C283.10,325.08 279.88,329.62 278.11,332.95 C276.11,336.69 274.24,339.00 273.19,339.00 C272.26,339.00 268.80,340.30 265.50,341.88 C241.73,353.29 232.91,382.40 246.30,405.25 C251.30,413.78 262.36,422.06 273.50,425.60 C278.55,427.20 309.00,427.50 309.00,425.95 ZM 331.67 542.33 C331.30,541.97 331.00,539.79 331.00,537.49 C331.00,530.81 336.19,527.57 339.44,532.22 C342.62,536.76 340.12,543.00 335.11,543.00 C333.58,543.00 332.03,542.70 331.67,542.33 ZM 461.38 549.55 C460.42,547.05 461.96,546.00 466.59,546.00 C471.28,546.00 473.71,548.30 470.90,550.09 C468.59,551.54 462.00,551.17 461.38,549.55 ZM 462.97 534.94 C461.56,532.31 463.26,530.00 466.60,530.00 C468.27,530.00 469.14,530.72 469.58,532.44 C469.91,533.79 469.89,535.36 469.54,535.94 C468.40,537.78 464.14,537.12 462.97,534.94 ZM 796.22 549.77 C794.27,547.41 796.39,545.85 801.10,546.19 C804.73,546.44 805.50,546.85 805.50,548.50 C805.50,550.12 804.73,550.56 801.41,550.80 C798.90,550.98 796.90,550.59 796.22,549.77 ZM 797.41 535.63 C796.21,532.50 797.42,530.50 800.51,530.50 C803.17,530.50 803.50,530.84 803.50,533.50 C803.50,536.03 803.07,536.55 800.74,536.82 C798.99,537.02 797.78,536.59 797.41,535.63 ZM 352.56 540.78 C351.70,539.56 351.00,537.63 351.00,536.50 C351.00,531.54 356.70,528.10 359.80,531.20 C361.35,532.75 361.35,540.25 359.80,541.80 C357.89,543.71 354.25,543.20 352.56,540.78 ZM 399.00 533.70 C399.00,530.29 405.21,528.51 406.39,531.58 C407.51,534.50 407.02,535.00 403.00,535.00 C400.38,535.00 399.00,534.55 399.00,533.70 ZM 493.00 538.50 C493.00,534.25 493.15,534.00 495.78,534.00 C499.32,534.00 503.00,536.56 503.00,539.02 C503.00,541.36 500.15,543.00 496.07,543.00 C493.10,543.00 493.00,542.85 493.00,538.50 ZM 493.00 527.56 C493.00,524.07 493.08,524.00 497.03,524.00 C504.04,524.00 503.69,530.21 496.65,530.81 C493.08,531.11 493.00,531.05 493.00,527.56 ZM 581.00 533.62 C581.00,529.59 588.26,528.78 588.82,532.75 C589.11,534.77 588.72,535.00 585.07,535.00 C582.28,535.00 581.00,534.57 581.00,533.62 ZM 653.00 533.50 L 653.00 524.00 L 657.05 524.00 C660.01,524.00 661.75,524.66 663.55,526.45 C669.27,532.18 664.72,543.00 656.58,543.00 L 653.00 543.00 L 653.00 533.50 ZM 677.00 533.70 C677.00,530.00 683.20,528.63 684.96,531.93 C686.53,534.85 686.36,535.00 681.50,535.00 C678.47,535.00 677.00,534.57 677.00,533.70 ZM 733.00 533.70 C733.00,530.00 739.20,528.63 740.96,531.93 C742.53,534.85 742.36,535.00 737.50,535.00 C734.47,535.00 733.00,534.57 733.00,533.70 ZM 844.20 541.80 C842.48,540.08 842.72,533.42 844.57,531.57 C849.43,526.71 855.48,534.49 851.96,541.07 C850.79,543.26 846.10,543.70 844.20,541.80 ZM 896.56 540.78 C895.70,539.56 895.00,537.63 895.00,536.50 C895.00,531.12 901.70,527.71 903.96,531.93 C905.37,534.56 905.27,540.33 903.80,541.80 C901.89,543.71 898.25,543.20 896.56,540.78 ZM 945.56 540.78 C944.70,539.56 944.00,537.63 944.00,536.50 C944.00,533.42 946.82,530.00 949.36,530.00 C952.65,530.00 954.00,531.89 954.00,536.50 C954.00,538.76 953.46,541.14 952.80,541.80 C950.89,543.71 947.25,543.20 945.56,540.78 ZM 736.25 490.34 C735.40,490.00 735.00,487.35 735.00,482.08 C735.00,474.74 735.14,474.26 737.55,473.16 C744.88,469.82 750.00,473.26 750.00,481.51 C750.00,488.09 747.31,491.04 741.44,490.92 C739.27,490.88 736.94,490.62 736.25,490.34 ZM 362.44 454.19 C331.08,437.57 316.00,409.37 316.00,367.34 C316.00,354.19 316.42,353.44 324.21,352.64 C337.86,351.24 353.42,345.45 363.47,338.02 L 369.16 333.82 L 374.42 337.32 C387.03,345.69 401.09,350.73 415.00,351.88 L 422.50 352.50 L 423.05 361.00 C424.22,379.24 420.77,401.42 414.57,415.43 C410.87,423.79 402.45,435.41 395.44,441.82 C389.49,447.26 375.71,456.21 371.50,457.38 C370.27,457.72 366.79,456.50 362.44,454.19 ZM 377.91 441.98 C393.51,431.90 403.52,418.49 408.89,400.50 C410.99,393.45 413.13,378.99 412.07,379.01 C411.76,379.01 401.91,387.11 390.19,397.01 C378.48,406.90 368.35,415.00 367.69,414.99 C366.00,414.98 362.45,412.46 353.66,405.03 C347.76,400.05 346.00,397.97 346.00,395.98 C346.00,389.41 352.00,389.26 359.81,395.63 C362.94,398.17 366.05,400.46 366.72,400.72 C367.40,400.98 370.54,399.01 373.70,396.35 C378.89,391.97 392.57,380.38 406.81,368.29 C409.73,365.81 411.92,363.59 411.68,363.34 C411.43,363.10 406.06,361.62 399.73,360.06 C392.14,358.18 385.20,355.65 379.31,352.61 C374.41,350.07 369.91,348.00 369.32,348.00 C368.73,348.00 365.63,349.57 362.43,351.50 C353.95,356.61 335.21,363.00 328.71,363.00 C326.82,363.00 326.76,363.56 327.26,376.75 C328.40,406.92 338.32,426.27 359.90,440.47 C364.52,443.51 369.07,446.00 370.00,446.00 C370.93,446.00 374.49,444.19 377.91,441.98 ZM 532.00 401.93 C532.00,397.05 537.00,393.00 543.03,393.00 C546.97,393.00 552.00,397.73 552.00,401.42 L 552.00 404.00 L 542.00 404.00 C532.56,404.00 532.00,403.88 532.00,401.93 ZM 920.73 404.40 C919.83,403.49 921.85,398.80 924.24,396.25 C925.90,394.48 927.44,394.00 931.42,394.02 C934.22,394.02 937.00,394.36 937.60,394.77 C939.01,395.70 940.54,398.75 941.38,402.25 L 942.04 405.00 L 931.69 405.00 C925.99,405.00 921.06,404.73 920.73,404.40 Z" fill="rgb(252,252,252)"/>
</g>
</svg>