<?xml version="1.0" encoding="UTF-8"?>
<svg xmlns="http://www.w3.org/2000/svg" version="1.2" width="1536" height="1536" baseProfile="tiny-ps" viewBox="0 0 1536 1024">
  <path d="M0 0 C506.88 0 1013.76 0 1536 0 C1536 337.92 1536 675.84 1536 1024 C1029.12 1024 522.24 1024 0 1024 C0 686.08 0 348.16 0 0 Z " fill="#FCFCFD" transform="translate(0,0)"/>
  <path d="M0 0 C2.93835036 1.03706483 5.27825628 2.18752054 7.875 3.9375 C11.13076389 6.08630417 14.40028118 7.56444079 18 9 C18.69480469 9.30808594 19.38960938 9.61617188 20.10546875 9.93359375 C30.84050039 14.55487203 42.53971236 16.9062936 54 19 C54 19.66 54 20.32 54 21 C52.53309441 22.3327188 50.99677499 23.58913869 49.4375 24.8125 C44.69288843 28.60452546 40.07224834 32.50211674 35.5 36.5 C30.37803742 40.96768558 25.19078924 45.32713711 19.90234375 49.59765625 C17.61305392 51.49255968 15.36430602 53.41396402 13.12890625 55.37109375 C12.45601563 55.96019531 11.783125 56.54929687 11.08984375 57.15625 C9.76486115 58.32039656 8.44309699 59.48821921 7.125 60.66015625 C6.51785156 61.19382812 5.91070312 61.7275 5.28515625 62.27734375 C4.74769775 62.75421631 4.21023926 63.23108887 3.65649414 63.72241211 C1.86515507 65.10400052 0.04926999 66.0524461 -2 67 C-4.29294372 65.20994733 -6.58439317 63.41803862 -8.875 61.625 C-9.85146484 60.86316406 -9.85146484 60.86316406 -10.84765625 60.0859375 C-11.47285156 59.59609375 -12.09804688 59.10625 -12.7421875 58.6015625 C-13.3182373 58.15119629 -13.89428711 57.70083008 -14.48779297 57.23681641 C-16 56 -16 56 -18 54 C-21 53.66666667 -21 53.66666667 -24 54 C-26.37918548 55.97871793 -26.37918548 55.97871793 -26.53125 59.7421875 C-26.4368436 63.2273572 -25.7385888 64.79465526 -23.21875 67.1953125 C-21.99966107 68.19734211 -20.75873866 69.17325522 -19.5 70.125 C-18.85796631 70.63635498 -18.21593262 71.14770996 -17.55444336 71.67456055 C-16.28502894 72.68076263 -15.00776737 73.67715877 -13.72216797 74.66259766 C-12.28980981 75.7749393 -10.90549083 76.94880589 -9.53515625 78.13671875 C-6.45307278 80.75496392 -4.69073019 81.9104609 -0.625 82.4375 C3.98255479 80.6103662 6.7897006 77.91842168 10.34765625 74.515625 C12.87400024 72.11950492 15.47273563 69.92826562 18.1875 67.75 C22.66216571 64.12735103 27.03354713 60.40481959 31.375 56.625 C33.91637899 54.41633546 36.45795191 52.2078944 39 50 C39.62890137 49.45359863 40.25780273 48.90719727 40.90576172 48.34423828 C42.70348602 46.7866483 44.50704894 45.23612145 46.3125 43.6875 C46.8576123 43.21328613 47.40272461 42.73907227 47.96435547 42.25048828 C51.77102486 39 51.77102486 39 54 39 C54.68938512 63.07332853 44.70042911 86.21478123 28.40625 103.625 C21.25289695 110.68545236 12.56996048 118.54528398 3 122 C-12.15122553 118.85245508 -27.76555451 103.32186688 -36.04296875 90.9453125 C-41.33735262 82.07242184 -45.26561009 73.23090535 -47.6875 63.1875 C-47.90172607 62.30368652 -48.11595215 61.41987305 -48.33666992 60.50927734 C-51.56226743 46.75665162 -51.1219075 33.05124644 -51 19 C-49.45505859 18.77957031 -49.45505859 18.77957031 -47.87890625 18.5546875 C-32.33093075 16.17630633 -11.5924687 11.5924687 0 0 Z " fill="#255EA5" transform="translate(451,425)"/>
  <path d="M0 0 C3.17106264 1.37209441 5.68617237 3.25984943 8.36254883 5.42700195 C27.65296919 21.0129253 51.65458454 26.07225092 76 27 C79.77733314 51.51893925 79.94431852 78.24234605 72 102 C71.48373047 103.60681641 71.48373047 103.60681641 70.95703125 105.24609375 C68.2904661 113.4190678 68.2904661 113.4190678 67 116 C68.03253906 116.10957031 69.06507813 116.21914063 70.12890625 116.33203125 C82.77852299 117.6958318 95.38924835 119.31699249 108 121 C108 121.66 108 122.32 108 123 C106.96182129 123.08564209 105.92364258 123.17128418 104.85400391 123.25952148 C100.95874957 123.58108238 97.06359029 123.90378272 93.16845703 124.22680664 C91.49074791 124.3657837 89.81301402 124.50446217 88.13525391 124.64282227 C87.32362793 124.70977295 86.51200195 124.77672363 85.67578125 124.84570312 C84.87392899 124.91174744 84.07207672 124.97779175 83.2459259 125.0458374 C80.89212636 125.24270113 78.53925941 125.44888129 76.1862793 125.65527344 C73.69625473 125.87066082 71.22805899 126.03526897 68.72973633 126.14941406 C63.74166675 126.3197022 63.74166675 126.3197022 59.80859375 129.1171875 C59.12990234 130.48230469 59.12990234 130.48230469 58.4375 131.875 C46.98291173 152.60619145 28.91907031 165.18967737 8 175 C7.33226562 175.4228125 6.66453125 175.845625 5.9765625 176.28125 C2.15661936 177.67032023 -1.40336783 176.63887717 -5.08544922 175.16552734 C-7.41127383 174.07385605 -9.67462602 172.90430873 -11.9375 171.6875 C-12.76290283 171.24744629 -13.58830566 170.80739258 -14.4387207 170.35400391 C-39.79040707 156.44181925 -58.97911011 134.8364781 -67.875 107.0625 C-68.60397911 104.3786516 -69.31388733 101.69474723 -70 99 C-70.1783136 98.30592545 -70.3566272 97.61185089 -70.54034424 96.89674377 C-73.92163098 83.28447126 -74.54004481 70.17108626 -74.35668945 56.18383789 C-74.31168953 52.75066672 -74.29509359 49.31819845 -74.28320312 45.88476562 C-74.26981247 43.70051055 -74.25489891 41.51626415 -74.23828125 39.33203125 C-74.23089432 38.30624466 -74.22350739 37.28045807 -74.21589661 36.22358704 C-74.20306137 35.2871788 -74.19022614 34.35077057 -74.17700195 33.38598633 C-74.16715775 32.56028641 -74.15731354 31.73458649 -74.14717102 30.88386536 C-74 29 -74 29 -73 28 C-70.9388172 27.88875175 -68.87572122 27.81299912 -66.8125 27.75 C-41.37190201 26.3791368 -18.7121913 17.19639927 0 0 Z M0 14 C-0.96486328 14.74443359 -0.96486328 14.74443359 -1.94921875 15.50390625 C-11.05342493 22.34829521 -20.6027548 28.98872144 -32 31 C-32 31.66 -32 32.32 -32 33 C-33.07701172 33.16435547 -33.07701172 33.16435547 -34.17578125 33.33203125 C-44.12233959 34.85560121 -54.06135381 36.42576882 -64 38 C-64.44521093 76.70937792 -62.33750658 112.41360208 -34.6484375 142.41796875 C-26.75798613 150.11057695 -17.73608545 156.83427121 -8 162 C-7.36578125 162.34933594 -6.7315625 162.69867187 -6.078125 163.05859375 C-1.65706532 165.25934249 1.24949829 164.9720334 6 164 C14.50997038 160.56887299 22.08867906 156.03009605 29 150 C29.82113281 149.31035156 30.64226562 148.62070312 31.48828125 147.91015625 C46.82735471 134.66594867 57.00654757 117.61713454 62 98 C62.23460937 97.12085938 62.46921875 96.24171875 62.7109375 95.3359375 C65.87166554 83.22502906 67.31285997 71.71370027 67.20581055 59.21533203 C67.18729727 56.97547244 67.18530335 54.73602272 67.18554688 52.49609375 C67.37679935 44.65483494 67.37679935 44.65483494 66 37 C65.38592285 36.92483154 64.7718457 36.84966309 64.13916016 36.7722168 C61.2999261 36.41951195 58.46253989 36.05357543 55.625 35.6875 C54.17673828 35.51057617 54.17673828 35.51057617 52.69921875 35.33007812 C46.21642228 34.48165845 40.19662859 33.07404966 34 31 C32.93652344 30.65839844 31.87304688 30.31679688 30.77734375 29.96484375 C21.79843317 26.71662713 13.90523394 22.07731612 5.80834961 17.06567383 C3.91262988 15.94851214 1.97810334 14.96247525 0 14 Z " fill="#265898" transform="translate(451,395)"/>
  <path d="M0 0 C7.36767317 5.52474339 14.12947389 11.95230636 19.16113281 19.72021484 C19.16113281 20.38021484 19.16113281 21.04021484 19.16113281 21.72021484 C19.86238281 21.69701172 20.56363281 21.67380859 21.28613281 21.64990234 C34.58284686 21.39697572 45.24285243 25.15600547 55.05957031 34.43505859 C63.16585552 43.2495137 68.61469329 54.58293647 68.16113281 66.72021484 C64.53113281 66.39021484 60.90113281 66.06021484 57.16113281 65.72021484 C56.93425781 64.09083984 56.70738281 62.46146484 56.47363281 60.78271484 C54.56796128 50.35520229 49.36434304 43.58108002 40.78613281 37.53271484 C35.21993584 33.69709911 29.88138769 32.56218341 23.16162109 32.69897461 C14.27891279 32.79042971 14.27891279 32.79042971 11.14160156 29.78662109 C9.78613281 27.28271484 9.78613281 27.28271484 8.55175781 24.54443359 C3.93778031 15.17391187 -7.317327 6.60295031 -16.95117188 2.91064453 C-21.85108802 1.25753293 -26.81257733 -0.07119327 -31.83886719 -1.27978516 C-32.64453125 -1.48216797 -33.45019531 -1.68455078 -34.28027344 -1.89306641 C-52.71665296 -4.67963369 -70.31160948 -0.83665517 -85.69824219 9.67333984 C-95.44392511 17.17456246 -103.8903201 26.8745736 -107.83886719 38.72021484 C-108.7940625 38.75759766 -109.74925781 38.79498047 -110.73339844 38.83349609 C-122.92044267 39.45317631 -133.18808919 40.1986802 -141.83886719 49.72021484 C-147.01510221 55.79566219 -149.57111614 60.81031515 -150.83886719 68.72021484 C-151.78246094 68.92775391 -152.72605469 69.13529297 -153.69824219 69.34912109 C-166.79592614 72.41307727 -177.86002246 77.37211318 -185.83886719 88.72021484 C-192.50329028 99.85031275 -195.0452461 111.9122735 -191.99902344 124.67724609 C-188.39776413 137.48619748 -181.09389948 146.06228012 -169.90917969 152.89990234 C-159.97936927 158.36329201 -148.74431489 158.10200791 -137.71386719 158.34521484 C-136.26592947 158.38348918 -134.81801222 158.42254603 -133.37011719 158.46240234 C-129.85989017 158.55735098 -126.34950587 158.641747 -122.83886719 158.72021484 C-122.16731786 160.00934972 -121.5017786 161.30161688 -120.83886719 162.59521484 C-120.46761719 163.31451172 -120.09636719 164.03380859 -119.71386719 164.77490234 C-118.83886719 166.72021484 -118.83886719 166.72021484 -118.83886719 168.72021484 C-123.97593759 168.82054071 -129.11241401 168.89235569 -134.25024414 168.93994141 C-135.99090532 168.95981819 -137.73150192 168.9869295 -139.47192383 169.02197266 C-159.19086701 169.40850714 -174.67330854 166.11128706 -189.51855469 152.19677734 C-200.36196514 140.6231709 -205.31588402 126.25364822 -205.05371094 110.64208984 C-204.22058366 95.43373011 -197.13158207 82.33021584 -186.08886719 72.03271484 C-179.28743634 66.35167474 -168.9619113 59.72021484 -159.83886719 59.72021484 C-159.72671875 58.99447266 -159.61457031 58.26873047 -159.49902344 57.52099609 C-157.07211083 47.22456804 -148.64155839 38.96458144 -140.02636719 33.40771484 C-133.43601646 29.68800769 -126.71906821 27.65268562 -119.15136719 27.78271484 C-115.80128248 27.50254762 -115.01234773 26.92370818 -112.78417969 24.31005859 C-111.4138841 22.20129631 -110.0805208 20.06818736 -108.78027344 17.91552734 C-99.32281462 2.34972993 -82.13513795 -7.66744629 -64.83886719 -12.27978516 C-42.32486998 -16.50660401 -18.96174372 -13.19668887 0 0 Z " fill="#2962A7" transform="translate(497.8388671875,354.27978515625)"/>
  <path d="M0 0 C4.62 0 9.24 0 14 0 C14 11.22 14 22.44 14 34 C14.66 34 15.32 34 16 34 C16.22300781 33.30390625 16.44601562 32.6078125 16.67578125 31.890625 C18.30729619 28.32920596 20.61742056 25.65410788 23.1875 22.75 C24.18630317 21.5975724 25.1836979 20.44392261 26.1796875 19.2890625 C26.66405273 18.72864258 27.14841797 18.16822266 27.64746094 17.59082031 C29.43688871 15.48614317 31.13232543 13.3175148 32.8125 11.125 C33.36550781 10.42761719 33.91851563 9.73023438 34.48828125 9.01171875 C36.03255208 7.03717215 36.03255208 7.03717215 37.23046875 4.89453125 C38.70337573 2.6239885 39.65905574 1.39404546 42 0 C47.07165011 -0.5872437 51.92109606 -0.40708772 57 0 C55.70423453 2.80634516 54.29298167 5.01239976 52.2421875 7.3203125 C51.70271484 7.93334229 51.16324219 8.54637207 50.60742188 9.17797852 C50.03572266 9.82049561 49.46402344 10.4630127 48.875 11.125 C44.33470088 16.2904037 39.89503492 21.4962451 35.66015625 26.91796875 C34.15114459 28.8104469 32.56628802 30.58643986 30.9375 32.375 C28.74089273 34.72501031 28.74089273 34.72501031 29.23071289 36.96313477 C30.54514486 40.44339689 33.08377471 43.10732233 35.4375 45.9375 C36.53621878 47.28298721 37.63385743 48.6293571 38.73046875 49.9765625 C39.28138184 50.65106445 39.83229492 51.32556641 40.39990234 52.02050781 C42.73640617 54.9110133 44.99771746 57.85618447 47.25 60.8125 C50.95649192 65.66452583 54.74104385 70.44159523 58.6015625 75.171875 C60 77 60 77 60 78 C46.25412962 80.1986878 46.25412962 80.1986878 41.2265625 76.80175781 C37.75403089 73.38753364 35.14209203 69.33261177 32.50634766 65.25976562 C29.8585298 61.28760969 26.87164079 57.57498388 23.9375 53.8125 C22.86089835 52.40416217 21.78652968 50.99411335 20.71484375 49.58203125 C20.03603149 48.68834839 20.03603149 48.68834839 19.34350586 47.77661133 C17.8903905 45.85505573 16.4454796 43.92730613 15 42 C14.67 53.88 14.34 65.76 14 78 C9.38 78 4.76 78 0 78 C0 52.26 0 26.52 0 0 Z " fill="#183053" transform="translate(821,450)"/>
  <path d="M0 0 C4.95 0 9.9 0 15 0 C15.33 11.88 15.66 23.76 16 36 C18.31 34.68 20.62 33.36 23 32 C27.68786543 29.65606728 33.91491865 30.51491 39 31 C44.45254147 32.85353163 47.33353673 35.85959083 50.14083862 40.88014221 C51.74935051 44.84891519 51.48702223 48.86677496 51.390625 53.08984375 C51.38496521 54.03436905 51.37930542 54.97889435 51.37347412 55.95204163 C51.35121071 58.94772556 51.30103331 61.94218195 51.25 64.9375 C51.22992202 66.97719618 51.21167353 69.01691124 51.1953125 71.05664062 C51.15137883 76.03822826 51.0824212 81.01890652 51 86 C46.38 86 41.76 86 37 86 C36.9906543 84.83952148 36.98130859 83.67904297 36.97167969 82.48339844 C36.93178124 78.17425269 36.86602316 73.86582101 36.79248047 69.55712891 C36.76426994 67.69296447 36.74305579 65.8286804 36.72900391 63.96435547 C36.70757516 61.28290559 36.66092702 58.60289414 36.609375 55.921875 C36.60814636 55.08944275 36.60691772 54.2570105 36.60565186 53.39935303 C36.509924 49.61023142 36.45502329 47.62101578 34.16894531 44.50097656 C31.04903488 42.34190302 28.78132723 42.06409029 25 42 C22.46203399 42.76241318 20.38317948 43.78504576 18 45 C17.01 45.495 17.01 45.495 16 46 C15.67 59.2 15.34 72.4 15 86 C10.05 86 5.1 86 0 86 C0 57.62 0 29.24 0 0 Z " fill="#1A3154" transform="translate(758,442)"/>
  <path d="M0 0 C5.70002194 3.64760763 8.71243485 8.20491525 11.19140625 14.40234375 C11.19140625 19.02234375 11.19140625 23.64234375 11.19140625 28.40234375 C-2.00859375 28.40234375 -15.20859375 28.40234375 -28.80859375 28.40234375 C-25.88064003 37.73542939 -25.88064003 37.73542939 -19.09375 43.515625 C-11.03004807 46.64461703 0.07902662 44.3992372 8.19140625 42.40234375 C8.19140625 45.70234375 8.19140625 49.00234375 8.19140625 52.40234375 C-5.15720302 55.7197496 -17.64028775 57.76263285 -30.25390625 51.11328125 C-37.49671195 46.64329885 -41.52559397 41.62114297 -43.80859375 33.40234375 C-44.9381537 22.70124953 -43.78511391 14.94507838 -37.26953125 6.37890625 C-27.99085936 -4.04310909 -12.41279509 -5.7462857 0 0 Z " fill="#1A3256" transform="translate(678.80859375,474.59765625)"/>
  <path d="M0 0 C24.09 0 48.18 0 73 0 C73 3.96 73 7.92 73 12 C63.76 12 54.52 12 45 12 C45 34.11 45 56.22 45 79 C39.39 79 33.78 79 28 79 C28 56.89 28 34.78 28 12 C18.76 12 9.52 12 0 12 C0 8.04 0 4.08 0 0 Z " fill="#1A3255" transform="translate(568,449)"/>
  <path d="M0 0 C6.39365786 3.45016255 10.64115572 8.56982852 12.9375 15.4375 C14.35301423 20.37908561 14 23.95988306 14 29.5 C0.8 29.5 -12.4 29.5 -26 29.5 C-23.59370859 39.20178491 -23.59370859 39.20178491 -17 44.5 C-7.96433281 47.57808443 2.31430231 45.65843552 11 42.5 C11 45.8 11 49.1 11 52.5 C-1.81776237 56.18730151 -15.02126088 58.10209224 -27.4375 52.11328125 C-33.15913404 48.51109397 -37.49963284 43.39401107 -39.56640625 36.8984375 C-41.4964294 26.22245359 -40.36839355 17.206578 -34.3125 8.3125 C-26.26765382 -1.90445465 -12.0120327 -4.71752841 0 0 Z " fill="#1A3154" transform="translate(1153,474.5)"/>
  <path d="M0 0 C4.62 0 9.24 0 14 0 C14.00410889 1.18553467 14.00821777 2.37106934 14.01245117 3.5925293 C14.03425989 8.00052072 14.08856741 12.40762172 14.15258789 16.81518555 C14.17575277 18.72102307 14.19016007 20.62698833 14.19555664 22.53295898 C14.20485741 25.27668723 14.24587071 28.01841063 14.29296875 30.76171875 C14.2890361 31.61086349 14.28510345 32.46000824 14.28105164 33.33488464 C14.38771478 37.68138743 14.6074125 39.48897599 17.3371582 43.04223633 C20.90416567 45.66475699 22.64398452 45.66447694 27 45 C29.64 43.68 32.28 42.36 35 41 C35.33 27.47 35.66 13.94 36 0 C40.62 0 45.24 0 50 0 C50 17.82 50 35.64 50 54 C45.71 54 41.42 54 37 54 C37 52.68 37 51.36 37 50 C36.40832031 50.34933594 35.81664062 50.69867187 35.20703125 51.05859375 C34.41683594 51.51363281 33.62664062 51.96867188 32.8125 52.4375 C32.03519531 52.88996094 31.25789063 53.34242188 30.45703125 53.80859375 C24.32069511 56.78408266 17.25819332 56.94248654 10.8125 54.875 C5.89251694 52.82581256 3.39044322 49.59397937 0.87939453 44.90942383 C-0.39240949 40.70173684 -0.24584193 36.69496503 -0.1953125 32.32421875 C-0.1924826 31.3990596 -0.18965271 30.47390045 -0.18673706 29.52070618 C-0.17557392 26.57617058 -0.15047637 23.63194312 -0.125 20.6875 C-0.11496521 18.68685336 -0.10584023 16.68620194 -0.09765625 14.68554688 C-0.07564722 9.7902465 -0.04114391 4.89517543 0 0 Z " fill="#182F52" transform="translate(1014,474)"/>
  <path d="M0 0 C4.62 0 9.24 0 14 0 C14.01401855 1.778302 14.01401855 1.778302 14.02832031 3.5925293 C14.06825998 8.00046045 14.13402981 12.40769658 14.20751953 16.81518555 C14.2357061 18.72101905 14.25693216 20.62696895 14.27099609 22.53295898 C14.29245783 25.27648406 14.33912365 28.01861313 14.390625 30.76171875 C14.39185364 31.61086349 14.39308228 32.46000824 14.39434814 33.33488464 C14.49456259 37.40296149 14.69651965 39.51535769 16.90380859 43.0402832 C18.81038892 45.12630539 18.81038892 45.12630539 21.1484375 45.59375 C26.31386423 45.37625835 31.11998585 44.88001415 35 41 C35.1603556 37.97192956 35.25960448 34.96414546 35.31640625 31.93359375 C35.33718735 31.02497086 35.35796844 30.11634796 35.37937927 29.18019104 C35.44497672 26.26604054 35.5038068 23.35179696 35.5625 20.4375 C35.60567554 18.46678709 35.64928951 16.49608374 35.69335938 14.52539062 C35.80066843 9.68369012 35.90190675 4.84189563 36 0 C40.62 0 45.24 0 50 0 C50 17.82 50 35.64 50 54 C45.71 54 41.42 54 37 54 C36.67 53.01 36.34 52.02 36 51 C35.45730469 51.27714844 34.91460938 51.55429687 34.35546875 51.83984375 C33.28232422 52.38318359 33.28232422 52.38318359 32.1875 52.9375 C31.12595703 53.47697266 31.12595703 53.47697266 30.04296875 54.02734375 C24.3180927 56.75295395 17.72283952 57.13411005 11.640625 55.28125 C7.39059164 53.30003144 4.46620528 51.07872412 2 47 C0.02171622 41.40964139 -0.26789454 36.46449375 -0.1953125 30.56640625 C-0.1924826 29.68846909 -0.18965271 28.81053192 -0.18673706 27.9059906 C-0.17561598 25.12468355 -0.15052672 22.34370836 -0.125 19.5625 C-0.11495975 17.66732239 -0.10583573 15.77213968 -0.09765625 13.87695312 C-0.07570315 9.25117583 -0.0412296 4.62564402 0 0 Z " fill="#1A3254" transform="translate(885,474)"/>
  <path d="M0 0 C3.3 0 6.6 0 10 0 C10.33 6.27 10.66 12.54 11 19 C12.65 18.34 14.3 17.68 16 17 C21.89115421 16.18560346 27.91809877 16.76304987 33 20 C37.58470674 24.23974094 38.3774337 28.92159585 38.625 35 C38.39843864 41.2171103 37.23213872 45.40510654 33 50 C28.80403354 53.82573412 25.1126073 54.13759956 19.5625 54.125 C18.42941406 54.12757813 17.29632812 54.13015625 16.12890625 54.1328125 C13 54 13 54 9 53 C6.03 53 3.06 53 0 53 C0 35.51 0 18.02 0 0 Z " fill="#2C6FBD" transform="translate(891,554)"/>
  <path d="M0 0 C0.69931641 0.00128906 1.39863281 0.00257813 2.11914062 0.00390625 C7.41824384 0.10267798 11.35328066 0.95789033 16.0625 3.3125 C16.0625 6.6125 16.0625 9.9125 16.0625 13.3125 C10.47817291 12.42408433 10.47817291 12.42408433 8.15625 11.80078125 C2.33481173 10.44316971 -3.14721012 10.41743998 -8.375 13.5 C-11.58294884 15.60961145 -13.31164567 17.82643395 -14.9375 21.3125 C-15.41147888 24.91678128 -15.41147888 24.91678128 -15.3125 28.75 C-15.32023438 30.02746094 -15.32796875 31.30492187 -15.3359375 32.62109375 C-14.83224309 37.28767434 -13.60544944 40.6209475 -10.28125 43.9921875 C-3.74895219 48.22710938 2.23827344 48.14209965 9.765625 46.84765625 C11.87761701 46.39271458 13.97275462 45.86062993 16.0625 45.3125 C16.0625 48.6125 16.0625 51.9125 16.0625 55.3125 C7.03110797 59.41767819 -4.28445195 59.80599061 -13.6875 56.75 C-21.8101175 53.42125055 -27.21632309 48.20139504 -30.9375 40.3125 C-33.16884433 33.54308376 -33.40374944 23.32849467 -30.3125 16.8125 C-29.19921875 15.015625 -29.19921875 15.015625 -27.9375 13.3125 C-27.49019531 12.68859375 -27.04289063 12.0646875 -26.58203125 11.421875 C-19.87586964 2.86387788 -10.72021773 -0.08222602 0 0 Z " fill="#1A3255" transform="translate(731.9375,471.6875)"/>
  <path d="M0 0 C0 5.61 0 11.22 0 17 C4.95 17 9.9 17 15 17 C15 19.97 15 22.94 15 26 C10.05 26 5.1 26 0 26 C0.05108862 30.48558109 0.1140536 34.96771101 0.20751953 39.45214844 C0.23570535 40.97677431 0.25693189 42.50154566 0.27099609 44.02636719 C0.29246049 46.22145936 0.33912169 48.41480711 0.390625 50.609375 C0.41157227 51.92905273 0.43251953 53.24873047 0.45410156 54.60839844 C1.07788578 58.48389501 1.88750506 59.68925169 5 62 C7.57117914 62.68874383 7.57117914 62.68874383 10.25 62.75 C11.14203125 62.80671875 12.0340625 62.8634375 12.953125 62.921875 C13.96632813 62.96054687 13.96632813 62.96054687 15 63 C15 65.97 15 68.94 15 72 C-4.69567418 72.80573213 -4.69567418 72.80573213 -10 68 C-15.54203384 60.37927256 -14.45220991 50.86239694 -14.25 41.9375 C-14.22990039 40.38869502 -14.21165574 38.8398648 -14.1953125 37.29101562 C-14.15159863 33.52671183 -14.08276632 29.76363937 -14 26 C-16.97 26 -19.94 26 -23 26 C-23 23.03 -23 20.06 -23 17 C-20.03 17 -17.06 17 -14 17 C-14 12.05 -14 7.1 -14 2 C-9.03075968 0.81331575 -5.14709808 0 0 0 Z " fill="#1E3557" transform="translate(991,457)"/>
  <path d="M0 0 C3.63 0 7.26 0 11 0 C11 6.6 11 13.2 11 20 C18.92 20 26.84 20 35 20 C35 13.4 35 6.8 35 0 C38.3 0 41.6 0 45 0 C45 16.5 45 33 45 50 C41.7 50 38.4 50 35 50 C35 42.74 35 35.48 35 28 C27.08 28 19.16 28 11 28 C11 35.26 11 42.52 11 50 C7.37 50 3.74 50 0 50 C0 33.5 0 17 0 0 Z " fill="#3777C1" transform="translate(782,558)"/>
  <path d="M0 0 C4.62 0 9.24 0 14 0 C14 27.72 14 55.44 14 84 C9.38 84 4.76 84 0 84 C0 56.28 0 28.56 0 0 Z " fill="#1C3457" transform="translate(947,444)"/>
  <path d="M0 0 C4.29 0 8.58 0 13 0 C13.33 1.98 13.66 3.96 14 6 C14.44988281 5.566875 14.89976563 5.13375 15.36328125 4.6875 C19.55844634 1.05561359 22.36608163 -0.41873028 28 -0.375 C29.65 -0.25125 31.3 -0.1275 33 0 C33 3.63 33 7.26 33 11 C32.20335937 11.08636719 31.40671875 11.17273438 30.5859375 11.26171875 C23.84618256 12.15543321 19.67227244 12.94889466 15 18 C13.4725361 21.0549278 13.76008168 24.2763314 13.68359375 27.6328125 C13.66281265 28.38464813 13.64203156 29.13648376 13.62062073 29.91110229 C13.55517295 32.31564085 13.49626262 34.72028967 13.4375 37.125 C13.39431023 38.75391771 13.35069579 40.38282422 13.30664062 42.01171875 C13.19949649 46.00769915 13.09821567 50.00379059 13 54 C8.71 54 4.42 54 0 54 C0 36.18 0 18.36 0 0 Z " fill="#172F52" transform="translate(1076,474)"/>
  <path d="M0 0 C3.3 0 6.6 0 10 0 C10.02505615 0.73637695 10.0501123 1.47275391 10.07592773 2.23144531 C10.19204273 5.57113378 10.31469918 8.91055097 10.4375 12.25 C10.47681641 13.40886719 10.51613281 14.56773437 10.55664062 15.76171875 C10.61948242 17.43427734 10.61948242 17.43427734 10.68359375 19.140625 C10.72025146 20.16704102 10.75690918 21.19345703 10.79467773 22.25097656 C10.97282128 24.63610887 11.32777363 26.71299499 12 29 C13.60495567 28.88557539 15.20898119 28.75805306 16.8125 28.625 C17.70582031 28.55539062 18.59914063 28.48578125 19.51953125 28.4140625 C22.24398499 28.13354964 22.24398499 28.13354964 25 26 C25.510605 23.28995497 25.510605 23.28995497 25.51171875 20.1171875 C25.54716797 18.95058594 25.58261719 17.78398438 25.61914062 16.58203125 C25.64169922 15.35871094 25.66425781 14.13539063 25.6875 12.875 C25.72166016 11.64394531 25.75582031 10.41289063 25.79101562 9.14453125 C25.87371564 6.0964449 25.94279427 3.04865429 26 0 C29.3 0 32.6 0 36 0 C36 11.55 36 23.1 36 35 C33.03 35 30.06 35 27 35 C26.67 34.34 26.34 33.68 26 33 C25.319375 33.48597656 24.63875 33.97195313 23.9375 34.47265625 C20.40027005 36.31182767 17.9704445 36.4332215 14 36.4375 C12.205625 36.46650391 12.205625 36.46650391 10.375 36.49609375 C6.38417976 35.90948013 4.80611015 34.85120835 2 32 C-0.26215292 28.51640238 -0.23256162 25.58177806 -0.1953125 21.484375 C-0.18886719 20.23398437 -0.18242188 18.98359375 -0.17578125 17.6953125 C-0.15902344 16.39335938 -0.14226563 15.09140625 -0.125 13.75 C-0.11597656 12.43257812 -0.10695313 11.11515625 -0.09765625 9.7578125 C-0.07408533 6.50502538 -0.04118022 3.25260411 0 0 Z " fill="#3072BF" transform="translate(841,572)"/>
  <path d="M0 0 C16.13513514 0 16.13513514 0 21 4 C24.91874498 9.40452506 24.78735758 14.54366783 24 21 C21.60223857 26.06194079 19.96308918 27.02214649 15 30 C10.05 30 5.1 30 0 30 C0 20.1 0 10.2 0 0 Z " fill="#F7F7F8" transform="translate(796,638)"/>
  <path d="M0 0 C15 0 15 0 20 4 C20.3125 7.75 20.3125 7.75 20 11 C18.02 11.99 18.02 11.99 16 13 C16 13.66 16 14.32 16 15 C16.639375 15.309375 17.27875 15.61875 17.9375 15.9375 C20 17 20 17 21 18 C21.56381487 23.73211781 21.56381487 23.73211781 21 26 C18.90831889 28.34447688 17.25537789 29.7939243 14.08886719 30.3137207 C11.93684528 30.39339711 9.83927934 30.34921496 7.6875 30.25 C5.150625 30.1675 2.61375 30.085 0 30 C0 20.1 0 10.2 0 0 Z " fill="#898B8D" transform="translate(599,638)"/>
  <path d="M0 0 C1.11761719 0.02707031 1.11761719 0.02707031 2.2578125 0.0546875 C4.08909701 0.10164351 5.91971649 0.17338348 7.75 0.25 C7.75 1.24 7.75 2.23 7.75 3.25 C6.76 3.25 5.77 3.25 4.75 3.25 C4.853125 4.4875 4.95625 5.725 5.0625 7 C5.04474647 10.33766429 4.93144891 11.02318887 2.75 13.75 C-1.23632957 15.74316478 -3.83083952 15.5496041 -8.25 15.25 C-8.25 16.57 -8.25 17.89 -8.25 19.25 C-6.89455078 19.19779297 -6.89455078 19.19779297 -5.51171875 19.14453125 C-4.33222656 19.11746094 -3.15273438 19.09039063 -1.9375 19.0625 C-0.76574219 19.02769531 0.40601563 18.99289062 1.61328125 18.95703125 C4.75 19.25 4.75 19.25 6.66796875 20.54296875 C7.75 22.25 7.75 22.25 7.75 25.75 C6.75 29.25 6.75 29.25 4.5703125 30.94921875 C1.34779108 32.43550633 -0.84229902 32.62005027 -4.375 32.5625 C-5.40882813 32.55863281 -6.44265625 32.55476562 -7.5078125 32.55078125 C-10.25 32.25 -10.25 32.25 -13.25 30.25 C-13.52028374 26.53359861 -13.430933 23.792799 -12.25 20.25 C-11.84952556 17.92724823 -11.5102896 15.59260643 -11.25 13.25 C-11.58 12.92 -11.91 12.59 -12.25 12.25 C-12.83421851 5.12253414 -12.83421851 5.12253414 -10.74609375 2.00390625 C-7.25711997 -0.44765749 -4.09257106 -0.18799796 0 0 Z " fill="#7C7E81" transform="translate(984.25,645.75)"/>
  <path d="M0 0 C0.69287109 0.01804687 1.38574219 0.03609375 2.09960938 0.0546875 C3.79617664 0.10148936 5.49202476 0.17322376 7.1875 0.25 C7.1875 1.24 7.1875 2.23 7.1875 3.25 C6.1975 3.25 5.2075 3.25 4.1875 3.25 C4.435 4.3225 4.6825 5.395 4.9375 6.5 C5.1875 10.25 5.1875 10.25 3.375 12.625 C-0.83917905 15.75553301 -3.66291669 15.3330578 -8.8125 15.25 C-8.4825 16.24 -8.1525 17.23 -7.8125 18.25 C-7.06484375 18.28738281 -6.3171875 18.32476563 -5.546875 18.36328125 C-4.06960938 18.46189453 -4.06960938 18.46189453 -2.5625 18.5625 C-1.58796875 18.62050781 -0.6134375 18.67851563 0.390625 18.73828125 C3.48908134 19.30517759 4.949122 20.05858098 7.1875 22.25 C7.75 25.1875 7.75 25.1875 7.1875 28.25 C4.47484906 31.01760336 2.82088877 32.15261456 -1.0390625 32.74609375 C-2.16054688 32.72675781 -3.28203125 32.70742188 -4.4375 32.6875 C-5.56414063 32.68621094 -6.69078125 32.68492187 -7.8515625 32.68359375 C-10.8125 32.25 -10.8125 32.25 -12.69921875 30.921875 C-14.3719554 28.40983539 -14.00809858 26.18397864 -13.8125 23.25 C-13.1525 22.92 -12.4925 22.59 -11.8125 22.25 C-11.833125 21.321875 -11.85375 20.39375 -11.875 19.4375 C-11.8125 16.25 -11.8125 16.25 -10.8125 13.25 C-11.4725 12.59 -12.1325 11.93 -12.8125 11.25 C-13.25 7.875 -13.25 7.875 -12.8125 4.25 C-8.92986274 0.04009063 -5.45375219 -0.27138288 0 0 Z " fill="#707376" transform="translate(574.8125,645.75)"/>
  <path d="M0 0 C7.25867508 -0.61514196 7.25867508 -0.61514196 10.9375 2.4375 C11.9584375 3.7059375 11.9584375 3.7059375 13 5 C13.33 5.33 13.66 5.66 14 6 C14.53798008 10.08096316 14.93436984 14.24979978 12.953125 17.9609375 C11.18450419 20.09368613 9.48958097 21.75520951 7 23 C0.46666667 23.23333333 0.46666667 23.23333333 -2 22 C-2 25.3 -2 28.6 -2 32 C-3.32 32 -4.64 32 -6 32 C-6 21.77 -6 11.54 -6 1 C-5.01 1 -4.02 1 -3 1 C-3 1.66 -3 2.32 -3 3 C-2.34 3 -1.68 3 -1 3 C-0.67 2.01 -0.34 1.02 0 0 Z " fill="#6A6C70" transform="translate(408,646)"/>
  <path d="M0 0 C3.5426931 0.02820616 4.63090304 0.2380644 7.75 2.1875 C11.18135506 5.83331475 11.21909432 8.8231512 11.1484375 13.69140625 C10.58731094 17.3827388 9.28500783 19.46959031 6.66015625 22.08203125 C3.73440018 23.96672074 1.37316192 24.22762393 -2.05859375 23.9140625 C-5.21707142 23.04702941 -7.08796854 21.85000898 -9.2109375 19.359375 C-11.33646482 15.17224598 -11.19890636 10.8301194 -10.25 6.3125 C-7.8125 3.1875 -7.8125 3.1875 -5.25 1.3125 C-3.69014791 -0.24735209 -2.16093902 0.06797656 0 0 Z " fill="#77797C" transform="translate(436.25,645.6875)"/>
  <path d="M0 0 C2.34765625 0.53515625 2.34765625 0.53515625 5.47265625 2.34765625 C8.22908635 7.03358742 8.09007359 11.22647309 7.34765625 16.53515625 C5.74466974 20.2754581 4.75027927 21.2667409 1.34765625 23.53515625 C-5.5877343 24.20632308 -5.5877343 24.20632308 -9.52734375 21.72265625 C-12.50367495 18.6587859 -13.97422257 16.53037761 -14.15234375 12.28515625 C-14.01893645 7.75671952 -12.8027828 5.02708226 -9.6328125 1.796875 C-6.45602977 -0.2269925 -3.69399519 -0.30644002 0 0 Z " fill="#818387" transform="translate(1165.65234375,645.46484375)"/>
  <path d="M0 0 C3.86134614 0.04843983 6.16579789 0.80078068 9.25 3.25 C12.08628194 7.50442291 11.76845373 11.25689181 11.25 16.25 C10.00420505 19.23990788 9.05979108 20.64265669 6.5 22.5625 C3.2289382 23.56199111 0.65257412 23.6081657 -2.75 23.25 C-5.97618733 21.1709015 -7.6169302 19.44960471 -9.75 16.25 C-10.29593928 12.85942974 -10.30150778 9.64015077 -9.75 6.25 C-7.3125 3.1875 -7.3125 3.1875 -4.75 1.25 C-3.75 0.25 -3.75 0.25 0 0 Z " fill="#77797D" transform="translate(1101.75,645.75)"/>
  <path d="M0 0 C3.5426931 0.02820616 4.63090304 0.2380644 7.75 2.1875 C11.18135506 5.83331475 11.21909432 8.8231512 11.1484375 13.69140625 C10.58748665 17.38158295 9.28761473 19.46930098 6.66015625 22.078125 C3.73422827 23.96890873 1.38312559 24.28719971 -2.05859375 23.984375 C-5.41664355 22.95481249 -7.16347161 21.3294608 -9.2109375 18.515625 C-11.11822871 14.47159402 -11.2604954 10.6400564 -10.25 6.3125 C-7.8125 3.25 -7.8125 3.25 -5.25 1.3125 C-3.69014791 -0.24735209 -2.16093902 0.06797656 0 0 Z " fill="#747679" transform="translate(1038.25,645.6875)"/>
  <path d="M0 0 C3.21954645 2.53453657 4.70432435 4.11297305 6 8 C6.34231315 13.30585376 6.53140599 16.73795828 3 21 C0.50358193 23.26947097 -1.1293397 24.00270812 -4.51171875 23.9921875 C-11.63810642 23.36189358 -11.63810642 23.36189358 -13 22 C-13.33189614 18.8852177 -13.32480728 15.75520026 -13.375 12.625 C-13.41238281 11.7484375 -13.44976563 10.871875 -13.48828125 9.96875 C-13.52158235 7.54887041 -13.4871576 5.37129434 -13 3 C-9.21011849 -0.45126667 -4.92670838 -1.08487114 0 0 Z " fill="#F2F6FA" transform="translate(913,578)"/>
  <path d="M0 0 C2.475 0.495 2.475 0.495 5 1 C5.66 0.67 6.32 0.34 7 0 C11.23971058 -0.23553948 14.36178302 -0.32845886 18 2 C18.99 1.34 19.98 0.68 21 0 C24.7084697 -0.40456033 27.03410171 -0.63253516 30.20703125 1.4453125 C32.88866367 5.26620052 32.43464382 8.70492135 32.25 13.25 C32.23195313 14.09046875 32.21390625 14.9309375 32.1953125 15.796875 C32.14830798 17.86507395 32.07656724 19.93268441 32 22 C30.35 22.33 28.7 22.66 27 23 C26.505 13.595 26.505 13.595 26 4 C24.35 4 22.7 4 21 4 C17.97906785 7.02093215 18.53323166 10.56372072 18.375 14.625 C18.33632812 15.42679688 18.29765625 16.22859375 18.2578125 17.0546875 C18.16346069 19.03607556 18.08063785 21.01800645 18 23 C16.68 23 15.36 23 14 23 C13.93941406 21.71222656 13.87882812 20.42445313 13.81640625 19.09765625 C13.73201753 17.41925841 13.6473687 15.74087364 13.5625 14.0625 C13.52318359 13.21236328 13.48386719 12.36222656 13.44335938 11.48632812 C13.38051758 10.27299805 13.38051758 10.27299805 13.31640625 9.03515625 C13.27974854 8.2862915 13.24309082 7.53742676 13.20532227 6.76586914 C13.18228937 4.97538674 13.18228937 4.97538674 12 4 C9.54190002 3.7499227 9.54190002 3.7499227 7 4 C4.06552643 6.93447357 4.53841577 10.18259456 4.375 14.125 C4.33632812 14.87910156 4.29765625 15.63320313 4.2578125 16.41015625 C4.16348969 18.27303184 4.08065338 20.13648255 4 22 C2.68 22 1.36 22 0 22 C0 14.74 0 7.48 0 0 Z " fill="#7E8083" transform="translate(1055,646)"/>
  <path d="M0 0 C1.32 0 2.64 0 4 0 C4.33 0.66 4.66 1.32 5 2 C5.99 1.34 6.98 0.68 8 0 C11.91919777 -0.21377442 15.22513845 0.02133219 19 1 C19.66 0.67 20.32 0.34 21 0 C27.12946036 -0.56754263 27.12946036 -0.56754263 30.2109375 1.44140625 C32.88541069 5.26625328 32.43463732 8.70508125 32.25 13.25 C32.23195313 14.09046875 32.21390625 14.9309375 32.1953125 15.796875 C32.14830798 17.86507395 32.07656724 19.93268441 32 22 C30.68 22 29.36 22 28 22 C27.93941406 20.78441406 27.87882812 19.56882812 27.81640625 18.31640625 C27.73201668 16.73175772 27.6473679 15.14712298 27.5625 13.5625 C27.52318359 12.76005859 27.48386719 11.95761719 27.44335938 11.13085938 C27.5945704 7.24760439 27.5945704 7.24760439 26 4 C23.54190002 3.7499227 23.54190002 3.7499227 21 4 C18.06552643 6.93447357 18.53841577 10.18259456 18.375 14.125 C18.33632813 14.87910156 18.29765625 15.63320313 18.2578125 16.41015625 C18.16348969 18.27303184 18.08065338 20.13648255 18 22 C16.68 22 15.36 22 14 22 C13.67 15.73 13.34 9.46 13 3 C6.63133581 4.20678321 6.63133581 4.20678321 5 6 C4.76321284 8.69235776 4.57801975 11.36498156 4.4375 14.0625 C4.39431641 14.82111328 4.35113281 15.57972656 4.30664062 16.36132812 C4.20026367 18.24065438 4.09960066 20.12030244 4 22 C2.68 22 1.36 22 0 22 C0 14.74 0 7.48 0 0 Z " fill="#747578" transform="translate(363,646)"/>
  <path d="M0 0 C16.13513514 0 16.13513514 0 21 4 C24.91874498 9.40452506 24.78735758 14.54366783 24 21 C21.60223857 26.06194079 19.96308918 27.02214649 15 30 C10.05 30 5.1 30 0 30 C0 20.1 0 10.2 0 0 Z M4 3 C4 10.92 4 18.84 4 27 C12.2987252 27.78766099 12.2987252 27.78766099 15.9375 25.1875 C20.00284431 20.87577119 20.44123142 18.1539838 20.31640625 12.4453125 C19.86196681 8.93322495 18.6545124 7.29579451 16 5 C11.65278653 2.53266263 9.44741679 3 4 3 Z " fill="#6F7174" transform="translate(796,638)"/>
  <path d="M0 0 C2.475 0.495 2.475 0.495 5 1 C6.32 5.62 7.64 10.24 9 15 C10.32 10.05 11.64 5.1 13 0 C14.65 0 16.3 0 18 0 C19.75734451 4.97361654 21.32584613 9.7415998 22 15 C23.73169596 11.8377726 24.7128976 8.73257278 25.625 5.25 C25.88539063 4.26515625 26.14578125 3.2803125 26.4140625 2.265625 C26.60742188 1.51796875 26.80078125 0.7703125 27 0 C28.32 0 29.64 0 31 0 C30.3146345 4.99450259 28.97984349 9.5967594 27.4375 14.375 C27.20353516 15.11105469 26.96957031 15.84710937 26.72851562 16.60546875 C26.1559972 18.40481238 25.57850686 20.20257277 25 22 C23.35 22 21.7 22 20 22 C19.72285156 21.07316406 19.44570313 20.14632812 19.16015625 19.19140625 C18.79792969 17.99386719 18.43570312 16.79632812 18.0625 15.5625 C17.70285156 14.36753906 17.34320313 13.17257812 16.97265625 11.94140625 C16.29110858 9.14132455 16.29110858 9.14132455 15 8 C13.68 12.62 12.36 17.24 11 22 C9.35 22 7.7 22 6 22 C4.9929564 18.8980736 3.99559195 15.79311902 3 12.6875 C2.71382813 11.80642578 2.42765625 10.92535156 2.1328125 10.01757812 C1.86210937 9.17001953 1.59140625 8.32246094 1.3125 7.44921875 C1.06113281 6.66893311 0.80976563 5.88864746 0.55078125 5.0847168 C0 3 0 3 0 0 Z " fill="#7A7B80" transform="translate(450,646)"/>
  <path d="M0 0 C4.20662891 1.70055211 6.17039752 3.8593207 8 8 C8 9.98 8 11.96 8 14 C-0.58 14 -9.16 14 -18 14 C-16.937638 6.56346602 -16.71863669 5.83372539 -12 1 C-8.31064308 -0.84467846 -4.03564658 -0.35009552 0 0 Z " fill="#F5F6F8" transform="translate(1145,482)"/>
  <path d="M0 0 C1.65 0 3.3 0 5 0 C5.50904657 1.87256417 6.00682455 3.74819341 6.5 5.625 C6.7784375 6.66914062 7.056875 7.71328125 7.34375 8.7890625 C7.99118596 11.95687418 8.1161292 14.77741467 8 18 C8.66 18 9.32 18 10 18 C10.103125 16.700625 10.20625 15.40125 10.3125 14.0625 C10.848308 9.09839647 12.24930225 4.65751666 14 0 C15.65 0.33 17.3 0.66 19 1 C19.50588147 2.91512272 20.00448391 4.83216922 20.5 6.75 C20.7784375 7.81734375 21.056875 8.8846875 21.34375 9.984375 C22 13 22 13 22 17 C22.66 17 23.32 17 24 17 C24.03738281 16.443125 24.07476563 15.88625 24.11328125 15.3125 C24.59560636 9.71374576 25.83241879 5.18334636 28 0 C28.99 0 29.98 0 31 0 C30.58269589 5.04059443 30.03543994 9.33046131 28 14 C27.26677211 16.65358664 26.63579372 19.32058361 26 22 C24.02 22 22.04 22 20 22 C19.49255577 20.10614563 18.99435426 18.20981334 18.5 16.3125 C18.2215625 15.25675781 17.943125 14.20101562 17.65625 13.11328125 C17.0608285 10.28857328 16.87213508 7.87163292 17 5 C16.34 5 15.68 5 15 5 C14.87625 5.94875 14.7525 6.8975 14.625 7.875 C13.95234946 12.62254802 12.97271759 17.30640153 12 22 C10.02 22 8.04 22 6 22 C4.99553896 18.7096777 3.99719244 15.41753178 3 12.125 C2.71382812 11.18785156 2.42765625 10.25070312 2.1328125 9.28515625 C1.86210938 8.38925781 1.59140625 7.49335937 1.3125 6.5703125 C1.06113281 5.74289551 0.80976562 4.91547852 0.55078125 4.06298828 C0 2 0 2 0 0 Z " fill="#747679" transform="translate(1176,646)"/>
  <path d="M0 0 C4.30660377 3.52358491 4.30660377 3.52358491 5.75 6.25 C5.75 8.23 5.75 10.21 5.75 12.25 C-2.5 12.25 -10.75 12.25 -19.25 12.25 C-19.25 6.25 -19.25 6.25 -17 3 C-11.83046718 -2.16953282 -6.82112236 -3.67291204 0 0 Z " fill="#EFF1F4" transform="translate(670.25,482.75)"/>
  <path d="M0 0 C3 2.0625 3 2.0625 5 5 C5 7.31 5 9.62 5 12 C0.05 12 -4.9 12 -10 12 C-9.01 13.98 -8.02 15.96 -7 18 C-4.29266579 18.93597311 -4.29266579 18.93597311 -1.3125 18.875 C0.17830078 18.93300781 0.17830078 18.93300781 1.69921875 18.9921875 C2.45847656 18.99476563 3.21773437 18.99734375 4 19 C4 19.99 4 20.98 4 22 C0.28803409 23.85598295 -3.95882614 23.59092637 -8 23 C-11.0625 20.5625 -11.0625 20.5625 -13 18 C-13.33 17.67 -13.66 17.34 -14 17 C-14.53146616 11.80731428 -14.85321507 7.42202511 -12.125 2.875 C-8.41876847 -0.39520429 -4.81623156 -0.80117045 0 0 Z " fill="#808285" transform="translate(839,646)"/>
  <path d="M0 0 C3 2.0625 3 2.0625 5 5 C5 7.31 5 9.62 5 12 C0.05 12 -4.9 12 -10 12 C-9.01 13.98 -8.02 15.96 -7 18 C-4.29266579 18.93597311 -4.29266579 18.93597311 -1.3125 18.875 C0.17830078 18.93300781 0.17830078 18.93300781 1.69921875 18.9921875 C2.45847656 18.99476563 3.21773438 18.99734375 4 19 C4 19.99 4 20.98 4 22 C0.21309226 23.89345387 -3.89536491 23.74059165 -8 23 C-10.98164726 21.18762618 -12.56360136 19.16456575 -14 16 C-14.99567275 10.99052147 -14.80886946 7.32115344 -12.125 2.9375 C-8.44907849 -0.41407549 -4.84020651 -0.80515864 0 0 Z " fill="#7E7F82" transform="translate(498,646)"/>
  <path d="M0 0 C4.6 2.2 4.6 2.2 6 5 C6 7.31 6 9.62 6 12 C1.05 12 -3.9 12 -9 12 C-8.01 13.98 -7.02 15.96 -6 18 C-3.29266579 18.93597311 -3.29266579 18.93597311 -0.3125 18.875 C1.17830078 18.93300781 1.17830078 18.93300781 2.69921875 18.9921875 C3.45847656 18.99476563 4.21773437 18.99734375 5 19 C5 19.99 5 20.98 5 22 C0.88862574 23.37045809 -2.71732549 23.85944829 -7 23 C-9.91982151 21.16027506 -11.53747116 19.1127029 -13 16 C-14.00266071 10.99446901 -13.80650032 7.31728386 -11.125 2.9375 C-7.45699529 -0.40685724 -4.91549687 -0.33325402 0 0 Z " fill="#606165" transform="translate(720,646)"/>
  <path d="M0 0 C3 1.5 3 1.5 5 4 C5.41175039 6.80204162 5.23807011 9.14315872 5 12 C0.05 12 -4.9 12 -10 12 C-9.01 13.98 -8.02 15.96 -7 18 C-4.29266579 18.93597311 -4.29266579 18.93597311 -1.3125 18.875 C0.17830078 18.93300781 0.17830078 18.93300781 1.69921875 18.9921875 C2.45847656 18.99476563 3.21773437 18.99734375 4 19 C4 19.99 4 20.98 4 22 C0.53749757 23.73125121 -3.21408229 23.47815224 -7 23 C-10.46868763 20.93354779 -12.80891972 18.89808091 -14 15 C-14.42568872 9.63632209 -14.46490261 6.36321069 -11 2 C-7.29046926 -0.47302049 -4.30016077 -0.65255358 0 0 Z " fill="#77797D" transform="translate(907,646)"/>
  <path d="M0 0 C5.61 0 11.22 0 17 0 C17 0.99 17 1.98 17 3 C12.71 3 8.42 3 4 3 C4 6.3 4 9.6 4 13 C7.96 13 11.92 13 16 13 C16 13.99 16 14.98 16 16 C12.04 16 8.08 16 4 16 C4 19.63 4 23.26 4 27 C8.62 27 13.24 27 18 27 C18 27.99 18 28.98 18 30 C12.06 30 6.12 30 0 30 C0 20.1 0 10.2 0 0 Z " fill="#6C6E71" transform="translate(340,638)"/>
  <path d="M0 0 C7.59 0 15.18 0 23 0 C23 1.32 23 2.64 23 4 C20.03 4 17.06 4 14 4 C14 12.91 14 21.82 14 31 C12.35 31 10.7 31 9 31 C9 22.09 9 13.18 9 4 C6.03 4 3.06 4 0 4 C0 2.68 0 1.36 0 0 Z " fill="#888A8D" transform="translate(1005,638)"/>
  <path d="M0 0 C1.32 0 2.64 0 4 0 C4 0.66 4 1.32 4 2 C4.99 1.34 5.98 0.68 7 0 C13.95198903 -0.66209419 13.95198903 -0.66209419 17.23828125 1.4140625 C19.93290259 5.36936034 19.42912322 9.08590695 19.25 13.75 C19.23195313 14.63816406 19.21390625 15.52632812 19.1953125 16.44140625 C19.14827374 18.62870848 19.08257009 20.81379816 19 23 C17.35 23 15.7 23 14 23 C13.67 16.73 13.34 10.46 13 4 C6.6 4.2 6.6 4.2 5 6 C4.76321284 8.69235776 4.57801975 11.36498156 4.4375 14.0625 C4.39431641 14.82111328 4.35113281 15.57972656 4.30664062 16.36132812 C4.20026367 18.24065438 4.09960066 20.12030244 4 22 C2.68 22 1.36 22 0 22 C0 14.74 0 7.48 0 0 Z " fill="#7A7C7F" transform="translate(683,646)"/>
  <path d="M0 0 C2.82389468 2.02229922 4.72980551 3.57597066 5.39819336 7.09863281 C5.49200042 9.52185483 5.43673719 11.8908305 5.3125 14.3125 C5.28994141 15.14845703 5.26738281 15.98441406 5.24414062 16.84570312 C5.1855061 18.89791149 5.09583215 20.94919202 5 23 C3.35 23 1.7 23 0 23 C-0.06058594 21.71222656 -0.12117187 20.42445313 -0.18359375 19.09765625 C-0.26798247 17.41925841 -0.3526313 15.74087364 -0.4375 14.0625 C-0.47681641 13.21236328 -0.51613281 12.36222656 -0.55664062 11.48632812 C-0.61948242 10.27299805 -0.61948242 10.27299805 -0.68359375 9.03515625 C-0.72025146 8.2862915 -0.75690918 7.53742676 -0.79467773 6.76586914 C-0.81771063 4.97538674 -0.81771063 4.97538674 -2 4 C-4.45809998 3.7499227 -4.45809998 3.7499227 -7 4 C-10.02093215 7.02093215 -9.46676834 10.56372072 -9.625 14.625 C-9.66367187 15.42679688 -9.70234375 16.22859375 -9.7421875 17.0546875 C-9.83653931 19.03607556 -9.91936215 21.01800645 -10 23 C-11.32 23 -12.64 23 -14 23 C-14 15.74 -14 8.48 -14 1 C-13.01 1 -12.02 1 -11 1 C-11 1.66 -11 2.32 -11 3 C-10.34 3 -9.68 3 -9 3 C-9 2.34 -9 1.68 -9 1 C-5.86128812 -0.56935594 -3.46144178 -0.35201103 0 0 Z " fill="#88898C" transform="translate(552,646)"/>
  <path d="M0 0 C1.32 0 2.64 0 4 0 C4.33 5.94 4.66 11.88 5 18 C10.47825081 18.4472136 10.47825081 18.4472136 13 17 C13.33 11.39 13.66 5.78 14 0 C15.32 0 16.64 0 18 0 C18 7.26 18 14.52 18 22 C16.02 22 14.04 22 12 22 C11.34 22.33 10.68 22.66 10 23 C6.62539803 23.36680456 4.70743791 23.45767936 1.8203125 21.58984375 C-0.95420003 17.64241497 -0.43038008 13.94681975 -0.25 9.25 C-0.23195313 8.36183594 -0.21390625 7.47367188 -0.1953125 6.55859375 C-0.14827374 4.37129152 -0.08257009 2.18620184 0 0 Z " fill="#86888C" transform="translate(626,646)"/>
  <path d="M0 0 C1.32 0 2.64 0 4 0 C4.33 0.66 4.66 1.32 5 2 C5.66 1.34 6.32 0.68 7 0 C13.95573075 -0.67313523 13.95573075 -0.67313523 17.2421875 1.4453125 C19.87523063 5.27200184 19.43387156 8.72393076 19.25 13.25 C19.23195313 14.09046875 19.21390625 14.9309375 19.1953125 15.796875 C19.14830798 17.86507395 19.07656724 19.93268441 19 22 C17.68 22 16.36 22 15 22 C14.93941406 20.78441406 14.87882813 19.56882812 14.81640625 18.31640625 C14.73201668 16.73175772 14.6473679 15.14712298 14.5625 13.5625 C14.52318359 12.76005859 14.48386719 11.95761719 14.44335938 11.13085938 C14.5945704 7.24760439 14.5945704 7.24760439 13 4 C9.27775401 3.70613847 8.22213757 3.85190829 5 6 C4.61615491 8.93597539 4.396157 11.68027373 4.3125 14.625 C4.27833984 15.42679688 4.24417969 16.22859375 4.20898438 17.0546875 C4.12643122 19.03596318 4.06154084 21.01796037 4 23 C2.68 23 1.36 23 0 23 C0 15.41 0 7.82 0 0 Z " fill="#707275" transform="translate(947,646)"/>
  <path d="M0 0 C2.3125 1.5 2.3125 1.5 4 4 C4.60028545 8.72724791 4.64538729 10.85264482 2.3125 15 C0 17 0 17 -2.5 17.625 C-5 17 -5 17 -7.3125 15 C-9.64538729 10.85264482 -9.60028545 8.72724791 -9 4 C-6.51474505 0.31814082 -4.41199243 -0.88239849 0 0 Z " fill="#F4F4F5" transform="translate(439,649)"/>
  <path d="M0 0 C0.78503906 0.00644531 1.57007813 0.01289062 2.37890625 0.01953125 C4.4375 0.1875 4.4375 0.1875 6.4375 1.1875 C6.1075 2.1775 5.7775 3.1675 5.4375 4.1875 C2.4675 4.1875 -0.5025 4.1875 -3.5625 4.1875 C-3.8925 5.5075 -4.2225 6.8275 -4.5625 8.1875 C-3.325 8.455625 -2.0875 8.72375 -0.8125 9 C5.16557018 10.5369152 5.16557018 10.5369152 7.4375 13.1875 C8.03463581 16.69567286 7.84892544 18.47685606 6.0625 21.5625 C2.05990148 24.04029908 -1.96710183 23.67586113 -6.5625 23.1875 C-7.2225 22.8575 -7.8825 22.5275 -8.5625 22.1875 C-8.2325 20.8675 -7.9025 19.5475 -7.5625 18.1875 C-4.5925 18.5175 -1.6225 18.8475 1.4375 19.1875 C1.7675 17.8675 2.0975 16.5475 2.4375 15.1875 C1.72722656 14.83816406 1.01695312 14.48882813 0.28515625 14.12890625 C-0.63394531 13.67386719 -1.55304687 13.21882812 -2.5 12.75 C-3.41652344 12.29753906 -4.33304688 11.84507812 -5.27734375 11.37890625 C-7.5625 10.1875 -7.5625 10.1875 -8.5625 9.1875 C-8.3125 5.75 -8.3125 5.75 -7.5625 2.1875 C-4.404724 0.082316 -3.60852866 -0.06539344 0 0 Z " fill="#727477" transform="translate(658.5625,645.8125)"/>
  <path d="M0 0 C3.375 0.9375 3.375 0.9375 5.375 3.9375 C6.05105634 10.92341549 6.05105634 10.92341549 3.375 14.9375 C2.715 15.5975 2.055 16.2575 1.375 16.9375 C-4.0625 16.575 -4.0625 16.575 -6.5 13.8125 C-7.9031305 10.22672205 -8.11127126 7.75820277 -7.625 3.9375 C-5.3368323 0.27643167 -4.34846249 -0.07497349 0 0 Z " fill="#F3F4F5" transform="translate(1103.625,649.0625)"/>
  <path d="M0 0 C0.66 0.33 1.32 0.66 2 1 C1.67 1.99 1.34 2.98 1 4 C-1.97 4 -4.94 4 -8 4 C-8.33 5.32 -8.66 6.64 -9 8 C-8.38511719 8.18175781 -7.77023437 8.36351562 -7.13671875 8.55078125 C-6.32847656 8.80214844 -5.52023437 9.05351563 -4.6875 9.3125 C-3.48673828 9.67794922 -3.48673828 9.67794922 -2.26171875 10.05078125 C0.13804325 11.05793525 1.38227892 11.97912445 3 14 C3.5 16.4375 3.5 16.4375 3 19 C0.77811679 21.65192512 -0.85150125 22.87900431 -4.3359375 23.24609375 C-6.57183586 23.2496204 -8.77143936 23.17478907 -11 23 C-11.66 21.68 -12.32 20.36 -13 19 C-9.37 18.67 -5.74 18.34 -2 18 C-2 17.01 -2 16.02 -2 15 C-2.62648438 14.73445312 -3.25296875 14.46890625 -3.8984375 14.1953125 C-4.71570313 13.84210937 -5.53296875 13.48890625 -6.375 13.125 C-7.18710937 12.77695312 -7.99921875 12.42890625 -8.8359375 12.0703125 C-11 11 -11 11 -13 9 C-13.42151163 5.69815888 -13.62848726 3.81976599 -11.5625 1.125 C-7.77278337 -0.53877803 -4.08328401 -0.40990496 0 0 Z " fill="#7C7D81" transform="translate(764,646)"/>
  <path d="M0 0 C6.32597793 -0.35807422 6.32597793 -0.35807422 9 1.0625 C10.67367356 4.30524252 9.97555121 6.58557075 9 10 C5.29098862 12.89662468 2.45634476 13.38749377 -2.1875 13.3125 C-3.23292969 13.30863281 -4.27835938 13.30476562 -5.35546875 13.30078125 C-8 13 -8 13 -10 11 C-9.01 11 -8.02 11 -7 11 C-7.20625 10.05125 -7.4125 9.1025 -7.625 8.125 C-7.74875 7.09375 -7.8725 6.0625 -8 5 C-6 3 -6 3 -3.1796875 2.8046875 C-2.08914063 2.82789063 -0.99859375 2.85109375 0.125 2.875 C1.22070312 2.89304687 2.31640625 2.91109375 3.4453125 2.9296875 C4.28835938 2.95289063 5.13140625 2.97609375 6 3 C6 2.34 6 1.68 6 1 C4.02 1 2.04 1 0 1 C0 0.67 0 0.34 0 0 Z " fill="#7C7D81" transform="translate(982,665)"/>
  <path d="M0 0 C3.44277758 0.68855552 4.53221339 1.58476058 6.5 4.5 C7.20194375 8.30609501 6.95013189 11.44086615 5.4375 15 C3.5 16.5 3.5 16.5 0 17.0625 C-3.5 16.5 -3.5 16.5 -5.4375 14.4375 C-6.74224379 10.83026717 -6.98487873 8.30976148 -6.5 4.5 C-4.52547983 1.6479153 -3.40524375 0.68104875 0 0 Z " fill="#F6F6F7" transform="translate(1038.5,648.5)"/>
  <path d="M0 0 C2.32421875 0.05859375 2.32421875 0.05859375 5 1 C6.22126406 3.43951265 7.04460207 5.48689482 7.8125 8.0625 C8.02841797 8.72572266 8.24433594 9.38894531 8.46679688 10.07226562 C8.99663758 11.70888468 9.5008206 13.35377006 10 15 C12.52475462 12.47524538 13.04307871 10.26502003 14.125 6.875 C14.47820313 5.77929688 14.83140625 4.68359375 15.1953125 3.5546875 C15.46085938 2.71164062 15.72640625 1.86859375 16 1 C17.65 0.67 19.3 0.34 21 0 C19.42545856 4.84591879 17.67580423 9.61019264 15.875 14.375 C15.59785156 15.11105469 15.32070313 15.84710937 15.03515625 16.60546875 C14.35777777 18.40402539 13.67902967 20.2020661 13 22 C11.02 22 9.04 22 7 22 C6.66226563 20.96359375 6.32453125 19.9271875 5.9765625 18.859375 C5.52620263 17.4895304 5.07567286 16.11974166 4.625 14.75 C4.40328125 14.06808594 4.1815625 13.38617187 3.953125 12.68359375 C3.04680553 9.9379789 2.14470913 7.28553345 0.8359375 4.703125 C0 3 0 3 0 0 Z " fill="#828385" transform="translate(870,646)"/>
  <path d="M0 0 C2.13022317 1.59516712 2.90297396 2.48347903 3.3984375 5.12109375 C3.36335329 8.58858294 3.27644823 11.33327192 1.9375 14.5625 C-1.05637032 16.78375862 -3.39637228 16.45864353 -7 16 C-9.14553377 12.78169935 -9.29583868 11.73213493 -9.3125 8 C-9.32925781 7.13375 -9.34601563 6.2675 -9.36328125 5.375 C-9 3 -9 3 -7.66796875 1.2109375 C-5.08254851 -0.66606548 -3.09627067 -0.38703383 0 0 Z " fill="#F7F7F8" transform="translate(1166,649)"/>
  <path d="M0 0 C0.33 1.32 0.66 2.64 1 4 C4.63 4 8.26 4 12 4 C11.67 4.99 11.34 5.98 11 7 C7.7 7 4.4 7 1 7 C1 10.63 1 14.26 1 18 C3.3821875 17.8453125 3.3821875 17.8453125 5.8125 17.6875 C6.70582031 17.62949219 7.59914063 17.57148437 8.51953125 17.51171875 C11.34927505 16.92794483 12.28522227 16.2863703 14 14 C14.72197162 11.39388923 14.72197162 11.39388923 15 9 C15.99 9 16.98 9 18 9 C18.48828125 14.859375 18.48828125 14.859375 18 17 C15.13266382 20.17612623 13.51614704 20.94651326 9.23046875 21.390625 C7.88218655 21.36804742 6.53433071 21.31649563 5.1875 21.25 C2.815625 21.1675 0.44375 21.085 -2 21 C-2 14.4 -2 7.8 -2 1 C-1.34 0.67 -0.68 0.34 0 0 Z " fill="#6B6C70" transform="translate(602,647)"/>
  <path d="M0 0 C0.66 0.33 1.32 0.66 2 1 C2 1.99 2 2.98 2 4 C-0.97 4 -3.94 4 -7 4 C-7 5.32 -7 6.64 -7 8 C-6.37351562 8.26554688 -5.74703125 8.53109375 -5.1015625 8.8046875 C-3.87566406 9.33449219 -3.87566406 9.33449219 -2.625 9.875 C-1.81289063 10.22304688 -1.00078125 10.57109375 -0.1640625 10.9296875 C2 12 2 12 4 14 C3.86100363 17.26641464 3.5630768 19.296154 1.5 21.875 C-2.27407041 23.57333168 -5.92484671 23.235105 -10 23 C-10.66 21.68 -11.32 20.36 -12 19 C-8.7 19 -5.4 19 -2 19 C-1.67 17.35 -1.34 15.7 -1 14 C-1.70125 13.9175 -2.4025 13.835 -3.125 13.75 C-6.80497631 12.79000618 -9.11529734 11.48218601 -12 9 C-12.625 5.9375 -12.625 5.9375 -12 3 C-8.78760365 -1.01549544 -4.72616249 -0.30491371 0 0 Z " fill="#7D7F83" transform="translate(743,646)"/>
  <path d="M0 0 C2.27418573 1.67714413 2.93146894 2.55196902 3.36328125 5.375 C3.34652344 6.24125 3.32976562 7.1075 3.3125 8 C3.30863281 8.86625 3.30476563 9.7325 3.30078125 10.625 C3 13 3 13 1 16 C-1.1640625 16.29296875 -1.1640625 16.29296875 -3.625 16.1875 C-4.85089844 16.14689453 -4.85089844 16.14689453 -6.1015625 16.10546875 C-6.72804688 16.07066406 -7.35453125 16.03585937 -8 16 C-8.08075665 13.70890403 -8.13907731 11.41700733 -8.1875 9.125 C-8.22230469 7.84882812 -8.25710938 6.57265625 -8.29296875 5.2578125 C-8.19628906 4.18273437 -8.09960938 3.10765625 -8 2 C-4.76746204 -0.15502531 -3.74849077 -0.46856135 0 0 Z " fill="#F7F8F8" transform="translate(414,649)"/>
  <path d="M0 0 C1.65 0 3.3 0 5 0 C5 0.66 5 1.32 5 2 C5.99 1.34 6.98 0.68 8 0 C11.1875 -0.125 11.1875 -0.125 14 0 C14 1.32 14 2.64 14 4 C11.69 4 9.38 4 7 4 C7 4.66 7 5.32 7 6 C6.34 6 5.68 6 5 6 C5 11.28 5 16.56 5 22 C3.35 22 1.7 22 0 22 C0 14.74 0 7.48 0 0 Z " fill="#6B6D70" transform="translate(1136,646)"/>
  <path d="M0 0 C4.62 0 9.24 0 14 0 C14 17.82 14 35.64 14 54 C10.37 54 6.74 54 3 54 C3 53.67 3 53.34 3 53 C5.97 53 8.94 53 12 53 C12 36.17 12 19.34 12 2 C8.04 2 4.08 2 0 2 C0 1.34 0 0.68 0 0 Z " fill="#334662" transform="translate(1050,474)"/>
  <path d="M0 0 C2.9375 1.5 2.9375 1.5 5 3 C4.34 5.31 3.68 7.62 3 10 C-1.29 10 -5.58 10 -10 10 C-10.66 8.02 -11.32 6.04 -12 4 C-8.01662534 0.13733366 -5.51851799 -0.68981475 0 0 Z " fill="#76787B" transform="translate(720,646)"/>
  <path d="M0 0 C1.32 0 2.64 0 4 0 C4 10.89 4 21.78 4 33 C2.68 33 1.36 33 0 33 C0 22.11 0 11.22 0 0 Z " fill="#686A6D" transform="translate(850,635)"/>
  <path d="M0 0 C7.25867508 -0.61514196 7.25867508 -0.61514196 10.9375 2.4375 C11.618125 3.283125 12.29875 4.12875 13 5 C13.33 5.33 13.66 5.66 14 6 C14.53798008 10.08096316 14.93436984 14.24979978 12.953125 17.9609375 C11.18450419 20.09368613 9.48958097 21.75520951 7 23 C4.6670134 23.04022391 2.33293334 23.04320247 0 23 C0.66 22.34 1.32 21.68 2 21 C1.34 20.34 0.68 19.68 0 19 C1.134375 18.87625 2.26875 18.7525 3.4375 18.625 C4.613125 18.41875 5.78875 18.2125 7 18 C8.23184766 15.53630468 8.16732342 13.8105499 8.1875 11.0625 C8.20876953 9.74958984 8.20876953 9.74958984 8.23046875 8.41015625 C8.16663349 5.73755665 8.16663349 5.73755665 6 3 C6.33 2.34 6.66 1.68 7 1 C4.69 1 2.38 1 0 1 C0 0.67 0 0.34 0 0 Z " fill="#808184" transform="translate(408,646)"/>
  <path d="M0 0 C3.03080981 0.62416677 4.8271264 2.26072015 6.97265625 4.40625 C5.80224125 6.74708 4.78404882 8.4961977 2.97265625 10.40625 C0.2734375 10.796875 0.2734375 10.796875 -2.71484375 10.65625 C-3.70871094 10.62015625 -4.70257812 10.5840625 -5.7265625 10.546875 C-6.86544922 10.47726562 -6.86544922 10.47726562 -8.02734375 10.40625 C-8.68734375 8.42625 -9.34734375 6.44625 -10.02734375 4.40625 C-7.14716037 0.56600549 -4.80453326 -0.21553046 0 0 Z " fill="#7E8083" transform="translate(905.02734375,645.59375)"/>
  <path d="M0 0 C0.99 0 1.98 0 3 0 C3 0.99 3 1.98 3 3 C3.53625 2.505 4.0725 2.01 4.625 1.5 C7.59358445 -0.37489544 9.55312427 -0.23501425 13 0 C13 1.32 13 2.64 13 4 C11.865625 4.309375 10.73125 4.61875 9.5625 4.9375 C6.21224901 5.62924531 6.21224901 5.62924531 5 7 C4.76321284 9.69235776 4.57801975 12.36498156 4.4375 15.0625 C4.39431641 15.82111328 4.35113281 16.57972656 4.30664062 17.36132812 C4.20026367 19.24065438 4.09960066 21.12030244 4 23 C2.68 23 1.36 23 0 23 C0 15.41 0 7.82 0 0 Z " fill="#7C7E81" transform="translate(509,646)"/>
  <path d="M0 0 C1.32 0 2.64 0 4 0 C4.33 0.66 4.66 1.32 5 2 C5.66 1.34 6.32 0.68 7 0 C10.125 -0.125 10.125 -0.125 13 0 C13 1.32 13 2.64 13 4 C11.865625 4.309375 10.73125 4.61875 9.5625 4.9375 C6.21224901 5.62924531 6.21224901 5.62924531 5 7 C4.76346477 9.52596259 4.57826308 12.03107207 4.4375 14.5625 C4.39431641 15.27341797 4.35113281 15.98433594 4.30664062 16.71679688 C4.20028223 18.47761912 4.09961154 20.2387832 4 22 C2.68 22 1.36 22 0 22 C0 14.74 0 7.48 0 0 Z " fill="#88898D" transform="translate(1119,646)"/>
  <path d="M0 0 C1.32 0 2.64 0 4 0 C4.33 0.99 4.66 1.98 5 3 C5.391875 2.505 5.78375 2.01 6.1875 1.5 C8.55091715 -0.45593143 10.01435003 -0.24207973 13 0 C13 1.32 13 2.64 13 4 C11.865625 4.28875 10.73125 4.5775 9.5625 4.875 C8.386875 5.24625 7.21125 5.6175 6 6 C4.5192152 8.9615696 4.64685963 11.83506295 4.4375 15.125 C4.35371094 16.40632812 4.26992188 17.68765625 4.18359375 19.0078125 C4.09271484 20.48894531 4.09271484 20.48894531 4 22 C2.68 22 1.36 22 0 22 C0 14.74 0 7.48 0 0 Z " fill="#7A7C7F" transform="translate(918,646)"/>
  <path d="M0 0 C0.66 0 1.32 0 2 0 C2.226875 0.94875 2.45375 1.8975 2.6875 2.875 C3.69083714 6.19323388 3.69083714 6.19323388 6.625 7.375 C7.40875 7.58125 8.1925 7.7875 9 8 C9 8.33 9 8.66 9 9 C7.35 9.33 5.7 9.66 4 10 C3.67 11.32 3.34 12.64 3 14 C6.96 14.33 10.92 14.66 15 15 C15 15.66 15 16.32 15 17 C11.04 17.33 7.08 17.66 3 18 C1.93462795 22.47702364 1.93462795 22.47702364 2 25 C0.68 25 -0.64 25 -2 25 C-2.125 18.375 -2.125 18.375 -1 15 C-0.10347834 9.91971061 0.09010093 5.13575292 0 0 Z " fill="#727376" transform="translate(973,651)"/>
  <path d="M0 0 C1.79133978 -0.05391993 3.58313899 -0.09275571 5.375 -0.125 C6.37273438 -0.14820313 7.37046875 -0.17140625 8.3984375 -0.1953125 C11 0 11 0 13 2 C13.4375 4.875 13.4375 4.875 13 8 C10.27530583 10.80542585 8.6411221 11.90939831 4.73828125 12.4609375 C3.60777344 12.43257812 2.47726562 12.40421875 1.3125 12.375 C0.17425781 12.36210938 -0.96398437 12.34921875 -2.13671875 12.3359375 C-5 12 -5 12 -7 10 C-7.125 7.375 -7.125 7.375 -7 5 C-6.34 4.67 -5.68 4.34 -5 4 C-4.34 5.32 -3.68 6.64 -3 8 C0.96 8 4.92 8 9 8 C8.67 6.35 8.34 4.7 8 3 C5.36 2.67 2.72 2.34 0 2 C0 1.34 0 0.68 0 0 Z " fill="#6E7073" transform="translate(569,666)"/>
  <path d="M0 0 C2.475 0.495 2.475 0.495 5 1 C5.66 0.67 6.32 0.34 7 0 C9.3329866 -0.04022391 11.66706666 -0.04320247 14 0 C11.63672401 2.73642483 9.36305523 3.76097965 6 5 C3.94077598 7.05922402 4.58572421 11.21708124 4.4375 14.0625 C4.39431641 14.82111328 4.35113281 15.57972656 4.30664062 16.36132812 C4.20026367 18.24065438 4.09960066 20.12030244 4 22 C2.68 22 1.36 22 0 22 C0 14.74 0 7.48 0 0 Z " fill="#75777B" transform="translate(1055,646)"/>
  <path d="M0 0 C1.60875 -0.04125 3.2175 -0.0825 4.875 -0.125 C5.77992188 -0.14820313 6.68484375 -0.17140625 7.6171875 -0.1953125 C10 0 10 0 12 2 C12.35928679 4.80243693 12.48891217 6.34292696 10.7734375 8.6484375 C8.47822234 10.39765434 7.16269248 10.31142141 4.3125 10.1875 C2.889375 10.125625 1.46625 10.06375 0 10 C0 6.7 0 3.4 0 0 Z " fill="#F9F9FA" transform="translate(604,655)"/>
  <path d="M0 0 C0.69287109 0.01804687 1.38574219 0.03609375 2.09960938 0.0546875 C3.79617664 0.10148936 5.49202476 0.17322376 7.1875 0.25 C7.1875 1.24 7.1875 2.23 7.1875 3.25 C6.1975 3.25 5.2075 3.25 4.1875 3.25 C4.435 4.3225 4.6825 5.395 4.9375 6.5 C5.1875 10.25 5.1875 10.25 3.6875 12.75 C0.22127718 14.82973369 -1.9725901 14.13613305 -5.8125 13.25 C-5.8125 12.92 -5.8125 12.59 -5.8125 12.25 C-3.8325 11.59 -1.8525 10.93 0.1875 10.25 C0.230221 8.58388095 0.22813832 6.91617115 0.1875 5.25 C-0.90881369 3.92868182 -0.90881369 3.92868182 -3.625 4.125 C-6.24085942 4.22758272 -8.3318362 4.48671883 -10.8125 5.25 C-11.1425 7.23 -11.4725 9.21 -11.8125 11.25 C-12.1425 11.25 -12.4725 11.25 -12.8125 11.25 C-13.125 8 -13.125 8 -12.8125 4.25 C-8.94638329 0.02701098 -5.44708 -0.27105087 0 0 Z " fill="#7A7C7E" transform="translate(574.8125,645.75)"/>
  <path d="M0 0 C8.92674617 -0.76660988 8.92674617 -0.76660988 12.625 1.875 C15.00444204 7.28282282 14.86319322 12.51197248 12.9375 18.0625 C10.19652236 20.80347764 7.7756892 20.78628174 4 21 C4.825 20.01 5.65 19.02 6.5 18 C9.50031768 13.80637415 9.67683719 11.07627891 9 6 C8.01951062 3.93597315 8.01951062 3.93597315 6 3 C2.89160979 2.2730774 2.89160979 2.2730774 0 2 C0 1.34 0 0.68 0 0 Z " fill="#727377" transform="translate(1099,647)"/>
  <path d="M0 0 C1.65 0 3.3 0 5 0 C5 7.26 5 14.52 5 22 C3.35 22 1.7 22 0 22 C0 14.74 0 7.48 0 0 Z " fill="#7D7F82" transform="translate(671,646)"/>
  <path d="M0 0 C2.475 0.495 2.475 0.495 5 1 C5 7.93 5 14.86 5 22 C3.35 22 1.7 22 0 22 C0 14.74 0 7.48 0 0 Z " fill="#898B8E" transform="translate(526,646)"/>
  <path d="M0 0 C1.32 0 2.64 0 4 0 C3.3146345 4.99450259 1.97984349 9.5967594 0.4375 14.375 C0.08655273 15.47908203 0.08655273 15.47908203 -0.27148438 16.60546875 C-0.8440028 18.40481238 -1.42149314 20.20257277 -2 22 C-3.65 22 -5.3 22 -7 22 C-9.42857143 14.57142857 -9.42857143 14.57142857 -8 11 C-6.68 12.32 -5.36 13.64 -4 15 C-2.68 10.05 -1.36 5.1 0 0 Z " fill="#6D6F73" transform="translate(477,646)"/>
  <path d="M0 0 C1.258125 -0.04125 2.51625 -0.0825 3.8125 -0.125 C4.52019531 -0.14820313 5.22789062 -0.17140625 5.95703125 -0.1953125 C8 0 8 0 11 2 C11.375 5 11.375 5 11 8 C7.91111478 10.05925681 7.29064073 10.2390374 3.8125 10.125 C1.9253125 10.063125 1.9253125 10.063125 0 10 C0 6.7 0 3.4 0 0 Z " fill="#F3F4F5" transform="translate(604,641)"/>
  <path d="M0 0 C3 1 3 1 4 3 C4.08308638 4.37548156 4.10736016 5.75485796 4.09765625 7.1328125 C4.09282227 8.34130859 4.09282227 8.34130859 4.08789062 9.57421875 C4.07951172 10.41597656 4.07113281 11.25773438 4.0625 12.125 C4.05798828 12.97449219 4.05347656 13.82398438 4.04882812 14.69921875 C4.03702874 16.79950909 4.01909306 18.8997633 4 21 C2.35 21 0.7 21 -1 21 C-1.02888146 17.68751813 -1.04675799 14.37506833 -1.0625 11.0625 C-1.07087891 10.11697266 -1.07925781 9.17144531 -1.08789062 8.19726562 C-1.09111328 7.29814453 -1.09433594 6.39902344 -1.09765625 5.47265625 C-1.10289307 4.64000244 -1.10812988 3.80734863 -1.11352539 2.94946289 C-1 1 -1 1 0 0 Z " fill="#88898B" transform="translate(553,648)"/>
  <path d="M0 0 C1.32 0 2.64 0 4 0 C4 1.32 4 2.64 4 4 C4.66 4.33 5.32 4.66 6 5 C5.67 5.33 5.34 5.66 5 6 C4.76298761 8.85877909 4.57780818 11.69883297 4.4375 14.5625 C4.39431641 15.36880859 4.35113281 16.17511719 4.30664062 17.00585938 C4.20024738 19.00368805 4.09959112 21.0018207 4 23 C2.68 23 1.36 23 0 23 C0 15.41 0 7.82 0 0 Z " fill="#777A7C" transform="translate(947,646)"/>
  <path d="M0 0 C3.875 1.875 3.875 1.875 5 3 C5.04092937 5.33297433 5.04241723 7.66705225 5 10 C3.02 10.99 3.02 10.99 1 12 C1 12.66 1 13.32 1 14 C2.32 14.66 3.64 15.32 5 16 C4.34 16.33 3.68 16.66 3 17 C3 18.65 3 20.3 3 22 C2.690625 21.360625 2.38125 20.72125 2.0625 20.0625 C1.1654837 18.06389179 1.1654837 18.06389179 0 17 C-1.68183948 16.76712992 -3.3712416 16.58735834 -5.0625 16.4375 C-6.691875 16.293125 -8.32125 16.14875 -10 16 C-10 19.3 -10 22.6 -10 26 C-10.33 26 -10.66 26 -11 26 C-11 22.37 -11 18.74 -11 15 C-7.7 14.67 -4.4 14.34 -1 14 C-1.33 13.01 -1.66 12.02 -2 11 C-1.34 10.67 -0.68 10.34 0 10 C0.16681109 7.08347826 0.16681109 7.08347826 0 4 C-0.66 3.34 -1.32 2.68 -2 2 C-1.34 1.34 -0.68 0.68 0 0 Z " fill="#838588" transform="translate(614,639)"/>
  <path d="M0 0 C1.32 0.33 2.64 0.66 4 1 C3.67 1.99 3.34 2.98 3 4 C2.52820511 9.90867969 2.52820511 9.90867969 5 15 C8.05908413 15.81584568 8.05908413 15.81584568 11 16 C11 16.33 11 16.66 11 17 C9.02 17 7.04 17 5 17 C5 17.66 5 18.32 5 19 C7.64 19 10.28 19 13 19 C13 19.33 13 19.66 13 20 C9.07077485 20.55009152 5.5367694 20.95931666 2.06640625 18.79296875 C-1.28600193 15.36016709 -2.38048654 12.54459893 -2.5 7.75 C-2.36619934 4.15968217 -2.06848355 3.10272532 0 0 Z " fill="#6D6F73" transform="translate(1030,649)"/>
  <path d="M0 0 C8.79194631 -0.60402685 8.79194631 -0.60402685 12.625 1.3125 C14.88297347 5.72581178 14.60325499 10.15241527 14 15 C12.6875 18.125 12.6875 18.125 11 20 C10.01 20.33 9.02 20.66 8 21 C8 18 8 18 8.48046875 16.09765625 C9.39210114 12.4168548 9.51302938 8.75509005 9 5 C6.49153512 2.02700459 3.77381819 1.52414142 0 1 C0 0.67 0 0.34 0 0 Z " fill="#69696D" transform="translate(1159,647)"/>
  <path d="M0 0 C1.32 0 2.64 0 4 0 C4 1.32 4 2.64 4 4 C4.66 4.33 5.32 4.66 6 5 C5.67 5.33 5.34 5.66 5 6 C4.76321284 8.69235776 4.57801975 11.36498156 4.4375 14.0625 C4.39431641 14.82111328 4.35113281 15.57972656 4.30664062 16.36132812 C4.20026367 18.24065438 4.09960066 20.12030244 4 22 C2.68 22 1.36 22 0 22 C0 14.74 0 7.48 0 0 Z " fill="#7F8082" transform="translate(363,646)"/>
  <path d="M0 0 C1.32 0 2.64 0 4 0 C4 7.26 4 14.52 4 22 C2.68 22 1.36 22 0 22 C0 14.74 0 7.48 0 0 Z " fill="#7B7D80" transform="translate(861,646)"/>
  <path d="M0 0 C1.32 0 2.64 0 4 0 C4 7.26 4 14.52 4 22 C2.68 22 1.36 22 0 22 C0 14.74 0 7.48 0 0 Z " fill="#77777A" transform="translate(936,646)"/>
  <path d="M0 0 C3 2.0625 3 2.0625 5 5 C5 7.31 5 9.62 5 12 C0.38 12 -4.24 12 -9 12 C-9 11.34 -9 10.68 -9 10 C-5.7 10 -2.4 10 1 10 C0.67 8.35 0.34 6.7 0 5 C-3.3 4.34 -6.6 3.68 -10 3 C-10 2.34 -10 1.68 -10 1 C-6.77061633 -0.61469184 -3.49143247 -0.58079278 0 0 Z " fill="#6B6C70" transform="translate(839,646)"/>
  <path d="M0 0 C1.65322266 0.01740234 1.65322266 0.01740234 3.33984375 0.03515625 C4.99693359 0.04869141 4.99693359 0.04869141 6.6875 0.0625 C7.54214844 0.07410156 8.39679687 0.08570313 9.27734375 0.09765625 C9.90234375 1.97265625 9.90234375 1.97265625 10.27734375 4.09765625 C8.27734375 6.09765625 8.27734375 6.09765625 5.67578125 6.29296875 C4.67804687 6.26976562 3.6803125 6.2465625 2.65234375 6.22265625 C1.14800781 6.19558594 1.14800781 6.19558594 -0.38671875 6.16796875 C-1.15757812 6.14476562 -1.9284375 6.1215625 -2.72265625 6.09765625 C-3.10484392 4.44150968 -3.43660727 2.77308601 -3.72265625 1.09765625 C-2.72265625 0.09765625 -2.72265625 0.09765625 0 0 Z " fill="#F3F3F4" transform="translate(977.72265625,668.90234375)"/>
  <path d="M0 0 C3 0.25 3 0.25 5 2.25 C5.25 4.75 5.25 4.75 5 7.25 C3 9.25 3 9.25 0 9.5 C-3 9.25 -3 9.25 -5 7.25 C-5.25 4.75 -5.25 4.75 -5 2.25 C-3 0.25 -3 0.25 0 0 Z " fill="#F1F2F3" transform="translate(571,648.75)"/>
  <path d="M0 0 C7.12208505 -0.60356653 7.12208505 -0.60356653 11 2.0625 C13 5 13 5 13 12 C8.38 12 3.76 12 -1 12 C-1 11.34 -1 10.68 -1 10 C2.3 10 5.6 10 9 10 C8.53146378 7.00594421 8.53146378 7.00594421 7 4 C3.47548841 2.53977565 3.47548841 2.53977565 0 2 C0 1.34 0 0.68 0 0 Z " fill="#6A6B6E" transform="translate(490,646)"/>
  <path d="M0 0 C1.32 0 2.64 0 4 0 C2.42545856 4.84591879 0.67580423 9.61019264 -1.125 14.375 C-1.54072266 15.47908203 -1.54072266 15.47908203 -1.96484375 16.60546875 C-2.64222223 18.40402539 -3.32097033 20.2020661 -4 22 C-5.65 22 -7.3 22 -9 22 C-9 21.34 -9 20.68 -9 20 C-7.68 20 -6.36 20 -5 20 C-5.0825 19.0925 -5.165 18.185 -5.25 17.25 C-5.28504102 11.57335529 -3.05015435 6.22007172 -1 1 C-0.67 0.67 -0.34 0.34 0 0 Z " fill="#6D6F72" transform="translate(887,646)"/>
  <path d="M0 0 C3.5 0.125 3.5 0.125 4.5 1.125 C4.625 4.625 4.625 4.625 4.5 8.125 C3.5 9.125 3.5 9.125 0 9.25 C-3.5 9.125 -3.5 9.125 -4.5 8.125 C-4.625 4.625 -4.625 4.625 -4.5 1.125 C-3.5 0.125 -3.5 0.125 0 0 Z " fill="#F5F5F6" transform="translate(980.5,648.875)"/>
  <path d="M0 0 C4.29 0 8.58 0 13 0 C13 1.65 13 3.3 13 5 C10.49860398 6.25069801 8.72607309 6.13302467 5.9375 6.125 C4.58978516 6.12886719 4.58978516 6.12886719 3.21484375 6.1328125 C1 6 1 6 0 5 C0 3.35 0 1.7 0 0 Z " fill="#F6F7F8" transform="translate(565,669)"/>
  <path d="M0 0 C1.65 0.33 3.3 0.66 5 1 C5.33 3.31 5.66 5.62 6 8 C5.01 8.66 4.02 9.32 3 10 C3 8.35 3 6.7 3 5 C2.34 5 1.68 5 1 5 C0.7834375 6.546875 0.7834375 6.546875 0.5625 8.125 C0.08339543 11.42549813 -0.43875083 14.71268341 -1 18 C-1.99 17.34 -2.98 16.68 -4 16 C-3.71515154 14.26969709 -3.42180062 12.54079286 -3.125 10.8125 C-2.96257812 9.84957031 -2.80015625 8.88664063 -2.6328125 7.89453125 C-2.01960483 5.08967396 -1.14333657 2.62775253 0 0 Z " fill="#7E8083" transform="translate(1190,646)"/>
  <path d="M0 0 C1.65 0 3.3 0 5 0 C5.53394179 1.4117783 6.05165104 2.82970244 6.5625 4.25 C6.85253906 5.03890625 7.14257812 5.8278125 7.44140625 6.640625 C8.04522837 9.19103452 7.8473932 10.55322229 7 13 C6.01 13 5.02 13 4 13 C3.71125 12.195625 3.4225 11.39125 3.125 10.5625 C2.26737432 7.8673532 2.26737432 7.8673532 0 7 C-0.66 7.99 -1.32 8.98 -2 10 C-1.54177532 6.53058454 -1.10868317 3.32604951 0 0 Z " fill="#818387" transform="translate(463,646)"/>
  <path d="M0 0 C1.65 0 3.3 0 5 0 C5 0.66 5 1.32 5 2 C5.99 1.34 6.98 0.68 8 0 C11.1875 -0.125 11.1875 -0.125 14 0 C14 1.32 14 2.64 14 4 C11.69 4 9.38 4 7 4 C6.67 4.66 6.34 5.32 6 6 C5.34 5.67 4.68 5.34 4 5 C4 3.68 4 2.36 4 1 C3.01 1 2.02 1 1 1 C1 7.93 1 14.86 1 22 C0.67 22 0.34 22 0 22 C0 14.74 0 7.48 0 0 Z " fill="#9B9D9F" transform="translate(1136,646)"/>
  <path d="M0 0 C2.475 0.495 2.475 0.495 5 1 C5.53251766 2.91345327 6.05059483 4.8309295 6.5625 6.75 C6.85253906 7.81734375 7.14257812 8.8846875 7.44140625 9.984375 C7.97098494 12.84335927 7.98370862 14.31597383 7 17 C6.67 16.01 6.34 15.02 6 14 C5.01 14.495 5.01 14.495 4 15 C3.32779649 13.06441401 2.66241923 11.12645628 2 9.1875 C1.62875 8.10855469 1.2575 7.02960937 0.875 5.91796875 C0 3 0 3 0 0 Z " fill="#828488" transform="translate(450,646)"/>
  <path d="M0 0 C0.66 0 1.32 0 2 0 C2.92188461 2.76565382 3.11785222 4.38283702 3.09765625 7.23046875 C3.09282227 8.43413086 3.09282227 8.43413086 3.08789062 9.66210938 C3.07532227 10.91217773 3.07532227 10.91217773 3.0625 12.1875 C3.05798828 13.03248047 3.05347656 13.87746094 3.04882812 14.74804688 C3.03705403 16.83206155 3.0191189 18.91603977 3 21 C2.01 21 1.02 21 0 21 C0 14.07 0 7.14 0 0 Z " fill="#6F7275" transform="translate(1120,647)"/>
  <path d="M0 0 C0.99 0 1.98 0 3 0 C3 6.93 3 13.86 3 21 C2.01 21 1.02 21 0 21 C0 14.07 0 7.14 0 0 Z " fill="#626467" transform="translate(641,647)"/>
  <path d="M0 0 C0.56654297 0.72123047 0.56654297 0.72123047 1.14453125 1.45703125 C3.64531405 3.53662958 5.47306804 3.49841577 8.6875 3.6875 C9.68136719 3.75324219 10.67523437 3.81898438 11.69921875 3.88671875 C12.45847656 3.92410156 13.21773437 3.96148438 14 4 C14 4.99 14 5.98 14 7 C9.96611266 8.34462911 6.21792911 8.57232124 2 8 C-0.125 6.25 -0.125 6.25 -1 4 C-0.6875 1.75 -0.6875 1.75 0 0 Z " fill="#757679" transform="translate(711,661)"/>
  <path d="M0 0 C0.99 0 1.98 0 3 0 C3 0.66 3 1.32 3 2 C3.66 2 4.32 2 5 2 C5 1.34 5 0.68 5 0 C7.64 0 10.28 0 13 0 C13 0.66 13 1.32 13 2 C10.03 2.66 7.06 3.32 4 4 C4 8.29 4 12.58 4 17 C3.67 17 3.34 17 3 17 C3 13.37 3 9.74 3 6 C2.34 6 1.68 6 1 6 C0.67 7.32 0.34 8.64 0 10 C0 6.7 0 3.4 0 0 Z " fill="#6F7074" transform="translate(402,647)"/>
  <path d="M0 0 C3.625 0.375 3.625 0.375 7 1 C7.33 2.65 7.66 4.3 8 6 C4.37 6 0.74 6 -3 6 C-2 2 -2 2 0 0 Z " fill="#F3F4F4" transform="translate(832,649)"/>
  <path d="M0 0 C3.0625 0.1875 3.0625 0.1875 5.0625 2.1875 C5.0625 3.5075 5.0625 4.8275 5.0625 6.1875 C1.4325 6.1875 -2.1975 6.1875 -5.9375 6.1875 C-3.55322052 0.22680131 -3.55322052 0.22680131 0 0 Z " fill="#F5F6F6" transform="translate(716.9375,648.8125)"/>
  <path d="M0 0 C3.0625 0.1875 3.0625 0.1875 5.0625 2.1875 C5.0625 3.5075 5.0625 4.8275 5.0625 6.1875 C1.7625 6.1875 -1.5375 6.1875 -4.9375 6.1875 C-3.87127483 0.24710265 -3.87127483 0.24710265 0 0 Z " fill="#F2F3F4" transform="translate(902.9375,648.8125)"/>
  <path d="M0 0 C2.9375 0.1875 2.9375 0.1875 3.9375 1.1875 C3.9375 2.8375 3.9375 4.4875 3.9375 6.1875 C0.6375 6.1875 -2.6625 6.1875 -6.0625 6.1875 C-4.58581606 0.28076425 -4.58581606 0.28076425 0 0 Z " fill="#F5F5F6" transform="translate(494.0625,648.8125)"/>
  <path d="M0 0 C0.66 0.33 1.32 0.66 2 1 C1.67 1.99 1.34 2.98 1 4 C0.37351562 3.96519531 -0.25296875 3.93039062 -0.8984375 3.89453125 C-1.71570313 3.86746094 -2.53296875 3.84039063 -3.375 3.8125 C-4.59316406 3.76029297 -4.59316406 3.76029297 -5.8359375 3.70703125 C-6.55007813 3.80371094 -7.26421875 3.90039062 -8 4 C-8.99 5.485 -8.99 5.485 -10 7 C-10.33 6.34 -10.66 5.68 -11 5 C-11.66 6.32 -12.32 7.64 -13 9 C-13.47792208 3.62337662 -13.47792208 3.62337662 -11.5625 1.125 C-7.77278337 -0.53877803 -4.08328401 -0.40990496 0 0 Z " fill="#7C7D80" transform="translate(764,646)"/>
  <path d="M0 0 C0.99 0 1.98 0 3 0 C3.02690844 2.62506802 3.04679404 5.24986173 3.0625 7.875 C3.07087891 8.62136719 3.07925781 9.36773438 3.08789062 10.13671875 C3.11328125 15.7734375 3.11328125 15.7734375 2 18 C1.34 18 0.68 18 0 18 C0 12.06 0 6.12 0 0 Z " fill="#6B6D70" transform="translate(626,647)"/>
  <path d="M0 0 C0.66 0.33 1.32 0.66 2 1 C2 6.28 2 11.56 2 17 C1.01 17 0.02 17 -1 17 C-1.02684679 14.35409986 -1.04676357 11.70846904 -1.0625 9.0625 C-1.07087891 8.30775391 -1.07925781 7.55300781 -1.08789062 6.77539062 C-1.09652441 4.85005687 -1.05224333 2.92464419 -1 1 C-0.67 0.67 -0.34 0.34 0 0 Z " fill="#6D6E70" transform="translate(539,651)"/>
  <path d="M0 0 C0.66 0.33 1.32 0.66 2 1 C2 2.98 2 4.96 2 7 C-2.95 7 -7.9 7 -13 7 C-13.33 5.35 -13.66 3.7 -14 2 C-13.67 2.99 -13.34 3.98 -13 5 C-11.20739868 4.94004678 -9.41574205 4.8512759 -7.625 4.75 C-6.62726562 4.70359375 -5.62953125 4.6571875 -4.6015625 4.609375 C-1.8473523 4.27839115 -1.8473523 4.27839115 -0.6484375 1.953125 C-0.43445313 1.30859375 -0.22046875 0.6640625 0 0 Z " fill="#5A5C5F" transform="translate(910,651)"/>
  <path d="M0 0 C0 5.61 0 11.22 0 17 C-0.99 17 -1.98 17 -3 17 C-3 11.72 -3 6.44 -3 1 C-1 0 -1 0 0 0 Z " fill="#5E6064" transform="translate(965,651)"/>
  <path d="M0 0 C0.33 0 0.66 0 1 0 C1.33 2.64 1.66 5.28 2 8 C2.99 8.33 3.98 8.66 5 9 C6.75 11.4375 6.75 11.4375 8 14 C7.67 14.66 7.34 15.32 7 16 C9.64 16 12.28 16 15 16 C15 16.33 15 16.66 15 17 C11.16652195 17.46001737 7.60718622 17.78898233 4.06640625 16.05078125 C1.19236081 13.64540509 0.11649359 11.91315946 -0.36328125 8.15234375 C-0.37390709 5.40733461 -0.26245425 2.73146832 0 0 Z " fill="#838487" transform="translate(426,652)"/>
  <path d="M0 0 C0.66 0.33 1.32 0.66 2 1 C2 1.99 2 2.98 2 4 C1.37351562 3.96519531 0.74703125 3.93039062 0.1015625 3.89453125 C-0.71570313 3.86746094 -1.53296875 3.84039063 -2.375 3.8125 C-3.59316406 3.76029297 -3.59316406 3.76029297 -4.8359375 3.70703125 C-5.55007813 3.80371094 -6.26421875 3.90039062 -7 4 C-7.99 5.485 -7.99 5.485 -9 7 C-9.33 6.01 -9.66 5.02 -10 4 C-10.33 5.65 -10.66 7.3 -11 9 C-11.33 9 -11.66 9 -12 9 C-12.48 3.6 -12.48 3.6 -10.5 1.125 C-6.82909094 -0.52690908 -4.01673077 -0.25914392 0 0 Z " fill="#787B7E" transform="translate(743,646)"/>
  <path d="M0 0 C1.50433594 0.01353516 1.50433594 0.01353516 3.0390625 0.02734375 C3.80992187 0.03894531 4.58078125 0.05054688 5.375 0.0625 C5.375 1.0525 5.375 2.0425 5.375 3.0625 C3.00886544 4.24556728 1.50719264 4.19604608 -1.125 4.1875 C-1.9190625 4.19007813 -2.713125 4.19265625 -3.53125 4.1953125 C-5.625 4.0625 -5.625 4.0625 -7.625 3.0625 C-7.625 2.4025 -7.625 1.7425 -7.625 1.0625 C-4.98041621 -0.25979189 -2.94738699 -0.03427194 0 0 Z " fill="#84868A" transform="translate(905.625,664.9375)"/>
  <path d="M0 0 C3.96 0 7.92 0 12 0 C12 0.33 12 0.66 12 1 C9.03 1 6.06 1 3 1 C3 1.66 3 2.32 3 3 C5.64 3 8.28 3 11 3 C11 3.33 11 3.66 11 4 C7.04 4 3.08 4 -1 4 C-1.33 5.32 -1.66 6.64 -2 8 C-2.33 7.34 -2.66 6.68 -3 6 C-3.66 7.32 -4.32 8.64 -5 10 C-5 8.02 -5 6.04 -5 4 C-4.360625 3.71125 -3.72125 3.4225 -3.0625 3.125 C-0.84793921 2.17176549 -0.84793921 2.17176549 0 0 Z " fill="#818487" transform="translate(566,665)"/>
  <path d="M0 0 C0.33 0 0.66 0 1 0 C2.56154748 9.68581477 2.56154748 9.68581477 0 14 C-2.95664519 15.4783226 -5.74229737 15.06032783 -9 15 C-8.34 14.34 -7.68 13.68 -7 13 C-7.66 12.34 -8.32 11.68 -9 11 C-5.535 10.505 -5.535 10.505 -2 10 C-1.34 6.7 -0.68 3.4 0 0 Z " fill="#828487" transform="translate(417,654)"/>
  <path d="M0 0 C0.680625 0.598125 1.36125 1.19625 2.0625 1.8125 C5.31674834 4.23587643 8.23936225 5.5252401 12 7 C11.67 7.66 11.34 8.32 11 9 C9.54077307 8.88590407 8.08259402 8.75834456 6.625 8.625 C5.81289063 8.55539062 5.00078125 8.48578125 4.1640625 8.4140625 C2 8 2 8 0 6 C-0.125 2.875 -0.125 2.875 0 0 Z " fill="#6E6E72" transform="translate(752,650)"/>
  <path d="M0 0 C7.59 0 15.18 0 23 0 C23 0.99 23 1.98 23 3 C17.39 2.34 11.78 1.68 6 1 C6 1.66 6 2.32 6 3 C4.02 3 2.04 3 0 3 C0 2.01 0 1.02 0 0 Z " fill="#74777B" transform="translate(1005,638)"/>
  <path d="M0 0 C3.35328279 3.35328279 3.41390992 6.46557392 3.59375 10.9765625 C3.83208871 13.3983681 3.83208871 13.3983681 7 15 C7 15.66 7 16.32 7 17 C5.35 17 3.7 17 2 17 C0.30167391 11.16200408 -0.25287193 6.06892629 0 0 Z " fill="#6E7073" transform="translate(1194,651)"/>
  <path d="M0 0 C0 2 0 4 0 6 C-7.50769231 6.36923077 -7.50769231 6.36923077 -10 4.5 C-10.33 4.005 -10.66 3.51 -11 3 C-7.34535987 0.56357324 -5.29831033 0.92040166 -1 1 C-0.67 0.67 -0.34 0.34 0 0 Z " fill="#878A8E" transform="translate(1167,663)"/>
  <path d="M0 0 C0.99 0.495 0.99 0.495 2 1 C2 2.98 2 4.96 2 7 C2.66 7 3.32 7 4 7 C4.33 6.01 4.66 5.02 5 4 C5.33 4 5.66 4 6 4 C6 6.31 6 8.62 6 11 C4.02 11 2.04 11 0 11 C0 7.37 0 3.74 0 0 Z " fill="#717276" transform="translate(1182,657)"/>
  <path d="M0 0 C0.69287109 0.01804687 1.38574219 0.03609375 2.09960938 0.0546875 C3.79617664 0.10148936 5.49202476 0.17322376 7.1875 0.25 C7.1875 0.58 7.1875 0.91 7.1875 1.25 C2.7325 1.745 2.7325 1.745 -1.8125 2.25 C-1.8125 2.58 -1.8125 2.91 -1.8125 3.25 C-4.7825 3.91 -7.7525 4.57 -10.8125 5.25 C-11.1425 7.23 -11.4725 9.21 -11.8125 11.25 C-12.1425 11.25 -12.4725 11.25 -12.8125 11.25 C-13.125 8 -13.125 8 -12.8125 4.25 C-8.94638329 0.02701098 -5.44708 -0.27105087 0 0 Z " fill="#8A8D90" transform="translate(574.8125,645.75)"/>
  <path d="M0 0 C0.680625 0.804375 1.36125 1.60875 2.0625 2.4375 C5.48477302 5.42288711 7.5428126 5.73781251 12 6 C12 6.66 12 7.32 12 8 C10.20866022 8.05391993 8.41686101 8.09275571 6.625 8.125 C5.62726562 8.14820313 4.62953125 8.17140625 3.6015625 8.1953125 C1 8 1 8 -1 6 C-1.1875 3.4375 -1.1875 3.4375 -1 1 C-0.67 0.67 -0.34 0.34 0 0 Z " fill="#626468" transform="translate(563,670)"/>
  <path d="M0 0 C0.99 0.33 1.98 0.66 3 1 C3.91194105 4.56486048 4.26830444 6.39631501 2.75 9.8125 C1 12 1 12 -2 13 C-2 10.0845524 -1.59136731 7.65845519 -1 4.8125 C-0.814375 3.91144531 -0.62875 3.01039063 -0.4375 2.08203125 C-0.293125 1.39496094 -0.14875 0.70789063 0 0 Z " fill="#727477" transform="translate(1169,655)"/>
  <path d="M0 0 C3.875 1.875 3.875 1.875 5 3 C5.04092937 5.33297433 5.04241723 7.66705225 5 10 C4.01 10 3.02 10 2 10 C1.566875 8.576875 1.566875 8.576875 1.125 7.125 C0.23174891 3.94788422 0.23174891 3.94788422 -2 2 C-1.34 1.34 -0.68 0.68 0 0 Z " fill="#76787B" transform="translate(614,639)"/>
  <path d="M0 0 C0.99 0 1.98 0 3 0 C2.67 4.29 2.34 8.58 2 13 C1.01 13 0.02 13 -1 13 C-1.02686553 11.02090602 -1.04633375 9.04171029 -1.0625 7.0625 C-1.07410156 5.96035156 -1.08570313 4.85820313 -1.09765625 3.72265625 C-1 1 -1 1 0 0 Z " fill="#686A6C" transform="translate(428,649)"/>
  <path d="M0 0 C0.33 0 0.66 0 1 0 C1.33 5.61 1.66 11.22 2 17 C0.68 16.67 -0.64 16.34 -2 16 C-1.85936865 13.70800823 -1.71234057 11.41640814 -1.5625 9.125 C-1.48128906 7.84882812 -1.40007812 6.57265625 -1.31640625 5.2578125 C-1 2 -1 2 0 0 Z " fill="#6C6E71" transform="translate(393,651)"/>
  <path d="M0 0 C0.2784375 0.8971875 0.2784375 0.8971875 0.5625 1.8125 C2.72273753 5.09981799 5.35107655 5.64854687 9 7 C8.01 7.99 7.02 8.98 6 10 C0.125 8.125 0.125 8.125 -1 7 C-1.125 4 -1.125 4 -1 1 C-0.67 0.67 -0.34 0.34 0 0 Z " fill="#6F7075" transform="translate(733,649)"/>
  <path d="M0 0 C0.66 0.33 1.32 0.66 2 1 C2 4 2 4 0 8 C3.63 8 7.26 8 11 8 C11 8.33 11 8.66 11 9 C7.04 9 3.08 9 -1 9 C-1.66 7.02 -2.32 5.04 -3 3 C-2.01 2.01 -1.02 1.02 0 0 Z " fill="#898C90" transform="translate(711,647)"/>
  <path d="M0 0 C1.9375 0.875 1.9375 0.875 4.9375 2.875 C2.9575 3.205 0.9775 3.535 -1.0625 3.875 C-1.3925 5.855 -1.7225 7.835 -2.0625 9.875 C-2.3925 9.875 -2.7225 9.875 -3.0625 9.875 C-3.0625 8.225 -3.0625 6.575 -3.0625 4.875 C-3.7225 4.875 -4.3825 4.875 -5.0625 4.875 C-5.0625 7.185 -5.0625 9.495 -5.0625 11.875 C-5.3925 11.875 -5.7225 11.875 -6.0625 11.875 C-6.54840022 4.58649675 -6.54840022 4.58649675 -4.3125 1.3125 C-2.0625 -0.125 -2.0625 -0.125 0 0 Z " fill="#8D8F91" transform="translate(978.0625,646.125)"/>
  <path d="M0 0 C1.37478516 0.01740234 1.37478516 0.01740234 2.77734375 0.03515625 C3.69644531 0.04417969 4.61554688 0.05320312 5.5625 0.0625 C6.27277344 0.07410156 6.98304688 0.08570313 7.71484375 0.09765625 C7.38484375 0.75765625 7.05484375 1.41765625 6.71484375 2.09765625 C4.39327778 2.50494853 2.05796505 2.84204302 -0.28515625 3.09765625 C-0.94515625 6.06765625 -1.60515625 9.03765625 -2.28515625 12.09765625 C-2.61515625 12.09765625 -2.94515625 12.09765625 -3.28515625 12.09765625 C-3.31202904 10.28523573 -3.3314934 8.47270392 -3.34765625 6.66015625 C-3.35925781 5.65082031 -3.37085938 4.64148438 -3.3828125 3.6015625 C-3.25661147 0.36576812 -3.22349358 0.13775614 0 0 Z " fill="#4E8DD1" transform="translate(380.28515625,422.90234375)"/>
  <path d="M0 0 C4.8333472 -0.08333357 9.23692563 0.04738513 14 1 C14 1.66 14 2.32 14 3 C9.71 3 5.42 3 1 3 C0.67 2.01 0.34 1.02 0 0 Z " fill="#5F6164" transform="translate(974,665)"/>
  <path d="M0 0 C1.08667969 0.01804687 2.17335938 0.03609375 3.29296875 0.0546875 C4.54013672 0.08949219 4.54013672 0.08949219 5.8125 0.125 C5.8125 0.785 5.8125 1.445 5.8125 2.125 C4.1625 2.125 2.5125 2.125 0.8125 2.125 C0.4825 3.115 0.1525 4.105 -0.1875 5.125 C-1.1775 4.465 -2.1675 3.805 -3.1875 3.125 C-5.1771995 2.73486284 -7.17769869 2.39297351 -9.1875 2.125 C-5.66070901 -0.22619399 -4.15870515 -0.08943452 0 0 Z " fill="#6F7174" transform="translate(986.1875,645.875)"/>
  <path d="M0 0 C1.32 0 2.64 0 4 0 C3.49287967 3.71888239 2.88391785 6.73454239 1 10 C1 9.01 1 8.02 1 7 C0.34 7 -0.32 7 -1 7 C-0.67 4.69 -0.34 2.38 0 0 Z " fill="#86878B" transform="translate(477,646)"/>
  <path d="M0 0 C1.32 0 2.64 0 4 0 C4 0.66 4 1.32 4 2 C4.99 1.34 5.98 0.68 7 0 C9.04296875 -0.1953125 9.04296875 -0.1953125 11.1875 -0.125 C13.0746875 -0.063125 13.0746875 -0.063125 15 0 C12.33878086 3.44393065 9.13551317 4.09770622 5 5 C4.34 4.67 3.68 4.34 3 4 C3 3.01 3 2.02 3 1 C2.01 0.67 1.02 0.34 0 0 Z " fill="#8D8D90" transform="translate(683,646)"/>
  <path d="M0 0 C4.29 0 8.58 0 13 0 C13 0.66 13 1.32 13 2 C12.01 2 11.02 2 10 2 C10 2.66 10 3.32 10 4 C6.44219804 3.39009109 3.3171411 2.4216319 0 1 C0 0.67 0 0.34 0 0 Z " fill="#6E6F73" transform="translate(569,647)"/>
  <path d="M0 0 C-2.64 0.99 -5.28 1.98 -8 3 C-8.33 6.63 -8.66 10.26 -9 14 C-9.33 14 -9.66 14 -10 14 C-10 9.38 -10 4.76 -10 0 C-4 -1 -4 -1 0 0 Z " fill="#387FCE" transform="translate(410,444)"/>
  <path d="M0 0 C0.99 0 1.98 0 3 0 C3.36923077 7.38461538 3.36923077 7.38461538 1.5 10.5 C1.005 10.995 0.51 11.49 0 12 C-0.66 11.67 -1.32 11.34 -2 11 C-1.67 10.484375 -1.34 9.96875 -1 9.4375 C0.32010877 6.21973488 0.13242105 3.4429472 0 0 Z " fill="#5F6164" transform="translate(418,655)"/>
  <path d="M0 0 C1.98 0.495 1.98 0.495 4 1 C3.01 1 2.02 1 1 1 C1.0407666 1.56509277 1.0815332 2.13018555 1.12353516 2.71240234 C1.30161821 5.26597672 1.4634976 7.8203257 1.625 10.375 C1.68945312 11.26445313 1.75390625 12.15390625 1.8203125 13.0703125 C1.871875 13.92109375 1.9234375 14.771875 1.9765625 15.6484375 C2.02893066 16.43395996 2.08129883 17.21948242 2.13525391 18.02880859 C2 20 2 20 0 22 C-1.26798493 17.31315199 -0.91105063 12.96705063 -0.5625 8.1875 C-0.51029297 7.39923828 -0.45808594 6.61097656 -0.40429688 5.79882812 C-0.27540731 3.86548471 -0.13850506 1.93267836 0 0 Z " fill="#979A9C" transform="translate(640,646)"/>
  <path d="M0 0 C0 0.99 0 1.98 0 3 C-2 5 -2 5 -4.1640625 5.1953125 C-5.38222656 5.16050781 -5.38222656 5.16050781 -6.625 5.125 C-7.44226562 5.10695313 -8.25953125 5.08890625 -9.1015625 5.0703125 C-9.72804688 5.04710937 -10.35453125 5.02390625 -11 5 C-11 4.34 -11 3.68 -11 3 C-10.37351562 2.86722656 -9.74703125 2.73445312 -9.1015625 2.59765625 C-8.28429688 2.42105469 -7.46703125 2.24445312 -6.625 2.0625 C-5.81289062 1.88847656 -5.00078125 1.71445312 -4.1640625 1.53515625 C-1.970537 1.07669307 -1.970537 1.07669307 0 0 Z " fill="#6A6C6F" transform="translate(1046,663)"/>
  <path d="M0 0 C0.556875 0.9590625 0.556875 0.9590625 1.125 1.9375 C3.58052793 4.63858072 5.44578805 4.68407005 9 5 C9 5.33 9 5.66 9 6 C7.02 6 5.04 6 3 6 C3 6.66 3 7.32 3 8 C5.64 8 8.28 8 11 8 C11 8.33 11 8.66 11 9 C8.03 9 5.06 9 2 9 C0.11656068 5.23312136 -0.22057835 3.97041037 0 0 Z " fill="#98999C" transform="translate(1032,660)"/>
  <path d="M0 0 C0.33 1.32 0.66 2.64 1 4 C1.66 4 2.32 4 3 4 C3.33 2.68 3.66 1.36 4 0 C6 3 6 3 5.625 6.1875 C5.41875 7.115625 5.2125 8.04375 5 9 C4.67 8.34 4.34 7.68 4 7 C1.98330173 5.86649466 1.98330173 5.86649466 0 5 C0 3.35 0 1.7 0 0 Z " fill="#7C7E82" transform="translate(1197,659)"/>
  <path d="M0 0 C0.66 0 1.32 0 2 0 C2.05399736 1.45792884 2.09279177 2.91642712 2.125 4.375 C2.14820313 5.18710937 2.17140625 5.99921875 2.1953125 6.8359375 C2 9 2 9 0 11 C-1.89885096 9.10114904 -1.12367506 6.42752097 -1.1328125 3.91015625 C-1 2 -1 2 0 0 Z " fill="#5C5F63" transform="translate(1154,653)"/>
  <path d="M0 0 C0.99 0 1.98 0 3 0 C2.67 2.97 2.34 5.94 2 9 C1.34 8.34 0.68 7.68 0 7 C-0.99 7.495 -0.99 7.495 -2 8 C-1.125 1.125 -1.125 1.125 0 0 Z " fill="#808185" transform="translate(1204,646)"/>
  <path d="M0 0 C0.99 0 1.98 0 3 0 C3 2.64 3 5.28 3 8 C1.68 8 0.36 8 -1 8 C-0.67 5.36 -0.34 2.72 0 0 Z " fill="#616265" transform="translate(617,656)"/>
  <path d="M0 0 C0.66 0.33 1.32 0.66 2 1 C-0.55681403 2.93383396 -3.07524586 4.67152101 -6 6 C-9.4375 5.4375 -9.4375 5.4375 -12 4 C-12.33 3.34 -12.66 2.68 -13 2 C-12.39671875 2.02320313 -11.7934375 2.04640625 -11.171875 2.0703125 C-10.37265625 2.08835937 -9.5734375 2.10640625 -8.75 2.125 C-7.56664062 2.15980469 -7.56664062 2.15980469 -6.359375 2.1953125 C-3.78771792 1.98242698 -2.27164664 1.1552391 0 0 Z " fill="#2A4F7C" transform="translate(460,541)"/>
  <path d="M0 0 C1.98 0.495 1.98 0.495 4 1 C3.67 2.65 3.34 4.3 3 6 C1.68 5.67 0.36 5.34 -1 5 C-0.67 3.35 -0.34 1.7 0 0 Z " fill="#7A7B7F" transform="translate(1210,663)"/>
  <path d="M0 0 C3.3 0 6.6 0 10 0 C10 0.99 10 1.98 10 3 C7.47524538 4.26237731 5.68799534 4.09856404 2.875 4.0625 C1.96492188 4.05347656 1.05484375 4.04445313 0.1171875 4.03515625 C-0.58148438 4.02355469 -1.28015625 4.01195312 -2 4 C-2 3.67 -2 3.34 -2 3 C0.97 3 3.94 3 7 3 C7 2.34 7 1.68 7 1 C4.69 1 2.38 1 0 1 C0 0.67 0 0.34 0 0 Z " fill="#919294" transform="translate(492,665)"/>
  <path d="M0 0 C1.0209375 0.2165625 1.0209375 0.2165625 2.0625 0.4375 C5.36273082 1.06945909 8.67144426 1.54313941 12 2 C12 2.66 12 3.32 12 4 C8.7 4 5.4 4 2 4 C1.34 2.68 0.68 1.36 0 0 Z " fill="#68696C" transform="translate(487,664)"/>
  <path d="M0 0 C-0.66 1.32 -1.32 2.64 -2 4 C-4.97 4 -7.94 4 -11 4 C-11 3.34 -11 2.68 -11 2 C-9.5422647 1.664061 -8.08378894 1.33133376 -6.625 1 C-5.40683594 0.7215625 -5.40683594 0.7215625 -4.1640625 0.4375 C-2 0 -2 0 0 0 Z " fill="#686B6E" transform="translate(444,664)"/>
  <path d="M0 0 C1.98 0.495 1.98 0.495 4 1 C3.67 2.65 3.34 4.3 3 6 C1.68 5.67 0.36 5.34 -1 5 C-0.67 3.35 -0.34 1.7 0 0 Z " fill="#7C7D81" transform="translate(773,663)"/>
  <path d="M0 0 C1.21236328 0.02707031 1.21236328 0.02707031 2.44921875 0.0546875 C3.37154297 0.08949219 3.37154297 0.08949219 4.3125 0.125 C1.82809606 2.77599662 -0.25543225 3.89297568 -3.6875 5.125 C-4.6775 5.62 -4.6775 5.62 -5.6875 6.125 C-5.6875 5.135 -5.6875 4.145 -5.6875 3.125 C-6.3475 2.795 -7.0075 2.465 -7.6875 2.125 C-4.48369983 -0.01086678 -3.66810033 -0.10632175 0 0 Z " fill="#87888B" transform="translate(436.6875,645.875)"/>
  <path d="M0 0 C3.375 -0.125 3.375 -0.125 7 0 C7.66 0.66 8.32 1.32 9 2 C8.01 2.99 7.02 3.98 6 5 C4.02 4.01 2.04 3.02 0 2 C0 1.34 0 0.68 0 0 Z " fill="#7B7C7E" transform="translate(545,646)"/>
  <path d="M0 0 C3.96 0.33 7.92 0.66 12 1 C12 1.66 12 2.32 12 3 C8.37 3 4.74 3 1 3 C0.67 2.01 0.34 1.02 0 0 Z " fill="#3D5B87" transform="translate(547,515)"/>
  <path d="M0 0 C1.65 0 3.3 0 5 0 C4.34 2.97 3.68 5.94 3 9 C1.35649921 5.71299843 0.58678331 3.52069985 0 0 Z " fill="#838588" transform="translate(1176,646)"/>
  <path d="M0 0 C0.66 0 1.32 0 2 0 C2 3.63 2 7.26 2 11 C1.01 11 0.02 11 -1 11 C-0.67 7.37 -0.34 3.74 0 0 Z " fill="#606266" transform="translate(403,667)"/>
  <path d="M0 0 C3.03869411 1.51934706 3.64410306 3.98004772 5 7 C5 7.66 5 8.32 5 9 C3.68 9 2.36 9 1 9 C0.67 6.03 0.34 3.06 0 0 Z " fill="#6D6E71" transform="translate(455,659)"/>
  <path d="M0 0 C1.65 0.33 3.3 0.66 5 1 C4.67 2.32 4.34 3.64 4 5 C2.68 4.67 1.36 4.34 0 4 C0 2.68 0 1.36 0 0 Z " fill="#88898D" transform="translate(936,637)"/>
  <path d="M0 0 C1.45823212 -0.0270043 2.91660675 -0.04639787 4.375 -0.0625 C5.18710937 -0.07410156 5.99921875 -0.08570313 6.8359375 -0.09765625 C9 0 9 0 11 1 C10.67 1.99 10.34 2.98 10 4 C2.90178571 3.33035714 2.90178571 3.33035714 0 0 Z " fill="#8C8D90" transform="translate(755,646)"/>
  <path d="M0 0 C1.45823212 -0.0270043 2.91660675 -0.04639787 4.375 -0.0625 C5.18710937 -0.07410156 5.99921875 -0.08570313 6.8359375 -0.09765625 C9 0 9 0 11 1 C10.67 1.99 10.34 2.98 10 4 C8.72125 3.896875 7.4425 3.79375 6.125 3.6875 C5.04605469 3.60048828 5.04605469 3.60048828 3.9453125 3.51171875 C2 3 2 3 0 0 Z " fill="#838487" transform="translate(654,646)"/>
  <path d="M0 0 C3.3 0.33 6.6 0.66 10 1 C10 1.66 10 2.32 10 3 C7.03 3 4.06 3 1 3 C0.67 2.01 0.34 1.02 0 0 Z " fill="#66686C" transform="translate(731,665)"/>
  <path d="M0 0 C0.99 0.33 1.98 0.66 3 1 C2.67 1.99 2.34 2.98 2 4 C4.97 4 7.94 4 11 4 C11 4.33 11 4.66 11 5 C9.37509046 5.02698189 7.75005367 5.04638757 6.125 5.0625 C4.76761719 5.07990234 4.76761719 5.07990234 3.3828125 5.09765625 C1 5 1 5 -1 4 C-0.67 2.68 -0.34 1.36 0 0 Z " fill="#94969A" transform="translate(651,664)"/>
  <path d="M0 0 C-0.33 1.32 -0.66 2.64 -1 4 C-3.31 4.33 -5.62 4.66 -8 5 C-5.81209839 1.71814759 -4.05191042 0 0 0 Z " fill="#696A6D" transform="translate(1111,663)"/>
  <path d="M0 0 C1.8871875 0.061875 1.8871875 0.061875 3.8125 0.125 C3.8125 0.455 3.8125 0.785 3.8125 1.125 C1.5025 1.125 -0.8075 1.125 -3.1875 1.125 C-2.8575 2.115 -2.5275 3.105 -2.1875 4.125 C-3.1775 4.785 -4.1675 5.445 -5.1875 6.125 C-5.8475 4.805 -6.5075 3.485 -7.1875 2.125 C-4.09861478 0.06574319 -3.47814073 -0.1140374 0 0 Z " fill="#85878B" transform="translate(1102.1875,645.875)"/>
  <path d="M0 0 C2.475 0.495 2.475 0.495 5 1 C4.67 2.32 4.34 3.64 4 5 C2.68 4.67 1.36 4.34 0 4 C0 2.68 0 1.36 0 0 Z " fill="#7C7D80" transform="translate(861,637)"/>
  <path d="M0 0 C0.66 0 1.32 0 2 0 C2 2.31 2 4.62 2 7 C0.68 7 -0.64 7 -2 7 C-1.34 4.69 -0.68 2.38 0 0 Z " fill="#6C6E72" transform="translate(724,651)"/>
  <path d="M0 0 C1.32 0 2.64 0 4 0 C3.34 1.98 2.68 3.96 2 6 C0.68 5.67 -0.64 5.34 -2 5 C-1.34 3.35 -0.68 1.7 0 0 Z " fill="#87898C" transform="translate(887,646)"/>
  <path d="M0 0 C7.75 -0.125 7.75 -0.125 10 1 C10 1.99 10 2.98 10 4 C8.72125 3.896875 7.4425 3.79375 6.125 3.6875 C5.04605469 3.60048828 5.04605469 3.60048828 3.9453125 3.51171875 C2 3 2 3 0 0 Z " fill="#818285" transform="translate(735,646)"/>
  <path d="M0 0 C1.98 0.495 1.98 0.495 4 1 C3.67 2.32 3.34 3.64 3 5 C1.68 4.67 0.36 4.34 -1 4 C-0.67 2.68 -0.34 1.36 0 0 Z " fill="#7A7C7F" transform="translate(527,637)"/>
  <path d="M0 0 C4.95 0 9.9 0 15 0 C14.34 1.32 13.68 2.64 13 4 C12.67 3.01 12.34 2.02 12 1 C8.04 1 4.08 1 0 1 C0 0.67 0 0.34 0 0 Z " fill="#274061" transform="translate(863,450)"/>
  <path d="M0 0 C1.32 0.66 2.64 1.32 4 2 C3.1875 3.9375 3.1875 3.9375 2 6 C1.01 6.33 0.02 6.66 -1 7 C-1 4.37886292 -0.68707555 2.49064888 0 0 Z " fill="#7B7E81" transform="translate(1168,661)"/>
  <path d="M0 0 C2.56616632 3.84924948 2.55097676 6.4349304 3 11 C2.01 11 1.02 11 0 11 C-1.08287842 7.75136475 -0.85269793 7.12655906 0 4 C0 2.68 0 1.36 0 0 Z " fill="#919397" transform="translate(468,648)"/>
  <path d="M0 0 C0 2.31 0 4.62 0 7 C-1.32 6.67 -2.64 6.34 -4 6 C-4 4.35 -4 2.7 -4 1 C-1 0 -1 0 0 0 Z " fill="#787A7C" transform="translate(844,651)"/>
  <path d="M0 0 C0 3 0 3 -2.5 5.6875 C-3.325 6.450625 -4.15 7.21375 -5 8 C-5.66 7.67 -6.32 7.34 -7 7 C-2.25 1.125 -2.25 1.125 0 0 Z " fill="#283F60" transform="translate(1125,477)"/>
  <path d="M0 0 C0.66 0 1.32 0 2 0 C2 1.98 2 3.96 2 6 C1.01 6.33 0.02 6.66 -1 7 C-1.04254356 5.00045254 -1.04080783 2.99958364 -1 1 C-0.67 0.67 -0.34 0.34 0 0 Z " fill="#686A6E" transform="translate(564,650)"/>
  <path d="M0 0 C-0.33 0.99 -0.66 1.98 -1 3 C-3.64 3 -6.28 3 -9 3 C-9 2.34 -9 1.68 -9 1 C-5.94152152 0.45627049 -3.11227195 0 0 0 Z " fill="#5D6063" transform="translate(614,651)"/>
  <path d="M0 0 C1.21236328 0.02707031 1.21236328 0.02707031 2.44921875 0.0546875 C3.37154297 0.08949219 3.37154297 0.08949219 4.3125 0.125 C4.3125 0.455 4.3125 0.785 4.3125 1.125 C1.6725 1.125 -0.9675 1.125 -3.6875 1.125 C-3.3575 2.115 -3.0275 3.105 -2.6875 4.125 C-3.6775 4.125 -4.6675 4.125 -5.6875 4.125 C-6.3475 3.465 -7.0075 2.805 -7.6875 2.125 C-4.48369983 -0.01086678 -3.66810033 -0.10632175 0 0 Z " fill="#818488" transform="translate(1038.6875,645.875)"/>
  <path d="M0 0 C3.6875 0.3125 3.6875 0.3125 7 1 C6.67 1.66 6.34 2.32 6 3 C3.03 3 0.06 3 -3 3 C-2.01 2.01 -1.02 1.02 0 0 Z " fill="#093062" transform="translate(542,515)"/>
  <path d="M0 0 C0.99 0 1.98 0 3 0 C3 1.65 3 3.3 3 5 C1.68 5 0.36 5 -1 5 C-1.33 5.66 -1.66 6.32 -2 7 C-2 5.68 -2 4.36 -2 3 C-1.34 3 -0.68 3 0 3 C0 2.01 0 1.02 0 0 Z " fill="#888A8D" transform="translate(879,661)"/>
  <path d="M0 0 C1.98 0.99 1.98 0.99 4 2 C4 3.32 4 4.64 4 6 C3.01 6 2.02 6 1 6 C0.67 4.02 0.34 2.04 0 0 Z " fill="#6D6E71" transform="translate(875,658)"/>
  <path d="M0 0 C2.64 0.33 5.28 0.66 8 1 C8 1.99 8 2.98 8 4 C2.25 3.125 2.25 3.125 0 2 C0 1.34 0 0.68 0 0 Z " fill="#6D6F72" transform="translate(652,655)"/>
  <path d="M0 0 C0.66 0 1.32 0 2 0 C2 1.65 2 3.3 2 5 C0.02 5.99 0.02 5.99 -2 7 C-1.34 4.69 -0.68 2.38 0 0 Z " fill="#686A6D" transform="translate(987,652)"/>
  <path d="M0 0 C1.32 0.66 2.64 1.32 4 2 C2.68 3.65 1.36 5.3 0 7 C0 6.01 0 5.02 0 4 C-0.66 4 -1.32 4 -2 4 C-1.34 2.68 -0.68 1.36 0 0 Z " fill="#7E8082" transform="translate(828,648)"/>
  <path d="M0 0 C0.99 0 1.98 0 3 0 C3 1.32 3 2.64 3 4 C1.02 4.99 1.02 4.99 -1 6 C-1.042721 4.33388095 -1.04063832 2.66617115 -1 1 C-0.67 0.67 -0.34 0.34 0 0 Z " fill="#747678" transform="translate(428,649)"/>
  <path d="M0 0 C0 0.33 0 0.66 0 1 C-2.31 1 -4.62 1 -7 1 C-7.33 2.32 -7.66 3.64 -8 5 C-8.99 4.34 -9.98 3.68 -11 3 C-8.21756596 -1.17365106 -4.53441502 -0.22300402 0 0 Z " fill="#848589" transform="translate(962,646)"/>
  <path d="M0 0 C1.98 0.495 1.98 0.495 4 1 C4 1.99 4 2.98 4 4 C2.35 4 0.7 4 -1 4 C-0.67 2.68 -0.34 1.36 0 0 Z " fill="#797B7E" transform="translate(672,637)"/>
  <path d="M0 0 C0.33 0.66 0.66 1.32 1 2 C-0.91522803 6.03205902 -1.85351878 6.92675939 -6 9 C-4.02 6.03 -2.04 3.06 0 0 Z " fill="#2E476B" transform="translate(855,459)"/>
  <path d="M0 0 C0.99 0.33 1.98 0.66 3 1 C3 2.65 3 4.3 3 6 C2.01 6 1.02 6 0 6 C0 4.02 0 2.04 0 0 Z " fill="#67686A" transform="translate(378,662)"/>
  <path d="M0 0 C0.66 0 1.32 0 2 0 C3.46726798 3.81489674 2.43336419 6.29011622 1 10 C0.67 10 0.34 10 0 10 C0 6.7 0 3.4 0 0 Z " fill="#717478" transform="translate(707,652)"/>
  <path d="M0 0 C0.66 0 1.32 0 2 0 C2 1.98 2 3.96 2 6 C1.01 6.33 0.02 6.66 -1 7 C-0.67 4.69 -0.34 2.38 0 0 Z " fill="#717276" transform="translate(1180,649)"/>
  <path d="M0 0 C0.66 0.33 1.32 0.66 2 1 C2 2.65 2 4.3 2 6 C0.68 5.67 -0.64 5.34 -2 5 C-1.34 3.35 -0.68 1.7 0 0 Z " fill="#686A6D" transform="translate(910,651)"/>
  <path d="M0 0 C2.31 0 4.62 0 7 0 C7 0.99 7 1.98 7 3 C6.34 3.66 5.68 4.32 5 5 C4.34 4.01 3.68 3.02 3 2 C2.01 1.34 1.02 0.68 0 0 Z " fill="#747476" transform="translate(692,647)"/>
  <path d="M0 0 C0 0.33 0 0.66 0 1 C-2.31 1.33 -4.62 1.66 -7 2 C-7 2.66 -7 3.32 -7 4 C-8.32 3.34 -9.64 2.68 -11 2 C-7.36576791 -0.32590854 -4.22911669 -0.16265833 0 0 Z " fill="#848587" transform="translate(391,646)"/>
  <path d="M0 0 C0 0.33 0 0.66 0 1 C-0.969375 1.12375 -1.93875 1.2475 -2.9375 1.375 C-4.4534375 1.684375 -4.4534375 1.684375 -6 2 C-6.33 2.66 -6.66 3.32 -7 4 C-8.32 3.67 -9.64 3.34 -11 3 C-7.48550811 -0.37391222 -4.73940561 -0.27342725 0 0 Z " fill="#86878A" transform="translate(378,646)"/>
<title>Techkulture Hub</title></svg>
